{
.formatVersion = 3;
classes = (
{
code = "u10C80 u10C81 u10C82 u10C83 u10C84 u10C85 u10C86 u10C87 u10C88 u10C89 u10C8A u10C8B u10C8C u10C8D u10C8E u10C8F u10C90 u10C91 u10C92 u10C93 u10C94 u10C95 u10C96 u10C97 u10C98 u10C99 u10C9A u10C9B u10C9C u10C9D u10C9E u10C9F u10CA0 u10CA1 u10CA2 u10CA3 u10CA4 u10CA5 u10CA6 u10CA7 u10CA8 u10CA9 u10CAA u10CAB u10CAC u10CAD u10CAE u10CAF u10CB0 u10CB1 u10CB2 u10CC0 u10CC1 u10CC2 u10CC3 u10CC4 u10CC5 u10CC6 u10CC7 u10CC8 u10CC9 u10CCA u10CCB u10CCC u10CCD u10CCE u10CCF u10CD0 u10CD1 u10CD2 u10CD3 u10CD4 u10CD5 u10CD6 u10CD7 u10CD8 u10CD9 u10CDA u10CDB u10CDC u10CDD u10CDE u10CDF u10CE0 u10CE1 u10CE2 u10CE3 u10CE4 u10CE5 u10CE6 u10CE7 u10CE8 u10CE9 u10CEA u10CEB u10CEC u10CED u10CEE u10CEF u10CF0 u10CF1 u10CF2";
name = ltrm;
},
{

glyphs = (
{
glyphname = .notdef;
layers = (
{
layerId = "97583185-4D09-4CC5-9049-5210241494EA";
shapes = (
{
closed = 1;
nodes = (
(94,0,l),
(94,714,l),
(505,714,l),
(505,0,l)
);
},
{
closed = 1;
nodes = (
(145,51,l),
(454,51,l),
(454,663,l),
(145,663,l)
);
}
);
width = 600;
}
);
},
{
glyphname = u10C80;
layers = (
{
layerId = "97583185-4D09-4CC5-9049-5210241494EA";
shapes = (
{
closed = 1;
nodes = (
(310,1,l),
(310,425,l),
(10,457,l),
(10,562,l),
(303,802,l),
(400,802,l),
(400,1,l)
);
},
{
closed = 1;
nodes = (
(310,508,l),
(310,705,l),
(92,528,l)
);
}
);
width = 529;
}
);
unicode = 68736;
},
{
glyphname = u10C81;
layers = (
{
layerId = "97583185-4D09-4CC5-9049-5210241494EA";
shapes = (
{
closed = 1;
nodes = (
(310,0,l),
(310,212,l),
(23,450,l),
(23,526,l),
(307,802,l),
(400,802,l),
(400,0,l)
);
},
{
closed = 1;
nodes = (
(310,327,l),
(310,697,l),
(107,489,l)
);
}
);
width = 529;
}
);
unicode = 68737;
},
{
glyphname = u10C82;
layers = (
{
layerId = "97583185-4D09-4CC5-9049-5210241494EA";
shapes = (
{
closed = 1;
nodes = (
(4,1,l),
(286,444,l),
(22,802,l),
(132,802,l),
(346,485,l),
(563,802,l),
(667,802,l),
(404,446,l),
(687,1,l),
(575,1,l),
(343,376,l),
(108,1,l)
);
}
);
width = 691;
}
);
unicode = 68738;
},
{
glyphname = u10C83;
layers = (
{
layerId = "97583185-4D09-4CC5-9049-5210241494EA";
shapes = (
{
closed = 1;
nodes = (
(464,0,l),
(429,28,o),
(367,84,o),
(341,112,q),
(251,1,l),
(55,89,l),
(85,164,l),
(226,96,l),
(288,179,l),
(251,233,o),
(211,354,o),
(211,447,o),
(251,568,o),
(288,623,q),
(226,705,l),
(85,637,l),
(55,713,l),
(251,800,l),
(341,689,l),
(367,718,o),
(429,774,o),
(463,801,q),
(557,801,l),
(592,774,o),
(652,720,o),
(678,691,q),
(765,800,l),
(963,713,l),
(931,637,l),
(791,705,l),
(731,625,l),
(769,570,o),
(809,447,o),
(809,404,qs),
(809,353,o),
(769,231,o),
(731,176,q),
(791,96,l),
(931,164,l),
(963,89,l),
(765,1,l),
(678,110,l),
(652,82,o),
(592,27,o),
(557,0,q)
);
},
{
closed = 1;
nodes = (
(512,72,l),
(581,132,o),
(671,239,o),
(716,354,o),
(716,447,o),
(671,562,o),
(581,670,o),
(512,730,q),
(508,730,l),
(440,670,o),
(349,562,o),
(304,447,o),
(304,354,o),
(349,239,o),
(440,132,o),
(508,72,q)
);
}
);
width = 1018;
}
);
unicode = 68739;
},
{
glyphname = u10C84;
layers = (
{
layerId = "97583185-4D09-4CC5-9049-5210241494EA";
shapes = (
{
closed = 1;
nodes = (
(265,1,l),
(265,678,l),
(83,515,l),
(24,579,l),
(273,802,l),
(347,802,l),
(596,579,l),
(537,515,l),
(355,678,l),
(355,1,l)
);
}
);
width = 620;
}
);
unicode = 68740;
},
{
glyphname = u10C85;
layers = (
{
layerId = "97583185-4D09-4CC5-9049-5210241494EA";
shapes = (
{
closed = 1;
nodes = (
(273,1,l),
(24,224,l),
(83,288,l),
(265,125,l),
(265,678,l),
(83,515,l),
(31,579,l),
(273,802,l),
(347,802,l),
(589,579,l),
(537,515,l),
(355,678,l),
(355,125,l),
(537,288,l),
(596,224,l),
(347,1,l)
);
}
);
width = 620;
}
);
unicode = 68741;
},
{
glyphname = u10C86;
layers = (
{
layerId = "97583185-4D09-4CC5-9049-5210241494EA";
shapes = (
{
closed = 1;
nodes = (
(124,1,l),
(124,801,l),
(214,801,l),
(214,543,l),
(621,801,l),
(708,801,l),
(708,1,l),
(618,1,l),
(618,260,l),
(211,1,l)
);
},
{
closed = 1;
nodes = (
(214,106,l),
(618,357,l),
(618,701,l),
(214,444,l)
);
}
);
width = 832;
}
);
unicode = 68742;
},
{
glyphname = u10C87;
layers = (
{
layerId = "97583185-4D09-4CC5-9049-5210241494EA";
shapes = (
{
closed = 1;
nodes = (
(265,1,l),
(265,371,l),
(96,279,l),
(57,351,l),
(265,462,l),
(265,802,l),
(361,802,l),
(361,512,l),
(530,607,l),
(569,533,l),
(361,420,l),
(361,1,l)
);
}
);
width = 627;
}
);
unicode = 68743;
},
{
glyphname = u10C88;
layers = (
{
layerId = "97583185-4D09-4CC5-9049-5210241494EA";
shapes = (
{
closed = 1;
nodes = (
(4,1,l),
(245,339,l),
(54,282,l),
(30,349,l),
(274,421,l),
(22,802,l),
(132,802,l),
(346,469,l),
(563,802,l),
(667,802,l),
(448,473,l),
(636,529,l),
(652,459,l),
(414,389,l),
(687,1,l),
(575,1,l),
(343,335,l),
(108,1,l)
);
}
);
width = 691;
}
);
unicode = 68744;
},
{
glyphname = u10C89;
layers = (
{
layerId = "97583185-4D09-4CC5-9049-5210241494EA";
shapes = (
{
closed = 1;
nodes = (
(86,69,l),
(129,96,o),
(200,146,o),
(228,170,q),
(98,282,l),
(153,341,l),
(287,225,l),
(334,276,o),
(374,382,o),
(374,431,o),
(333,536,o),
(283,589,q),
(153,476,l),
(98,536,l),
(224,644,l),
(195,668,o),
(124,720,o),
(81,748,q),
(142,815,l),
(187,786,o),
(262,731,o),
(293,704,q),
(418,812,l),
(467,749,l),
(352,649,l),
(415,582,o),
(468,447,o),
(468,366,o),
(416,232,o),
(354,167,q),
(467,69,l),
(418,6,l),
(295,112,l),
(263,85,o),
(184,28,o),
(137,-2,q)
);
}
);
width = 563;
}
);
unicode = 68745;
},
{
glyphname = u10C8A;
layers = (
{
layerId = "97583185-4D09-4CC5-9049-5210241494EA";
shapes = (
{
closed = 1;
nodes = (
(98,67,l),
(136,91,o),
(200,135,o),
(227,156,q),
(160,224,o),
(102,362,o),
(102,394,qs),
(102,437,o),
(159,575,o),
(226,642,q),
(198,665,o),
(132,712,o),
(93,737,q),
(154,804,l),
(236,751,o),
(293,704,q),
(350,751,o),
(432,804,q),
(493,737,l),
(454,712,o),
(388,665,o),
(361,643,q),
(427,575,o),
(484,438,o),
(484,394,qs),
(484,362,o),
(427,224,o),
(359,156,q),
(386,135,o),
(451,91,o),
(488,67,q),
(436,-4,l),
(395,23,o),
(323,73,o),
(293,97,q),
(263,73,o),
(191,23,o),
(150,-4,q)
);
},
{
closed = 1;
nodes = (
(345,268,o),
(390,373,o),
(390,394,qs),
(390,421,o),
(346,528,o),
(293,582,q),
(240,528,o),
(196,421,o),
(196,394,qs),
(196,373,o),
(241,268,o),
(293,215,q)
);
}
);
width = 586;
}
);
unicode = 68746;
},
{
glyphname = u10C8B;
layers = (
{
layerId = "97583185-4D09-4CC5-9049-5210241494EA";
shapes = (
{
closed = 1;
nodes = (
(280,-39,l),
(88,128,l),
(174,179,o),
(283,271,o),
(336,366,o),
(336,463,o),
(284,558,o),
(174,649,o),
(88,701,q),
(280,867,l),
(338,799,l),
(231,710,l),
(337,637,o),
(430,494,o),
(430,336,o),
(337,193,o),
(231,119,q),
(338,30,l)
);
}
);
width = 512;
}
);
unicode = 68747;
},
{
glyphname = u10C8C;
layers = (
{
layerId = "97583185-4D09-4CC5-9049-5210241494EA";
shapes = (
{
closed = 1;
nodes = (
(338,0,l),
(258,62,o),
(143,190,o),
(81,336,o),
(81,404,qs),
(81,473,o),
(143,619,o),
(258,741,o),
(337,802,q),
(431,802,l),
(511,741,o),
(625,619,o),
(687,473,o),
(687,404,qs),
(687,336,o),
(625,190,o),
(511,62,o),
(431,0,q)
);
},
{
closed = 1;
nodes = (
(386,437,l),
(522,600,l),
(497,634,o),
(430,697,o),
(386,734,q),
(382,734,l),
(288,654,o),
(247,602,q)
);
},
{
closed = 1;
nodes = (
(339,402,l),
(209,540,l),
(174,470,o),
(174,404,qs),
(174,380,o),
(192,303,o),
(210,267,q)
);
},
{
closed = 1;
nodes = (
(560,270,l),
(594,339,o),
(594,404,qs),
(594,469,o),
(560,537,q),
(432,402,l)
);
},
{
closed = 1;
nodes = (
(386,72,l),
(428,107,o),
(494,173,o),
(519,206,q),
(386,366,l),
(251,203,l),
(276,172,o),
(341,107,o),
(382,72,q)
);
}
);
width = 769;
}
);
unicode = 68748;
},
{
glyphname = u10C8D;
layers = (
{
layerId = "97583185-4D09-4CC5-9049-5210241494EA";
shapes = (
{
closed = 1;
nodes = (
(21,1,l),
(360,802,l),
(447,802,l),
(780,1,l),
(681,1,l),
(524,392,l),
(380,1,l),
(286,1,l),
(480,481,l),
(468,506,ls),
(457,529,o),
(430,606,qs),
(414,653,o),
(403,695,q),
(399,695,l),
(389,653,o),
(372,606,qs),
(336,512,o),
(333,504,qs),
(121,1,l)
);
}
);
width = 801;
}
);
unicode = 68749;
},
{
glyphname = u10C8E;
layers = (
{
layerId = "97583185-4D09-4CC5-9049-5210241494EA";
shapes = (
{
closed = 1;
nodes = (
(265,1,l),
(265,215,l),
(96,124,l),
(57,196,l),
(265,309,l),
(265,464,l),
(96,373,l),
(57,445,l),
(265,558,l),
(265,802,l),
(361,802,l),
(361,610,l),
(530,701,l),
(569,627,l),
(361,515,l),
(361,361,l),
(530,452,l),
(569,378,l),
(361,266,l),
(361,1,l)
);
}
);
width = 624;
}
);
unicode = 68750;
},
{
glyphname = u10C8F;
layers = (
{
layerId = "97583185-4D09-4CC5-9049-5210241494EA";
shapes = (
{
closed = 1;
nodes = (
(64,1,l),
(295,215,l),
(51,412,l),
(295,602,l),
(64,802,l),
(184,802,l),
(354,653,l),
(523,802,l),
(645,802,l),
(414,602,l),
(659,412,l),
(414,215,l),
(645,1,l),
(523,1,l),
(354,161,l),
(186,1,l)
);
},
{
closed = 1;
nodes = (
(354,273,l),
(534,413,l),
(354,549,l),
(174,413,l)
);
}
);
width = 710;
}
);
unicode = 68751;
},
{
glyphname = u10C90;
layers = (
{
layerId = "97583185-4D09-4CC5-9049-5210241494EA";
shapes = (
{
closed = 1;
nodes = (
(265,1,l),
(265,472,l),
(96,381,l),
(57,453,l),
(265,566,l),
(264,802,l),
(360,802,l),
(361,618,l),
(530,709,l),
(569,635,l),
(361,523,l),
(361,1,l)
);
}
);
width = 627;
}
);
unicode = 68752;
},
{
glyphname = u10C91;
layers = (
{
layerId = "97583185-4D09-4CC5-9049-5210241494EA";
shapes = (
{
closed = 1;
nodes = (
(278,1,l),
(278,689,l),
(96,591,l),
(57,663,l),
(530,919,l),
(569,845,l),
(374,740,l),
(374,1,l)
);
}
);
width = 627;
}
);
unicode = 68753;
},
{
glyphname = u10C92;
layers = (
{
layerId = "97583185-4D09-4CC5-9049-5210241494EA";
shapes = (
{
closed = 1;
nodes = (
(324,1,l),
(324,676,l),
(86,441,l),
(31,501,l),
(337,802,l),
(413,802,l),
(413,1,l)
);
}
);
width = 547;
}
);
unicode = 68754;
},
{
glyphname = u10C93;
layers = (
{
layerId = "97583185-4D09-4CC5-9049-5210241494EA";
shapes = (
{
closed = 1;
nodes = (
(297,1,l),
(56,412,l),
(297,802,l),
(389,802,l),
(629,412,l),
(389,1,l)
);
},
{
closed = 1;
nodes = (
(343,87,l),
(528,412,l),
(343,717,l),
(156,412,l)
);
}
);
width = 684;
}
);
unicode = 68755;
},
{
glyphname = u10C94;
layers = (
{
layerId = "97583185-4D09-4CC5-9049-5210241494EA";
shapes = (
{
closed = 1;
nodes = (
(265,0,l),
(265,679,l),
(83,516,l),
(24,580,l),
(273,802,l),
(355,802,l),
(355,123,l),
(537,287,l),
(596,223,l),
(347,0,l)
);
}
);
width = 613;
}
);
unicode = 68756;
},
{
glyphname = u10C95;
layers = (
{
layerId = "97583185-4D09-4CC5-9049-5210241494EA";
shapes = (
{
closed = 1;
nodes = (
(241,0,l),
(33,100,l),
(67,171,l),
(200,102,l),
(409,399,l),
(206,697,l),
(73,629,l),
(39,699,l),
(247,801,l),
(454,465,l),
(662,801,l),
(869,699,l),
(836,629,l),
(702,697,l),
(500,399,l),
(708,102,l),
(842,171,l),
(875,100,l),
(668,0,l),
(454,326,l)
);
}
);
width = 907;
}
);
unicode = 68757;
},
{
glyphname = u10C96;
layers = (
{
layerId = "97583185-4D09-4CC5-9049-5210241494EA";
shapes = (
{
closed = 1;
nodes = (
(18,1,l),
(360,802,l),
(446,802,l),
(784,1,l),
(685,1,l),
(615,155,l),
(541,1,l),
(453,1,l),
(582,247,l),
(515,411,l),
(332,1,l),
(242,1,l),
(479,517,l),
(461,566,o),
(425,650,o),
(414,689,q),
(400,689,l),
(388,649,o),
(370,602,qs),
(338,514,o),
(332,500,qs),
(118,1,l)
);
}
);
width = 801;
}
);
unicode = 68758;
},
{
glyphname = u10C97;
layers = (
{
layerId = "97583185-4D09-4CC5-9049-5210241494EA";
shapes = (
{
closed = 1;
nodes = (
(338,1,l),
(260,63,o),
(147,191,o),
(85,337,o),
(85,469,o),
(146,615,o),
(260,740,o),
(337,801,q),
(431,801,l),
(509,740,o),
(622,615,o),
(683,469,o),
(683,337,o),
(622,191,o),
(509,63,o),
(431,1,q)
);
},
{
closed = 1;
nodes = (
(519,597,l),
(494,630,o),
(428,697,o),
(386,734,q),
(382,734,l),
(314,674,o),
(223,566,o),
(178,451,o),
(178,405,qs),
(178,345,o),
(208,279,q)
);
},
{
closed = 1;
nodes = (
(386,73,l),
(455,133,o),
(545,240,o),
(590,355,o),
(590,405,qs),
(590,465,o),
(558,530,q),
(250,210,l),
(275,176,o),
(341,110,o),
(382,73,q)
);
}
);
width = 768;
}
);
unicode = 68759;
},
{
glyphname = u10C98;
layers = (
{
layerId = "97583185-4D09-4CC5-9049-5210241494EA";
shapes = (
{
closed = 1;
nodes = (
(402,1,l),
(72,196,l),
(72,283,l),
(288,410,l),
(72,523,l),
(72,611,l),
(402,802,l),
(497,802,l),
(497,1,l)
);
},
{
closed = 1;
nodes = (
(407,446,l),
(407,708,l),
(156,565,l)
);
},
{
closed = 1;
nodes = (
(407,98,l),
(407,390,l),
(156,244,l)
);
}
);
width = 627;
}
);
unicode = 68760;
},
{
glyphname = u10C99;
layers = (
{
layerId = "97583185-4D09-4CC5-9049-5210241494EA";
shapes = (
{
closed = 1;
nodes = (
(67,71,l),
(174,139,o),
(302,255,o),
(358,375,o),
(358,418,qs),
(358,442,o),
(328,534,o),
(260,621,o),
(146,715,o),
(62,770,q),
(123,837,l),
(245,758,o),
(389,618,o),
(452,474,o),
(452,418,qs),
(452,362,o),
(388,218,o),
(242,80,o),
(118,0,q)
);
}
);
width = 538;
}
);
unicode = 68761;
},
{
glyphname = u10C9A;
layers = (
{
layerId = "97583185-4D09-4CC5-9049-5210241494EA";
shapes = (
{
closed = 1;
nodes = (
(122,1,l),
(122,802,l),
(212,802,l),
(319,752,o),
(412,664,qs),
(474,606,o),
(512,527,qs),
(542,466,o),
(542,394,qs),
(542,344,o),
(478,201,o),
(402,136,qs),
(300,47,o),
(212,1,q)
);
},
{
closed = 1;
nodes = (
(212,102,l),
(275,138,o),
(347,202,qs),
(402,252,o),
(448,362,o),
(448,394,qs),
(448,449,o),
(428,493,qs),
(412,530,o),
(349,598,qs),
(281,670,o),
(212,702,q)
);
}
);
width = 633;
}
);
unicode = 68762;
},
{
glyphname = u10C9B;
layers = (
{
layerId = "97583185-4D09-4CC5-9049-5210241494EA";
shapes = (
{
closed = 1;
nodes = (
(55,219,l),
(117,280,l),
(299,111,l),
(359,163,o),
(432,261,o),
(465,372,o),
(465,400,qs),
(465,438,o),
(452,479,qs),
(432,542,o),
(398,582,q),
(365,624,o),
(289,690,q),
(117,531,l),
(55,592,l),
(291,806,l),
(400,717,o),
(453,658,qs),
(508,595,o),
(537,518,qs),
(559,458,o),
(559,400,qs),
(559,347,o),
(500,200,o),
(381,69,o),
(291,0,q)
);
}
);
width = 634;
}
);
unicode = 68763;
},
{
glyphname = u10C9C;
layers = (
{
layerId = "97583185-4D09-4CC5-9049-5210241494EA";
shapes = (
{
closed = 1;
nodes = (
(37,266,l),
(241,491,l),
(301,428,l),
(159,274,l),
(319,113,l),
(407,193,o),
(482,343,o),
(482,435,qs),
(482,486,o),
(439,583,o),
(339,702,o),
(251,776,q),
(311,851,l),
(409,768,o),
(527,623,o),
(579,499,o),
(579,435,qs),
(579,348,o),
(520,203,o),
(401,70,o),
(311,-2,q)
);
}
);
width = 658;
}
);
unicode = 68764;
},
{
glyphname = u10C9D;
layers = (
{
layerId = "97583185-4D09-4CC5-9049-5210241494EA";
shapes = (
{
closed = 1;
nodes = (
(336,1,l),
(71,303,l),
(293,501,l),
(76,738,l),
(140,804,l),
(411,506,l),
(190,307,l),
(399,67,l)
);
}
);
width = 482;
}
);
unicode = 68765;
},
{
glyphname = u10C9E;
layers = (
{
layerId = "97583185-4D09-4CC5-9049-5210241494EA";
shapes = (
{
closed = 1;
nodes = (
(123,1,l),
(123,802,l),
(213,802,l),
(213,415,l),
(488,802,l),
(597,802,l),
(317,419,l),
(606,1,l),
(492,1,l),
(213,413,l),
(213,1,l)
);
}
);
width = 624;
}
);
unicode = 68766;
},
{
glyphname = u10C9F;
layers = (
{
layerId = "97583185-4D09-4CC5-9049-5210241494EA";
shapes = (
{
closed = 1;
nodes = (
(39,264,l),
(42,265,l),
(37,268,l),
(241,491,l),
(302,429,l),
(157,275,l),
(317,116,l),
(349,145,o),
(402,200,o),
(421,228,q),
(364,279,l),
(412,335,l),
(458,294,l),
(485,360,o),
(485,436,qs),
(485,476,o),
(456,543,q),
(412,504,l),
(364,560,l),
(418,608,l),
(390,646,o),
(308,729,o),
(251,777,q),
(311,851,l),
(369,802,o),
(457,714,o),
(488,671,q),
(576,750,l),
(624,693,l),
(528,607,l),
(555,558,o),
(579,455,o),
(579,436,qs),
(579,323,o),
(527,231,q),
(627,142,l),
(579,87,l),
(486,170,l),
(454,128,o),
(367,45,o),
(311,1,q)
);
}
);
width = 724;
}
);
unicode = 68767;
},
{
glyphname = u10CA0;
layers = (
{
layerId = "97583185-4D09-4CC5-9049-5210241494EA";
shapes = (
{
closed = 1;
nodes = (
(116,-11,l),
(61,44,l),
(361,331,l),
(361,445,l),
(116,207,l),
(61,262,l),
(361,553,l),
(361,688,l),
(116,450,l),
(61,505,l),
(370,802,l),
(451,802,l),
(451,0,l),
(361,0,l),
(361,226,l)
);
}
);
width = 578;
}
);
unicode = 68768;
},
{
glyphname = u10CA1;
layers = (
{
layerId = "97583185-4D09-4CC5-9049-5210241494EA";
shapes = (
{
closed = 1;
nodes = (
(235,-33,l),
(170,27,l),
(300,163,l),
(269,205,o),
(226,295,o),
(215,344,q),
(80,262,l),
(39,340,l),
(208,432,l),
(209,484,o),
(247,569,o),
(293,628,q),
(291,640,l),
(160,564,l),
(121,643,l),
(464,803,l),
(563,803,l),
(906,643,l),
(867,564,l),
(735,640,l),
(732,637,l),
(779,578,o),
(795,526,qs),
(811,472,o),
(812,432,q),
(981,340,l),
(939,262,l),
(804,344,l),
(785,249,o),
(720,163,q),
(856,27,l),
(792,-33,l),
(667,100,l),
(642,75,o),
(593,27,o),
(563,2,q),
(465,2,l),
(434,27,o),
(379,75,o),
(354,100,q)
);
},
{
closed = 1;
nodes = (
(517,74,l),
(616,151,o),
(725,320,o),
(725,432,qs),
(725,520,o),
(624,671,o),
(517,735,q),
(513,735,l),
(407,671,o),
(305,520,o),
(305,432,qs),
(305,320,o),
(415,151,o),
(513,74,q)
);
}
);
width = 1027;
}
);
unicode = 68769;
},
{
glyphname = u10CA2;
layers = (
{
layerId = "97583185-4D09-4CC5-9049-5210241494EA";
shapes = (
{
closed = 1;
nodes = (
(130,1,l),
(130,802,l),
(220,802,l),
(220,343,l),
(613,605,l),
(613,802,l),
(703,802,l),
(703,1,l),
(613,1,l),
(613,505,l),
(220,248,l),
(220,1,l)
);
}
);
width = 832;
}
);
unicode = 68770;
},
{
glyphname = u10CA3;
layers = (
{
layerId = "97583185-4D09-4CC5-9049-5210241494EA";
shapes = (
{
closed = 1;
nodes = (
(93,262,l),
(52,336,l),
(514,609,l),
(556,535,l)
);
}
);
width = 613;
}
);
unicode = 68771;
},
{
glyphname = u10CA4;
layers = (
{
layerId = "97583185-4D09-4CC5-9049-5210241494EA";
shapes = (
{
closed = 1;
nodes = (
(13,1,l),
(320,802,l),
(411,802,l),
(712,1,l),
(617,1,l),
(424,502,ls),
(419,515,o),
(390,602,qs),
(374,650,o),
(364,690,q),
(360,690,l),
(350,650,o),
(334,602,qs),
(303,512,o),
(299,500,qs),
(108,1,l)
);
}
);
width = 724;
}
);
unicode = 68772;
},
{
glyphname = u10CA5;
layers = (
{
layerId = "97583185-4D09-4CC5-9049-5210241494EA";
shapes = (
{
closed = 1;
nodes = (
(124,0,l),
(124,801,l),
(214,801,l),
(214,0,l)
);
}
);
width = 341;
}
);
unicode = 68773;
},
{
glyphname = u10CA6;
layers = (
{
layerId = "97583185-4D09-4CC5-9049-5210241494EA";
shapes = (
{
closed = 1;
nodes = (
(356,1,l),
(356,324,l),
(10,779,l),
(82,828,l),
(356,464,l),
(356,802,l),
(446,802,l),
(446,1,l)
);
}
);
width = 567;
}
);
unicode = 68774;
},
{
glyphname = u10CA7;
layers = (
{
layerId = "97583185-4D09-4CC5-9049-5210241494EA";
shapes = (
{
closed = 1;
nodes = (
(388,2,l),
(388,483,l),
(185,698,l),
(76,585,l),
(20,644,l),
(188,815,l),
(388,600,l),
(388,803,l),
(478,803,l),
(478,599,l),
(679,815,l),
(847,644,l),
(790,585,l),
(681,698,l),
(478,482,l),
(478,2,l)
);
}
);
width = 866;
}
);
unicode = 68775;
},
{
glyphname = u10CA8;
layers = (
{
layerId = "97583185-4D09-4CC5-9049-5210241494EA";
shapes = (
{
closed = 1;
nodes = (
(268,2,l),
(420,250,l),
(343,369,l),
(108,2,l),
(4,2,l),
(286,421,l),
(22,804,l),
(132,804,l),
(227,657,l),
(317,804,l),
(413,804,l),
(274,581,l),
(346,467,l),
(563,803,l),
(667,803,l),
(404,423,l),
(687,2,l),
(575,2,l),
(468,173,l),
(364,2,l)
);
}
);
width = 691;
}
);
unicode = 68776;
},
{
glyphname = u10CA9;
layers = (
{
layerId = "97583185-4D09-4CC5-9049-5210241494EA";
shapes = (
{
closed = 1;
nodes = (
(607,-27,l),
(320,51,l),
(345,125,l),
(548,66,l),
(352,355,l),
(104,0,l),
(4,0,l),
(298,416,l),
(34,801,l),
(141,801,l),
(356,483,l),
(547,741,l),
(344,681,l),
(323,754,l),
(609,835,l),
(670,780,l),
(407,421,l),
(671,38,l)
);
}
);
width = 724;
}
);
unicode = 68777;
},
{
glyphname = u10CAA;
layers = (
{
layerId = "97583185-4D09-4CC5-9049-5210241494EA";
shapes = (
{
closed = 1;
nodes = (
(124,1,l),
(124,801,l),
(212,801,l),
(437,627,l),
(662,801,l),
(750,801,l),
(750,1,l),
(662,1,l),
(437,176,l),
(212,1,l)
);
},
{
closed = 1;
nodes = (
(214,108,l),
(437,276,l),
(660,108,l),
(660,694,l),
(437,526,l),
(214,694,l)
);
}
);
width = 885;
}
);
unicode = 68778;
},
{
glyphname = u10CAB;
layers = (
{
layerId = "97583185-4D09-4CC5-9049-5210241494EA";
shapes = (
{
closed = 1;
nodes = (
(122,0,l),
(122,802,l),
(204,802,l),
(478,456,l),
(755,802,l),
(837,802,l),
(837,0,l),
(755,0,l),
(478,348,l),
(204,0,l)
);
},
{
closed = 1;
nodes = (
(744,146,l),
(748,146,l),
(748,657,l),
(744,657,l),
(528,404,l)
);
},
{
closed = 1;
nodes = (
(211,154,l),
(215,154,l),
(426,404,l),
(215,649,l),
(211,649,l)
);
}
);
width = 953;
}
);
unicode = 68779;
},
{
glyphname = u10CAC;
layers = (
{
layerId = "97583185-4D09-4CC5-9049-5210241494EA";
shapes = (
{
closed = 1;
nodes = (
(106,-15,l),
(41,45,l),
(165,175,l),
(127,230,o),
(85,353,o),
(85,449,o),
(127,573,o),
(165,628,q),
(41,756,l),
(106,817,l),
(218,692,l),
(244,721,o),
(303,776,o),
(337,802,q),
(431,802,l),
(465,775,o),
(526,720,o),
(551,692,q),
(663,817,l),
(727,756,l),
(603,627,l),
(641,572,o),
(683,448,o),
(683,403,qs),
(683,353,o),
(641,231,o),
(603,175,q),
(728,45,l),
(663,-15,l),
(551,110,l),
(525,82,o),
(465,28,o),
(431,1,q),
(338,1,l),
(304,28,o),
(244,82,o),
(218,110,q)
);
},
{
closed = 1;
nodes = (
(386,73,l),
(455,133,o),
(545,240,o),
(590,355,o),
(590,447,o),
(545,562,o),
(455,670,o),
(386,730,q),
(382,730,l),
(314,670,o),
(223,562,o),
(178,447,o),
(178,355,o),
(223,240,o),
(314,133,o),
(382,73,q)
);
}
);
width = 769;
}
);
unicode = 68780;
},
{
glyphname = u10CAD;
layers = (
{
layerId = "97583185-4D09-4CC5-9049-5210241494EA";
shapes = (
{
closed = 1;
nodes = (
(567,1,l),
(567,498,l),
(220,242,l),
(130,242,l),
(130,802,l),
(220,802,l),
(220,346,l),
(567,607,l),
(657,607,l),
(657,1,l)
);
}
);
width = 788;
}
);
unicode = 68781;
},
{
glyphname = u10CAE;
layers = (
{
layerId = "97583185-4D09-4CC5-9049-5210241494EA";
shapes = (
{
closed = 1;
nodes = (
(124,0,l),
(124,802,l),
(212,802,l),
(437,628,l),
(662,802,l),
(750,802,l),
(750,0,l),
(660,0,l),
(660,695,l),
(437,527,l),
(214,695,l),
(214,0,l)
);
}
);
width = 888;
}
);
unicode = 68782;
},
{
glyphname = u10CAF;
layers = (
{
layerId = "97583185-4D09-4CC5-9049-5210241494EA";
shapes = (
{
closed = 1;
nodes = (
(121,1,l),
(121,802,l),
(211,802,l),
(211,554,l),
(618,802,l),
(705,802,l),
(705,1,l),
(615,1,l),
(615,260,l),
(208,1,l)
);
},
{
closed = 1;
nodes = (
(211,323,l),
(615,578,l),
(615,710,l),
(211,464,l)
);
},
{
closed = 1;
nodes = (
(211,95,l),
(615,349,l),
(615,489,l),
(211,244,l)
);
}
);
width = 820;
}
);
unicode = 68783;
},
{
glyphname = u10CB0;
layers = (
{
layerId = "97583185-4D09-4CC5-9049-5210241494EA";
shapes = (
{
closed = 1;
nodes = (
(350,1,l),
(350,356,l),
(10,779,l),
(84,830,l),
(350,498,l),
(350,802,l),
(440,802,l),
(440,498,l),
(706,830,l),
(780,779,l),
(440,356,l),
(440,1,l)
);
}
);
width = 796;
}
);
unicode = 68784;
},
{
glyphname = u10CB1;
layers = (
{
layerId = "97583185-4D09-4CC5-9049-5210241494EA";
shapes = (
{
closed = 1;
nodes = (
(387,0,l),
(185,212,l),
(76,98,l),
(20,158,l),
(188,326,l),
(387,112,l),
(387,266,l),
(185,459,l),
(76,345,l),
(20,404,l),
(188,573,l),
(387,379,l),
(387,493,l),
(185,705,l),
(76,592,l),
(20,651,l),
(188,820,l),
(387,606,l),
(387,801,l),
(477,801,l),
(477,606,l),
(677,820,l),
(845,651,l),
(788,592,l),
(679,715,l),
(477,493,l),
(477,379,l),
(677,573,l),
(845,404,l),
(788,345,l),
(679,459,l),
(477,266,l),
(477,112,l),
(677,326,l),
(845,158,l),
(788,98,l),
(679,212,l),
(477,0,l)
);
}
);
width = 866;
}
);
unicode = 68785;
},
{
glyphname = u10CB2;
layers = (
{
layerId = "97583185-4D09-4CC5-9049-5210241494EA";
shapes = (
{
closed = 1;
nodes = (
(335,2,l),
(258,64,o),
(142,192,o),
(78,338,o),
(78,467,o),
(142,613,o),
(258,742,o),
(335,803,q),
(434,803,l),
(512,742,o),
(627,613,o),
(691,467,o),
(691,338,o),
(627,192,o),
(512,64,o),
(434,2,q)
);
},
{
closed = 1;
nodes = (
(342,703,l),
(285,650,o),
(210,550,o),
(173,443,o),
(173,362,o),
(210,255,o),
(285,156,o),
(342,102,q)
);
},
{
closed = 1;
nodes = (
(427,102,l),
(484,156,o),
(559,255,o),
(595,362,o),
(595,443,o),
(559,550,o),
(484,650,o),
(427,703,q)
);
}
);
width = 769;
}
);
unicode = 68786;
},
{
glyphname = u10CC0;
layers = (
{
layerId = "97583185-4D09-4CC5-9049-5210241494EA";
shapes = (
{
closed = 1;
nodes = (
(262,0,l),
(262,289,l),
(32,300,l),
(32,409,l),
(230,600,l),
(349,600,l),
(349,0,l)
);
},
{
closed = 1;
nodes = (
(262,366,l),
(262,523,l),
(108,373,l)
);
}
);
width = 444;
}
);
unicode = 68800;
},
{
glyphname = u10CC1;
layers = (
{
layerId = "97583185-4D09-4CC5-9049-5210241494EA";
shapes = (
{
closed = 1;
nodes = (
(251,0,l),
(251,164,l),
(42,334,l),
(42,414,l),
(253,600,l),
(338,600,l),
(338,0,l)
);
},
{
closed = 1;
nodes = (
(251,268,l),
(251,495,l),
(118,375,l)
);
}
);
width = 433;
}
);
unicode = 68801;
},
{
glyphname = u10CC2;
layers = (
{
layerId = "97583185-4D09-4CC5-9049-5210241494EA";
shapes = (
{
closed = 1;
nodes = (
(10,0,l),
(217,311,l),
(22,600,l),
(121,600,l),
(270,371,l),
(419,600,l),
(513,600,l),
(321,313,l),
(528,0,l),
(427,0,l),
(267,253,l),
(104,0,l)
);
}
);
width = 538;
}
);
unicode = 68802;
},
{
glyphname = u10CC3;
layers = (
{
layerId = "97583185-4D09-4CC5-9049-5210241494EA";
shapes = (
{
closed = 1;
nodes = (
(193,-1,l),
(40,65,l),
(70,131,l),
(170,83,l),
(208,132,l),
(183,169,o),
(155,252,o),
(155,300,qs),
(155,347,o),
(183,430,o),
(208,467,q),
(170,515,l),
(70,467,l),
(40,535,l),
(193,600,l),
(256,525,l),
(276,545,o),
(319,581,o),
(343,600,q),
(412,600,l),
(435,582,o),
(478,546,o),
(497,527,q),
(559,600,l),
(711,535,l),
(683,467,l),
(581,515,l),
(545,470,l),
(572,433,o),
(601,349,o),
(601,300,qs),
(601,251,o),
(572,168,o),
(545,130,q),
(581,83,l),
(683,131,l),
(711,65,l),
(559,-1,l),
(497,73,l),
(478,54,o),
(435,18,o),
(412,0,q),
(343,0,l),
(295,36,o),
(257,74,q)
);
},
{
closed = 1;
nodes = (
(379,64,l),
(451,125,o),
(518,230,o),
(518,300,qs),
(518,370,o),
(450,475,o),
(379,536,q),
(377,536,l),
(329,495,o),
(267,423,o),
(238,347,o),
(238,300,qs),
(238,252,o),
(268,176,o),
(329,105,o),
(377,64,q)
);
}
);
width = 751;
}
);
unicode = 68803;
},
{
glyphname = u10CC4;
layers = (
{
layerId = "97583185-4D09-4CC5-9049-5210241494EA";
shapes = (
{
closed = 1;
nodes = (
(180,0,l),
(180,488,l),
(53,376,l),
(4,434,l),
(195,600,l),
(252,600,l),
(443,434,l),
(394,376,l),
(267,488,l),
(267,0,l)
);
}
);
width = 447;
}
);
unicode = 68804;
},
{
glyphname = u10CC5;
layers = (
{
layerId = "97583185-4D09-4CC5-9049-5210241494EA";
shapes = (
{
closed = 1;
nodes = (
(195,0,l),
(4,166,l),
(53,224,l),
(180,112,l),
(180,488,l),
(53,376,l),
(4,434,l),
(195,600,l),
(252,600,l),
(443,434,l),
(394,376,l),
(267,488,l),
(267,112,l),
(394,224,l),
(443,166,l),
(252,0,l)
);
}
);
width = 447;
}
);
unicode = 68805;
},
{
glyphname = u10CC6;
layers = (
{
layerId = "97583185-4D09-4CC5-9049-5210241494EA";
shapes = (
{
closed = 1;
nodes = (
(95,0,l),
(95,600,l),
(180,600,l),
(180,428,l),
(444,600,l),
(520,600,l),
(520,0,l),
(435,0,l),
(435,170,l),
(171,0,l)
);
},
{
closed = 1;
nodes = (
(180,91,l),
(435,255,l),
(435,510,l),
(180,343,l)
);
}
);
width = 615;
}
);
unicode = 68806;
},
{
glyphname = u10CC7;
layers = (
{
layerId = "97583185-4D09-4CC5-9049-5210241494EA";
shapes = (
{
closed = 1;
nodes = (
(175,0,l),
(175,245,l),
(60,186,l),
(26,251,l),
(175,328,l),
(175,600,l),
(262,600,l),
(262,374,l),
(378,434,l),
(411,366,l),
(262,290,l),
(262,0,l)
);
}
);
width = 437;
}
);
unicode = 68807;
},
{
glyphname = u10CC8;
layers = (
{
layerId = "97583185-4D09-4CC5-9049-5210241494EA";
shapes = (
{
closed = 1;
nodes = (
(10,0,l),
(178,252,l),
(56,217,l),
(33,278,l),
(206,328,l),
(22,600,l),
(121,600,l),
(270,371,l),
(419,600,l),
(513,600,l),
(361,372,l),
(481,407,l),
(496,343,l),
(332,296,l),
(528,0,l),
(427,0,l),
(267,253,l),
(104,0,l)
);
}
);
width = 538;
}
);
unicode = 68808;
},
{
glyphname = u10CC9;
layers = (
{
layerId = "97583185-4D09-4CC5-9049-5210241494EA";
shapes = (
{
closed = 1;
nodes = (
(311,-27,l),
(226,51,l),
(171,16,o),
(91,-20,q),
(54,47,l),
(120,76,o),
(166,104,q),
(90,174,l),
(138,229,l),
(227,148,l),
(265,181,o),
(294,254,o),
(294,300,qs),
(294,344,o),
(265,414,o),
(227,446,q),
(138,365,l),
(90,420,l),
(167,490,l),
(143,504,o),
(85,535,o),
(50,551,q),
(95,618,l),
(175,581,o),
(229,546,q),
(311,621,l),
(354,561,l),
(289,502,l),
(339,459,o),
(383,362,o),
(383,300,qs),
(383,237,o),
(337,139,o),
(286,95,q),
(354,33,l)
);
}
);
width = 411;
}
);
unicode = 68809;
},
{
glyphname = u10CCA;
layers = (
{
layerId = "97583185-4D09-4CC5-9049-5210241494EA";
shapes = (
{
closed = 1;
nodes = (
(54,47,l),
(84,61,o),
(135,86,o),
(157,99,q),
(108,142,o),
(65,239,o),
(65,300,qs),
(65,359,o),
(108,455,o),
(154,497,q),
(132,510,o),
(81,537,o),
(50,551,q),
(95,618,l),
(170,584,o),
(224,549,q),
(278,584,o),
(353,618,q),
(398,551,l),
(367,537,o),
(316,510,o),
(294,497,q),
(341,455,o),
(383,359,o),
(383,300,qs),
(383,239,o),
(340,142,o),
(291,99,q),
(313,86,o),
(364,61,o),
(394,47,q),
(357,-20,l),
(278,17,o),
(224,50,q),
(170,17,o),
(91,-20,q)
);
},
{
closed = 1;
nodes = (
(263,180,o),
(294,254,o),
(294,300,qs),
(294,345,o),
(263,416,o),
(224,449,q),
(185,416,o),
(154,345,o),
(154,300,qs),
(154,254,o),
(185,180,o),
(224,146,q)
);
}
);
width = 428;
}
);
unicode = 68810;
},
{
glyphname = u10CCB;
layers = (
{
layerId = "97583185-4D09-4CC5-9049-5210241494EA";
shapes = (
{
closed = 1;
nodes = (
(196,-41,l),
(34,97,l),
(104,137,l),
(168,178,o),
(223,256,o),
(223,300,qs),
(223,346,o),
(161,428,o),
(90,471,q),
(34,502,l),
(196,639,l),
(247,580,l),
(166,514,l),
(244,462,o),
(309,362,o),
(309,300,qs),
(309,238,o),
(244,137,o),
(167,86,q),
(247,20,l)
);
}
);
width = 354;
}
);
unicode = 68811;
},
{
glyphname = u10CCC;
layers = (
{
layerId = "97583185-4D09-4CC5-9049-5210241494EA";
shapes = (
{
closed = 1;
nodes = (
(243,0,l),
(158,64,o),
(55,206,o),
(55,300,qs),
(55,394,o),
(158,536,o),
(243,600,q),
(312,600,l),
(397,536,o),
(501,394,o),
(501,300,qs),
(501,206,o),
(397,64,o),
(312,0,q)
);
},
{
closed = 1;
nodes = (
(278,349,l),
(366,449,l),
(350,470,o),
(306,513,o),
(279,536,q),
(277,536,l),
(250,513,o),
(207,470,o),
(190,450,q)
);
},
{
closed = 1;
nodes = (
(234,298,l),
(154,392,l),
(136,350,o),
(136,300,qs),
(136,249,o),
(154,207,q)
);
},
{
closed = 1;
nodes = (
(402,208,l),
(420,250,o),
(420,300,qs),
(420,349,o),
(402,391,q),
(322,298,l)
);
},
{
closed = 1;
nodes = (
(279,64,l),
(332,108,o),
(364,147,q),
(278,247,l),
(192,147,l),
(224,108,o),
(277,64,q)
);
}
);
width = 556;
}
);
unicode = 68812;
},
{
glyphname = u10CCD;
layers = (
{
layerId = "97583185-4D09-4CC5-9049-5210241494EA";
shapes = (
{
closed = 1;
nodes = (
(5,0,l),
(247,600,l),
(318,600,l),
(561,0,l),
(472,0,l),
(383,225,l),
(300,0,l),
(213,0,l),
(341,330,l),
(325,371,ls),
(311,408,o),
(291,471,o),
(285,496,q),
(281,496,l),
(275,470,o),
(256,415,o),
(239,371,qs),
(92,0,l)
);
}
);
width = 565;
}
);
unicode = 68813;
},
{
glyphname = u10CCE;
layers = (
{
layerId = "97583185-4D09-4CC5-9049-5210241494EA";
shapes = (
{
closed = 1;
nodes = (
(183,0,l),
(183,141,l),
(67,76,l),
(32,138,l),
(183,223,l),
(183,328,l),
(67,262,l),
(32,324,l),
(183,409,l),
(183,600,l),
(270,600,l),
(270,454,l),
(392,522,l),
(421,459,l),
(270,372,l),
(270,269,l),
(392,336,l),
(421,273,l),
(270,185,l),
(270,0,l)
);
}
);
width = 450;
}
);
unicode = 68814;
},
{
glyphname = u10CCF;
layers = (
{
layerId = "97583185-4D09-4CC5-9049-5210241494EA";
shapes = (
{
closed = 1;
nodes = (
(44,0,l),
(213,154,l),
(40,311,l),
(213,455,l),
(42,600,l),
(151,600,l),
(268,501,l),
(386,600,l),
(494,600,l),
(324,455,l),
(496,311,l),
(323,154,l),
(492,0,l),
(385,0,l),
(268,105,l),
(152,0,l)
);
},
{
closed = 1;
nodes = (
(268,205,l),
(383,310,l),
(268,407,l),
(155,310,l)
);
}
);
width = 536;
}
);
unicode = 68815;
},
{
glyphname = u10CD0;
layers = (
{
layerId = "97583185-4D09-4CC5-9049-5210241494EA";
shapes = (
{
closed = 1;
nodes = (
(183,0,l),
(183,362,l),
(67,297,l),
(32,359,l),
(183,442,l),
(183,600,l),
(270,600,l),
(270,490,l),
(392,557,l),
(421,494,l),
(270,410,l),
(270,0,l)
);
}
);
width = 452;
}
);
unicode = 68816;
},
{
glyphname = u10CD1;
layers = (
{
layerId = "97583185-4D09-4CC5-9049-5210241494EA";
shapes = (
{
closed = 1;
nodes = (
(186,0,l),
(186,509,l),
(43,430,l),
(8,492,l),
(392,703,l),
(421,640,l),
(273,558,l),
(273,0,l)
);
}
);
width = 421;
}
);
unicode = 68817;
},
{
glyphname = u10CD2;
layers = (
{
layerId = "97583185-4D09-4CC5-9049-5210241494EA";
shapes = (
{
closed = 1;
nodes = (
(225,0,l),
(225,485,l),
(65,331,l),
(11,383,l),
(235,600,l),
(312,600,l),
(312,0,l)
);
}
);
width = 407;
}
);
unicode = 68818;
},
{
glyphname = u10CD3;
layers = (
{
layerId = "97583185-4D09-4CC5-9049-5210241494EA";
shapes = (
{
closed = 1;
nodes = (
(209,0,l),
(33,304,l),
(209,600,l),
(285,600,l),
(460,304,l),
(285,0,l)
);
},
{
closed = 1;
nodes = (
(247,83,l),
(370,303,l),
(247,517,l),
(123,303,l)
);
}
);
width = 493;
}
);
unicode = 68819;
},
{
glyphname = u10CD4;
layers = (
{
layerId = "97583185-4D09-4CC5-9049-5210241494EA";
shapes = (
{
closed = 1;
nodes = (
(191,0,l),
(191,488,l),
(64,376,l),
(15,434,l),
(206,600,l),
(278,600,l),
(278,112,l),
(405,224,l),
(454,166,l),
(263,0,l)
);
}
);
width = 469;
}
);
unicode = 68820;
},
{
glyphname = u10CD5;
layers = (
{
layerId = "97583185-4D09-4CC5-9049-5210241494EA";
shapes = (
{
closed = 1;
nodes = (
(194,-30,l),
(28,46,l),
(59,113,l),
(155,67,l),
(295,301,l),
(159,526,l),
(64,479,l),
(33,547,l),
(198,624,l),
(343,375,l),
(486,623,l),
(653,547,l),
(622,479,l),
(526,526,l),
(391,301,l),
(531,67,l),
(626,113,l),
(657,46,l),
(491,-30,l),
(343,227,l)
);
}
);
width = 685;
}
);
unicode = 68821;
},
{
glyphname = u10CD6;
layers = (
{
layerId = "97583185-4D09-4CC5-9049-5210241494EA";
shapes = (
{
closed = 1;
nodes = (
(5,0,l),
(270,600,l),
(341,600,l),
(607,0,l),
(519,0,l),
(468,117,l),
(423,0,l),
(339,0,l),
(426,212,l),
(385,305,l),
(257,0,l),
(173,0,l),
(344,399,l),
(333,428,o),
(314,479,o),
(308,498,q),
(304,498,l),
(297,474,o),
(274,414,o),
(255,371,qs),
(90,0,l)
);
}
);
width = 612;
}
);
unicode = 68822;
},
{
glyphname = u10CD7;
layers = (
{
layerId = "97583185-4D09-4CC5-9049-5210241494EA";
shapes = (
{
closed = 1;
nodes = (
(243,0,l),
(158,64,o),
(55,206,o),
(55,300,qs),
(55,394,o),
(158,536,o),
(243,600,q),
(312,600,l),
(397,536,o),
(501,394,o),
(501,300,qs),
(501,206,o),
(397,64,o),
(312,0,q)
);
},
{
closed = 1;
nodes = (
(366,448,l),
(334,488,o),
(279,536,q),
(277,536,l),
(229,495,o),
(167,423,o),
(138,347,o),
(138,300,qs),
(138,251,o),
(155,208,q)
);
},
{
closed = 1;
nodes = (
(279,64,l),
(351,125,o),
(418,230,o),
(418,300,qs),
(418,347,o),
(401,389,q),
(193,147,l),
(209,127,o),
(251,86,o),
(277,64,q)
);
}
);
width = 556;
}
);
unicode = 68823;
},
{
glyphname = u10CD8;
layers = (
{
layerId = "97583185-4D09-4CC5-9049-5210241494EA";
shapes = (
{
closed = 1;
nodes = (
(307,0,l),
(48,132,l),
(48,231,l),
(190,303,l),
(48,380,l),
(48,479,l),
(303,600,l),
(386,600,l),
(386,0,l)
);
},
{
closed = 1;
nodes = (
(306,320,l),
(306,514,l),
(121,426,l)
);
},
{
closed = 1;
nodes = (
(306,93,l),
(306,284,l),
(121,185,l)
);
}
);
width = 481;
}
);
unicode = 68824;
},
{
glyphname = u10CD9;
layers = (
{
layerId = "97583185-4D09-4CC5-9049-5210241494EA";
shapes = (
{
closed = 1;
nodes = (
(36,47,l),
(130,89,o),
(234,164,o),
(276,246,o),
(276,300,qs),
(276,352,o),
(234,431,o),
(128,506,o),
(32,551,q),
(77,618,l),
(181,570,o),
(307,477,o),
(365,369,o),
(365,300,qs),
(365,230,o),
(307,122,o),
(179,28,o),
(73,-20,q)
);
}
);
width = 420;
}
);
unicode = 68825;
},
{
glyphname = u10CDA;
layers = (
{
layerId = "97583185-4D09-4CC5-9049-5210241494EA";
shapes = (
{
closed = 1;
nodes = (
(95,0,l),
(95,600,l),
(180,600,l),
(271,552,o),
(383,459,o),
(435,359,o),
(435,300,qs),
(435,239,o),
(384,138,o),
(272,48,o),
(180,0,q)
);
},
{
closed = 1;
nodes = (
(180,87,l),
(272,137,o),
(348,235,o),
(348,300,qs),
(348,340,o),
(319,407,o),
(247,474,o),
(180,512,q)
);
}
);
width = 490;
}
);
unicode = 68826;
},
{
glyphname = u10CDB;
layers = (
{
layerId = "97583185-4D09-4CC5-9049-5210241494EA";
shapes = (
{
closed = 1;
nodes = (
(32,146,l),
(90,204,l),
(219,81,l),
(281,134,o),
(331,234,o),
(331,295,qs),
(331,336,o),
(309,406,o),
(257,475,o),
(212,514,q),
(90,397,l),
(32,455,l),
(211,624,l),
(287,564,o),
(378,459,o),
(418,355,o),
(418,295,qs),
(418,200,o),
(315,55,o),
(211,-22,q)
);
}
);
width = 473;
}
);
unicode = 68827;
},
{
glyphname = u10CDC;
layers = (
{
layerId = "97583185-4D09-4CC5-9049-5210241494EA";
shapes = (
{
closed = 1;
nodes = (
(28,182,l),
(182,348,l),
(239,290,l),
(141,187,l),
(250,80,l),
(315,133,o),
(366,232,o),
(366,293,qs),
(366,340,o),
(334,419,o),
(256,502,o),
(187,554,q),
(241,618,l),
(319,559,o),
(411,456,o),
(452,353,o),
(452,293,qs),
(452,199,o),
(348,55,o),
(241,-21,q)
);
}
);
width = 507;
}
);
unicode = 68828;
},
{
glyphname = u10CDD;
layers = (
{
layerId = "97583185-4D09-4CC5-9049-5210241494EA";
shapes = (
{
closed = 1;
nodes = (
(263,-18,l),
(33,207,l),
(231,390,l),
(47,559,l),
(104,618,l),
(337,394,l),
(140,211,l),
(320,41,l)
);
}
);
width = 370;
}
);
unicode = 68829;
},
{
glyphname = u10CDE;
layers = (
{
layerId = "97583185-4D09-4CC5-9049-5210241494EA";
shapes = (
{
closed = 1;
nodes = (
(95,0,l),
(95,600,l),
(182,600,l),
(182,308,l),
(370,600,l),
(467,600,l),
(269,307,l),
(474,0,l),
(372,0,l),
(182,300,l),
(182,0,l)
);
}
);
width = 492;
}
);
unicode = 68830;
},
{
glyphname = u10CDF;
layers = (
{
layerId = "97583185-4D09-4CC5-9049-5210241494EA";
shapes = (
{
closed = 1;
nodes = (
(28,182,l),
(182,348,l),
(239,290,l),
(141,187,l),
(250,80,l),
(292,114,o),
(317,147,q),
(269,187,l),
(315,236,l),
(351,206,l),
(366,247,o),
(366,293,qs),
(366,318,o),
(358,363,o),
(348,385,q),
(314,356,l),
(268,406,l),
(311,442,l),
(270,492,o),
(187,554,q),
(241,618,l),
(285,585,o),
(351,525,o),
(375,496,q),
(442,552,l),
(487,503,l),
(414,441,l),
(434,406,o),
(452,334,o),
(452,293,qs),
(452,216,o),
(416,151,q),
(490,88,l),
(445,38,l),
(376,96,l),
(351,67,o),
(284,9,o),
(241,-21,q)
);
}
);
width = 541;
}
);
unicode = 68831;
},
{
glyphname = u10CE0;
layers = (
{
layerId = "97583185-4D09-4CC5-9049-5210241494EA";
shapes = (
{
closed = 1;
nodes = (
(92,-9,l),
(42,45,l),
(273,232,l),
(273,322,l),
(92,170,l),
(42,223,l),
(273,411,l),
(273,501,l),
(92,348,l),
(42,401,l),
(283,600,l),
(358,600,l),
(358,0,l),
(273,0,l),
(273,144,l)
);
}
);
width = 453;
}
);
unicode = 68832;
},
{
glyphname = u10CE1;
layers = (
{
layerId = "97583185-4D09-4CC5-9049-5210241494EA";
shapes = (
{
closed = 1;
nodes = (
(170,-17,l),
(111,36,l),
(207,127,l),
(171,177,o),
(158,231,q),
(52,174,l),
(14,241,l),
(150,311,l),
(152,356,o),
(180,432,o),
(205,465,q),
(82,406,l),
(47,475,l),
(337,600,l),
(409,600,l),
(699,475,l),
(664,406,l),
(540,466,l),
(566,432,o),
(595,356,o),
(596,311,q),
(732,241,l),
(694,174,l),
(588,231,l),
(581,203,o),
(556,152,o),
(539,127,q),
(635,36,l),
(576,-17,l),
(491,71,l),
(472,53,o),
(430,17,o),
(407,0,q),
(338,0,l),
(315,17,o),
(273,52,o),
(255,71,q)
);
},
{
closed = 1;
nodes = (
(374,64,l),
(446,125,o),
(513,230,o),
(513,300,qs),
(513,372,o),
(445,481,o),
(374,536,q),
(372,536,l),
(299,481,o),
(233,372,o),
(233,300,qs),
(233,252,o),
(263,176,o),
(324,105,o),
(372,64,q)
);
}
);
width = 746;
}
);
unicode = 68833;
},
{
glyphname = u10CE2;
layers = (
{
layerId = "97583185-4D09-4CC5-9049-5210241494EA";
shapes = (
{
closed = 1;
nodes = (
(95,0,l),
(95,600,l),
(182,600,l),
(182,264,l),
(445,434,l),
(445,600,l),
(532,600,l),
(532,0,l),
(445,0,l),
(445,345,l),
(182,175,l),
(182,0,l)
);
}
);
width = 627;
}
);
unicode = 68834;
},
{
glyphname = u10CE3;
layers = (
{
layerId = "97583185-4D09-4CC5-9049-5210241494EA";
shapes = (
{
closed = 1;
nodes = (
(66,177,l),
(27,245,l),
(369,440,l),
(409,372,l)
);
}
);
width = 441;
}
);
unicode = 68835;
},
{
glyphname = u10CE4;
layers = (
{
layerId = "97583185-4D09-4CC5-9049-5210241494EA";
shapes = (
{
closed = 1;
nodes = (
(5,0,l),
(247,600,l),
(318,600,l),
(561,0,l),
(472,0,l),
(325,371,ls),
(311,408,o),
(291,471,o),
(285,496,q),
(281,496,l),
(275,470,o),
(256,415,o),
(239,371,qs),
(92,0,l)
);
}
);
width = 566;
}
);
unicode = 68836;
},
{
glyphname = u10CE5;
layers = (
{
layerId = "97583185-4D09-4CC5-9049-5210241494EA";
shapes = (
{
closed = 1;
nodes = (
(95,0,l),
(95,600,l),
(182,600,l),
(182,0,l)
);
}
);
width = 277;
}
);
unicode = 68837;
},
{
glyphname = u10CE6;
layers = (
{
layerId = "97583185-4D09-4CC5-9049-5210241494EA";
shapes = (
{
closed = 1;
nodes = (
(285,0,l),
(285,241,l),
(18,567,l),
(83,624,l),
(285,371,l),
(285,600,l),
(372,600,l),
(372,0,l)
);
}
);
width = 467;
}
);
unicode = 68838;
},
{
glyphname = u10CE7;
layers = (
{
layerId = "97583185-4D09-4CC5-9049-5210241494EA";
shapes = (
{
closed = 1;
nodes = (
(288,0,l),
(288,350,l),
(143,508,l),
(67,430,l),
(14,482,l),
(147,611,l),
(288,455,l),
(288,600,l),
(373,600,l),
(373,456,l),
(515,611,l),
(647,482,l),
(595,430,l),
(518,508,l),
(373,351,l),
(373,0,l)
);
}
);
width = 661;
}
);
unicode = 68839;
},
{
glyphname = u10CE8;
layers = (
{
layerId = "97583185-4D09-4CC5-9049-5210241494EA";
shapes = (
{
closed = 1;
nodes = (
(10,0,l),
(217,311,l),
(22,600,l),
(121,600,l),
(182,507,l),
(239,600,l),
(327,600,l),
(225,440,l),
(270,371,l),
(419,600,l),
(513,600,l),
(321,313,l),
(528,0,l),
(427,0,l),
(358,109,l),
(290,0,l),
(203,0,l),
(315,177,l),
(267,253,l),
(104,0,l)
);
}
);
width = 538;
}
);
unicode = 68840;
},
{
glyphname = u10CE9;
layers = (
{
layerId = "97583185-4D09-4CC5-9049-5210241494EA";
shapes = (
{
closed = 1;
nodes = (
(444,-24,l),
(241,34,l),
(263,102,l),
(388,63,l),
(267,253,l),
(104,0,l),
(10,0,l),
(217,311,l),
(22,600,l),
(121,600,l),
(270,371,l),
(380,535,l),
(263,499,l),
(243,567,l),
(441,625,l),
(502,584,l),
(321,313,l),
(513,22,l)
);
}
);
width = 517;
}
);
unicode = 68841;
},
{
glyphname = u10CEA;
layers = (
{
layerId = "97583185-4D09-4CC5-9049-5210241494EA";
shapes = (
{
closed = 1;
nodes = (
(95,0,l),
(95,600,l),
(172,600,l),
(331,486,l),
(488,600,l),
(567,600,l),
(567,0,l),
(488,0,l),
(331,114,l),
(172,0,l)
);
},
{
closed = 1;
nodes = (
(180,100,l),
(331,206,l),
(482,100,l),
(482,499,l),
(331,394,l),
(180,499,l)
);
}
);
width = 662;
}
);
unicode = 68842;
},
{
glyphname = u10CEB;
layers = (
{
layerId = "97583185-4D09-4CC5-9049-5210241494EA";
shapes = (
{
closed = 1;
nodes = (
(95,0,l),
(95,600,l),
(173,600,l),
(356,355,l),
(542,600,l),
(615,600,l),
(615,0,l),
(542,0,l),
(356,243,l),
(173,0,l)
);
},
{
closed = 1;
nodes = (
(537,126,l),
(540,126,l),
(540,472,l),
(537,472,l),
(403,300,l)
);
},
{
closed = 1;
nodes = (
(175,131,l),
(178,131,l),
(309,300,l),
(178,467,l),
(175,467,l)
);
}
);
width = 710;
}
);
unicode = 68843;
},
{
glyphname = u10CEC;
layers = (
{
layerId = "97583185-4D09-4CC5-9049-5210241494EA";
shapes = (
{
closed = 1;
nodes = (
(97,-15,l),
(38,38,l),
(127,129,l),
(100,167,o),
(71,251,o),
(71,300,qs),
(71,349,o),
(100,434,o),
(127,471,q),
(38,560,l),
(97,613,l),
(176,528,l),
(211,564,o),
(259,600,q),
(328,600,l),
(375,564,o),
(412,528,q),
(492,613,l),
(551,560,l),
(461,471,l),
(487,433,o),
(517,349,o),
(517,300,qs),
(517,251,o),
(487,167,o),
(461,129,q),
(551,38,l),
(492,-15,l),
(412,71,l),
(393,53,o),
(351,17,o),
(328,0,q),
(259,0,l),
(213,35,o),
(176,71,q)
);
},
{
closed = 1;
nodes = (
(295,64,l),
(367,125,o),
(434,230,o),
(434,300,qs),
(434,370,o),
(366,475,o),
(295,536,q),
(293,536,l),
(245,495,o),
(183,423,o),
(154,347,o),
(154,300,qs),
(154,252,o),
(184,176,o),
(245,105,o),
(293,64,q)
);
}
);
width = 589;
}
);
unicode = 68844;
},
{
glyphname = u10CED;
layers = (
{
layerId = "97583185-4D09-4CC5-9049-5210241494EA";
shapes = (
{
closed = 1;
nodes = (
(404,0,l),
(404,354,l),
(170,169,l),
(86,169,l),
(86,600,l),
(173,600,l),
(173,272,l),
(406,457,l),
(491,457,l),
(491,0,l)
);
}
);
width = 577;
}
);
unicode = 68845;
},
{
glyphname = u10CEE;
layers = (
{
layerId = "97583185-4D09-4CC5-9049-5210241494EA";
shapes = (
{
closed = 1;
nodes = (
(95,0,l),
(95,600,l),
(172,600,l),
(331,486,l),
(488,600,l),
(567,600,l),
(567,0,l),
(482,0,l),
(482,499,l),
(331,394,l),
(180,499,l),
(180,0,l)
);
}
);
width = 662;
}
);
unicode = 68846;
},
{
glyphname = u10CEF;
layers = (
{
layerId = "97583185-4D09-4CC5-9049-5210241494EA";
shapes = (
{
closed = 1;
nodes = (
(95,0,l),
(95,600,l),
(180,600,l),
(180,427,l),
(435,600,l),
(520,600,l),
(520,0,l),
(435,0,l),
(435,173,l),
(180,0,l)
);
},
{
closed = 1;
nodes = (
(180,254,l),
(435,427,l),
(435,519,l),
(180,346,l)
);
},
{
closed = 1;
nodes = (
(180,81,l),
(435,254,l),
(435,346,l),
(180,173,l)
);
}
);
width = 615;
}
);
unicode = 68847;
},
{
glyphname = u10CF0;
layers = (
{
layerId = "97583185-4D09-4CC5-9049-5210241494EA";
shapes = (
{
closed = 1;
nodes = (
(267,0,l),
(267,261,l),
(12,570,l),
(81,617,l),
(267,386,l),
(267,600,l),
(354,600,l),
(354,386,l),
(542,617,l),
(610,570,l),
(354,261,l),
(354,0,l)
);
}
);
width = 622;
}
);
unicode = 68848;
},
{
glyphname = u10CF1;
layers = (
{
layerId = "97583185-4D09-4CC5-9049-5210241494EA";
shapes = (
{
closed = 1;
nodes = (
(310,0,l),
(166,152,l),
(77,85,l),
(30,140,l),
(169,246,l),
(310,98,l),
(310,192,l),
(166,336,l),
(77,268,l),
(30,324,l),
(169,429,l),
(310,285,l),
(310,375,l),
(166,519,l),
(77,452,l),
(30,507,l),
(169,613,l),
(310,469,l),
(310,600,l),
(395,600,l),
(395,469,l),
(537,613,l),
(676,507,l),
(629,452,l),
(540,519,l),
(395,375,l),
(395,285,l),
(537,429,l),
(676,324,l),
(629,268,l),
(540,336,l),
(395,192,l),
(395,98,l),
(537,246,l),
(676,140,l),
(629,85,l),
(540,152,l),
(395,0,l)
);
}
);
width = 706;
}
);
unicode = 68849;
},
{
glyphname = u10CF2;
layers = (
{
layerId = "97583185-4D09-4CC5-9049-5210241494EA";
shapes = (
{
closed = 1;
nodes = (
(243,0,l),
(158,64,o),
(55,206,o),
(55,300,qs),
(55,394,o),
(158,536,o),
(243,600,q),
(312,600,l),
(397,536,o),
(501,394,o),
(501,300,qs),
(501,206,o),
(397,64,o),
(312,0,q)
);
},
{
closed = 1;
nodes = (
(240,503,l),
(187,454,o),
(138,360,o),
(138,300,qs),
(138,239,o),
(188,146,o),
(240,97,q)
);
},
{
closed = 1;
nodes = (
(317,98,l),
(369,147,o),
(418,239,o),
(418,300,qs),
(418,360,o),
(369,453,o),
(317,502,q)
);
}
);
width = 556;
}
);
unicode = 68850;
},
{
glyphname = u10CFA;
layers = (
{
layerId = "97583185-4D09-4CC5-9049-5210241494EA";
shapes = (
{
closed = 1;
nodes = (
(124,0,l),
(124,801,l),
(214,801,l),
(214,0,l)
);
}
);
width = 341;
}
);
unicode = 68858;
},
{
glyphname = u10CFB;
layers = (
{
layerId = "97583185-4D09-4CC5-9049-5210241494EA";
shapes = (
{
closed = 1;
nodes = (
(13,802,l),
(108,802,l),
(299,303,ls),
(300,300,o),
(308,276,o),
(325,227,o),
(334,202,qs),
(346,167,o),
(360,113,q),
(364,113,l),
(378,167,o),
(390,202,qs),
(398,228,o),
(414,272,o),
(423,299,o),
(424,301,qs),
(617,802,l),
(712,802,l),
(411,1,l),
(320,1,l)
);
}
);
width = 724;
}
);
unicode = 68859;
},
{
glyphname = u10CFC;
layers = (
{
layerId = "97583185-4D09-4CC5-9049-5210241494EA";
shapes = (
{
closed = 1;
nodes = (
(4,1,l),
(286,444,l),
(22,802,l),
(132,802,l),
(346,485,l),
(563,802,l),
(667,802,l),
(404,446,l),
(687,1,l),
(575,1,l),
(343,376,l),
(108,1,l)
);
}
);
width = 691;
}
);
unicode = 68860;
},
{
glyphname = u10CFD;
layers = (
{
layerId = "97583185-4D09-4CC5-9049-5210241494EA";
shapes = (
{
closed = 1;
nodes = (
(313,801,l),
(403,801,l),
(406,220,l),
(423,297,o),
(424,301,qs),
(617,802,l),
(712,802,l),
(411,1,l),
(320,1,l),
(13,802,l),
(108,802,l),
(299,303,l),
(323,220,o),
(323,220,q)
);
}
);
width = 724;
}
);
unicode = 68861;
},
{
glyphname = u10CFE;
layers = (
{
layerId = "97583185-4D09-4CC5-9049-5210241494EA";
shapes = (
{
closed = 1;
nodes = (
(403,307,l),
(401,0,l),
(311,0,l),
(309,306,l),
(108,1,l),
(4,1,l),
(286,444,l),
(22,802,l),
(132,802,l),
(307,555,l),
(301,799,l),
(391,799,l),
(393,556,l),
(563,802,l),
(667,802,l),
(404,446,l),
(687,1,l),
(575,1,l)
);
}
);
width = 691;
}
);
unicode = 68862;
},
{
glyphname = u10CFF;
layers = (
{
layerId = "97583185-4D09-4CC5-9049-5210241494EA";
shapes = (
{
closed = 1;
nodes = (
(400,314,l),
(400,314,o),
(405,0,q),
(325,1,l),
(309,308,o),
(310,310,q),
(310,310,o),
(108,1,q),
(108,1,o),
(8,1,q),
(261,391,l),
(26,390,l),
(27,480,l),
(259,481,o),
(262,482,q),
(262,482,o),
(22,802,q),
(132,802,l),
(307,556,l),
(301,800,l),
(391,800,l),
(393,557,l),
(563,802,l),
(667,802,l),
(438,482,o),
(438,482,q),
(438,482,o),
(661,490,q),
(661,490,o),
(661,394,q),
(439,392,l),
(687,1,l),
(575,1,l)
);
}
);
width = 691;
}
);
unicode = 68863;
},
{
glyphname = uni10CC2_10CC0_ba;
layers = (
{
layerId = "97583185-4D09-4CC5-9049-5210241494EA";
shapes = (
{
closed = 1;
nodes = (
(118,0,l),
(325,311,l),
(288,368,l),
(98,246,l),
(30,302,l),
(109,600,l),
(229,600,l),
(378,371,l),
(527,600,l),
(621,600,l),
(429,313,l),
(636,0,l),
(535,0,l),
(375,253,l),
(212,0,l)
);
},
{
closed = 1;
nodes = (
(121,342,l),
(247,428,l),
(173,536,l)
);
}
);
width = 646;
}
);
},
{
glyphname = uni10CC6_10CC0_csa;
layers = (
{
layerId = "97583185-4D09-4CC5-9049-5210241494EA";
shapes = (
{
closed = 1;
nodes = (
(262,0,l),
(262,289,l),
(32,300,l),
(32,403,l),
(236,600,l),
(347,600,l),
(347,428,l),
(611,600,l),
(687,600,l),
(687,0,l),
(602,0,l),
(602,170,l),
(338,0,l)
);
},
{
closed = 1;
nodes = (
(262,366,l),
(262,521,l),
(108,373,l)
);
},
{
closed = 1;
nodes = (
(347,91,l),
(602,255,l),
(602,510,l),
(347,343,l)
);
}
);
width = 782;
}
);
},
{
glyphname = uni10CCD_10CC0_ga;
layers = (
{
layerId = "97583185-4D09-4CC5-9049-5210241494EA";
shapes = (
{
closed = 1;
nodes = (
(95,0,l),
(218,304,l),
(22,388,l),
(35,483,l),
(304,600,l),
(408,600,l),
(651,0,l),
(562,0,l),
(473,225,l),
(390,0,l),
(303,0,l),
(431,330,l),
(415,371,ls),
(401,408,o),
(381,471,o),
(375,496,q),
(371,496,l),
(365,470,o),
(346,415,o),
(329,371,qs),
(182,0,l)
);
},
{
closed = 1;
nodes = (
(245,372,l),
(302,513,l),
(103,434,l)
);
}
);
width = 655;
}
);
},
{
glyphname = uni10CCF_10CC0_ha;
layers = (
{
layerId = "97583185-4D09-4CC5-9049-5210241494EA";
shapes = (
{
closed = 1;
nodes = (
(134,0,l),
(313,154,l),
(168,274,l),
(325,418,l),
(275,463,l),
(85,363,l),
(20,414,l),
(87,600,l),
(231,600,l),
(379,470,l),
(497,600,l),
(605,600,l),
(431,422,l),
(589,292,l),
(424,152,l),
(592,0,l),
(485,0,l),
(367,108,l),
(242,0,l)
);
},
{
closed = 1;
nodes = (
(371,203,l),
(476,291,l),
(380,370,l),
(282,277,l)
);
},
{
closed = 1;
nodes = (
(96,437,l),
(230,503,l),
(148,577,l)
);
}
);
width = 645;
}
);
},
{
glyphname = uni10CD6_10CC0_la;
layers = (
{
layerId = "97583185-4D09-4CC5-9049-5210241494EA";
shapes = (
{
closed = 1;
nodes = (
(93,0,l),
(219,285,l),
(24,417,l),
(65,505,l),
(323,600,l),
(429,600,l),
(695,0,l),
(607,0,l),
(556,117,l),
(511,0,l),
(427,0,l),
(514,212,l),
(473,305,l),
(345,0,l),
(261,0,l),
(432,399,l),
(421,428,o),
(402,478,o),
(396,498,q),
(392,498,l),
(384,474,o),
(362,414,o),
(343,371,qs),
(178,0,l)
);
},
{
closed = 1;
nodes = (
(250,354,l),
(321,516,l),
(120,441,l)
);
}
);
width = 700;
}
);
},
{
glyphname = uni10CD9_10CC0_na;
layers = (
{
layerId = "97583185-4D09-4CC5-9049-5210241494EA";
shapes = (
{
closed = 1;
nodes = (
(119,47,l),
(189,79,o),
(282,135,o),
(337,194,o),
(359,260,o),
(359,300,qs),
(359,325,o),
(351,368,o),
(340,388,q),
(117,254,l),
(43,301,l),
(102,600,l),
(160,618,l),
(238,582,o),
(347,512,o),
(416,437,o),
(448,352,o),
(448,300,qs),
(448,248,o),
(416,161,o),
(346,86,o),
(235,16,o),
(156,-20,q)
);
},
{
closed = 1;
nodes = (
(134,350,l),
(289,449,l),
(267,467,o),
(208,504,o),
(169,524,q)
);
}
);
width = 503;
}
);
},
{
glyphname = uni10CE2_10CC0_ra;
layers = (
{
layerId = "97583185-4D09-4CC5-9049-5210241494EA";
shapes = (
{
closed = 1;
nodes = (
(262,0,l),
(262,232,l),
(32,320,l),
(32,409,l),
(230,600,l),
(349,600,l),
(349,264,l),
(612,434,l),
(612,600,l),
(699,600,l),
(699,0,l),
(612,0,l),
(612,345,l),
(349,175,l),
(349,0,l)
);
},
{
closed = 1;
nodes = (
(262,316,l),
(262,523,l),
(108,373,l)
);
}
);
width = 794;
}
);
},
{
glyphname = uni10CE4_10CC0_sa;
layers = (
{
layerId = "97583185-4D09-4CC5-9049-5210241494EA";
shapes = (
{
closed = 1;
nodes = (
(106,0,l),
(227,300,l),
(22,388,l),
(35,483,l),
(304,600,l),
(419,600,l),
(662,0,l),
(573,0,l),
(426,371,ls),
(412,408,o),
(392,471,o),
(386,496,q),
(382,496,l),
(376,470,o),
(357,415,o),
(340,371,qs),
(193,0,l)
);
},
{
closed = 1;
nodes = (
(254,368,l),
(315,518,l),
(103,434,l)
);
}
);
width = 666;
}
);
},
{
glyphname = uni10CE8_10CC0_tya;
layers = (
{
layerId = "97583185-4D09-4CC5-9049-5210241494EA";
shapes = (
{
closed = 1;
nodes = (
(120,0,l),
(327,311,l),
(296,359,l),
(98,246,l),
(30,302,l),
(109,600,l),
(231,600,l),
(292,507,l),
(349,600,l),
(437,600,l),
(335,440,l),
(380,371,l),
(529,600,l),
(623,600,l),
(431,313,l),
(638,0,l),
(537,0,l),
(468,109,l),
(400,0,l),
(313,0,l),
(425,177,l),
(377,253,l),
(214,0,l)
);
},
{
closed = 1;
nodes = (
(121,342,l),
(256,419,l),
(174,538,l)
);
}
);
width = 648;
}
);
},
{
glyphname = uni10CEE_10CC0_va;
layers = (
{
layerId = "97583185-4D09-4CC5-9049-5210241494EA";
shapes = (
{
closed = 1;
nodes = (
(262,0,l),
(262,289,l),
(32,300,l),
(32,409,l),
(230,600,l),
(339,600,l),
(498,486,l),
(655,600,l),
(734,600,l),
(734,0,l),
(649,0,l),
(649,499,l),
(498,394,l),
(347,499,l),
(347,0,l)
);
},
{
closed = 1;
nodes = (
(262,366,l),
(262,523,l),
(108,373,l)
);
}
);
width = 829;
}
);
},
{
glyphname = uni10CEF_10CC0_za;
layers = (
{
layerId = "97583185-4D09-4CC5-9049-5210241494EA";
shapes = (
{
closed = 1;
nodes = (
(262,0,l),
(262,302,l),
(32,300,l),
(32,409,l),
(230,600,l),
(347,600,l),
(347,427,l),
(602,600,l),
(687,600,l),
(687,0,l),
(602,0,l),
(602,173,l),
(347,0,l)
);
},
{
closed = 1;
nodes = (
(262,376,l),
(262,523,l),
(108,373,l)
);
},
{
closed = 1;
nodes = (
(347,81,l),
(602,254,l),
(602,346,l),
(347,173,l)
);
},
{
closed = 1;
nodes = (
(347,254,l),
(602,427,l),
(602,519,l),
(347,346,l)
);
}
);
width = 782;
}
);
},
{
glyphname = uni10CC2_10CC0_ba.ltr;
layers = (
{
layerId = "97583185-4D09-4CC5-9049-5210241494EA";
shapes = (
{
closed = 1;
nodes = (
(548,0,l),
(454,0,l),
(291,253,l),
(131,0,l),
(30,0,l),
(237,313,l),
(45,600,l),
(139,600,l),
(288,371,l),
(437,600,l),
(557,600,l),
(636,302,l),
(568,246,l),
(378,368,l),
(341,311,l)
);
},
{
closed = 1;
nodes = (
(545,342,l),
(493,536,l),
(419,428,l)
);
}
);
width = 646;
}
);
},
{
glyphname = uni10CC6_10CC0_csa.ltr;
layers = (
{
layerId = "97583185-4D09-4CC5-9049-5210241494EA";
shapes = (
{
closed = 1;
nodes = (
(457,0,l),
(381,0,l),
(117,170,l),
(117,0,l),
(32,0,l),
(32,600,l),
(108,600,l),
(372,428,l),
(372,600,l),
(483,600,l),
(687,403,l),
(687,300,l),
(457,289,l)
);
},
{
closed = 1;
nodes = (
(457,366,l),
(611,373,l),
(457,521,l)
);
},
{
closed = 1;
nodes = (
(372,91,l),
(372,343,l),
(117,510,l),
(117,255,l)
);
}
);
width = 782;
}
);
},
{
glyphname = uni10CCD_10CC0_ga.ltr;
layers = (
{
layerId = "97583185-4D09-4CC5-9049-5210241494EA";
shapes = (
{
closed = 1;
nodes = (
(4,0,l),
(247,600,l),
(351,600,l),
(620,483,l),
(633,388,l),
(437,304,l),
(560,0,l),
(473,0,l),
(326,371,ls),
(309,415,o),
(290,470,o),
(284,496,q),
(280,496,l),
(274,471,o),
(254,408,o),
(240,371,qs),
(224,330,l),
(352,0,l),
(265,0,l),
(182,225,l),
(93,0,l)
);
},
{
closed = 1;
nodes = (
(410,372,l),
(552,434,l),
(353,513,l)
);
}
);
width = 655;
}
);
},
{
glyphname = uni10CCF_10CC0_ha.ltr;
layers = (
{
layerId = "97583185-4D09-4CC5-9049-5210241494EA";
shapes = (
{
closed = 1;
nodes = (
(53,0,l),
(221,152,l),
(56,292,l),
(214,422,l),
(40,600,l),
(148,600,l),
(266,470,l),
(414,600,l),
(558,600,l),
(625,414,l),
(560,363,l),
(370,463,l),
(320,418,l),
(477,274,l),
(332,154,l),
(511,0,l),
(403,0,l),
(278,108,l),
(160,0,l)
);
},
{
closed = 1;
nodes = (
(274,203,l),
(363,277,l),
(265,370,l),
(169,291,l)
);
},
{
closed = 1;
nodes = (
(549,437,l),
(497,577,l),
(415,503,l)
);
}
);
width = 645;
}
);
},
{
glyphname = uni10CD6_10CC0_la.ltr;
layers = (
{
layerId = "97583185-4D09-4CC5-9049-5210241494EA";
shapes = (
{
closed = 1;
nodes = (
(5,0,l),
(271,600,l),
(377,600,l),
(635,505,l),
(676,417,l),
(481,285,l),
(607,0,l),
(522,0,l),
(357,371,ls),
(338,414,o),
(316,474,o),
(308,498,q),
(304,498,l),
(298,478,o),
(279,428,o),
(268,399,q),
(439,0,l),
(355,0,l),
(227,305,l),
(186,212,l),
(273,0,l),
(189,0,l),
(144,117,l),
(93,0,l)
);
},
{
closed = 1;
nodes = (
(450,354,l),
(580,441,l),
(379,516,l)
);
}
);
width = 700;
}
);
},
{
glyphname = uni10CD9_10CC0_na.ltr;
layers = (
{
layerId = "97583185-4D09-4CC5-9049-5210241494EA";
shapes = (
{
closed = 1;
nodes = (
(347,-20,l),
(268,16,o),
(157,86,o),
(87,161,o),
(55,248,o),
(55,300,qs),
(55,352,o),
(87,437,o),
(156,512,o),
(265,582,o),
(343,618,q),
(401,600,l),
(460,301,l),
(386,254,l),
(163,388,l),
(152,368,o),
(144,325,o),
(144,300,qs),
(144,260,o),
(166,194,o),
(221,135,o),
(314,79,o),
(384,47,q)
);
},
{
closed = 1;
nodes = (
(369,350,l),
(334,524,l),
(295,504,o),
(236,467,o),
(214,449,q)
);
}
);
width = 503;
}
);
},
{
glyphname = uni10CE2_10CC0_ra.ltr;
layers = (
{
layerId = "97583185-4D09-4CC5-9049-5210241494EA";
shapes = (
{
closed = 1;
nodes = (
(95,0,l),
(95,600,l),
(182,600,l),
(182,434,l),
(445,264,l),
(445,600,l),
(564,600,l),
(762,409,l),
(762,320,l),
(532,232,l),
(532,0,l),
(445,0,l),
(445,175,l),
(182,345,l),
(182,0,l)
);
},
{
closed = 1;
nodes = (
(532,316,l),
(686,373,l),
(532,523,l)
);
}
);
width = 794;
}
);
},
{
glyphname = uni10CE4_10CC0_sa.ltr;
layers = (
{
layerId = "97583185-4D09-4CC5-9049-5210241494EA";
shapes = (
{
closed = 1;
nodes = (
(4,0,l),
(247,600,l),
(362,600,l),
(631,483,l),
(644,388,l),
(439,300,l),
(560,0,l),
(473,0,l),
(326,371,ls),
(309,415,o),
(290,470,o),
(284,496,q),
(280,496,l),
(274,471,o),
(254,408,o),
(240,371,qs),
(93,0,l)
);
},
{
closed = 1;
nodes = (
(412,368,l),
(563,434,l),
(351,518,l)
);
}
);
width = 666;
}
);
},
{
glyphname = uni10CE8_10CC0_tya.ltr;
layers = (
{
layerId = "97583185-4D09-4CC5-9049-5210241494EA";
shapes = (
{
closed = 1;
nodes = (
(10,0,l),
(217,313,l),
(25,600,l),
(119,600,l),
(268,371,l),
(313,440,l),
(211,600,l),
(299,600,l),
(356,507,l),
(417,600,l),
(539,600,l),
(618,302,l),
(550,246,l),
(347,349,l),
(321,311,l),
(528,0,l),
(434,0,l),
(271,253,l),
(223,177,l),
(335,0,l),
(248,0,l),
(180,109,l),
(111,0,l)
);
},
{
closed = 1;
nodes = (
(527,342,l),
(474,538,l),
(387,409,l)
);
}
);
width = 648;
}
);
},
{
glyphname = uni10CEE_10CC0_va.ltr;
layers = (
{
layerId = "97583185-4D09-4CC5-9049-5210241494EA";
shapes = (
{
closed = 1;
nodes = (
(95,0,l),
(95,600,l),
(174,600,l),
(331,486,l),
(490,600,l),
(599,600,l),
(797,409,l),
(797,300,l),
(567,289,l),
(567,0,l),
(482,0,l),
(482,499,l),
(331,394,l),
(180,499,l),
(180,0,l)
);
},
{
closed = 1;
nodes = (
(567,366,l),
(721,373,l),
(567,523,l)
);
}
);
width = 829;
}
);
},
{
glyphname = uni10CEF_10CC0_za.ltr;
layers = (
{
layerId = "97583185-4D09-4CC5-9049-5210241494EA";
shapes = (
{
closed = 1;
nodes = (
(95,0,l),
(95,600,l),
(180,600,l),
(435,427,l),
(435,600,l),
(552,600,l),
(750,409,l),
(750,320,l),
(520,232,l),
(520,0,l),
(435,0,l),
(180,173,l),
(180,0,l)
);
},
{
closed = 1;
nodes = (
(435,81,l),
(435,173,l),
(180,346,l),
(180,254,l)
);
},
{
closed = 1;
nodes = (
(435,254,l),
(435,346,l),
(180,519,l),
(180,427,l)
);
},
{
closed = 1;
nodes = (
(520,316,l),
(674,373,l),
(520,523,l)
);
}
);
width = 782;
}
);
},
{
glyphname = uni10CEE_10CC0_10CE2_var;
layers = (
{
layerId = "97583185-4D09-4CC5-9049-5210241494EA";
shapes = (
{
closed = 1;
nodes = (
(95,0,l),
(95,600,l),
(182,600,l),
(182,154,l),
(479,263,l),
(479,263,o),
(479,340,q),
(232,341,l),
(232,449,l),
(450,600,l),
(559,600,l),
(718,486,l),
(875,600,l),
(954,600,l),
(954,0,l),
(869,0,l),
(869,499,l),
(718,394,l),
(567,499,l),
(567,0,l),
(482,0,l),
(482,192,l),
(182,71,l),
(182,0,l)
);
},
{
closed = 1;
nodes = (
(482,416,l),
(482,523,l),
(308,413,l)
);
}
);
width = 1049;
}
);
},
{
glyphname = uni10CEE_10CC0_10CE2_var.ltr;
layers = (
{
layerId = "97583185-4D09-4CC5-9049-5210241494EA";
shapes = (
{
closed = 1;
nodes = (
(954,0,l),
(867,0,l),
(867,71,l),
(567,192,l),
(567,0,l),
(482,0,l),
(482,499,l),
(331,394,l),
(180,499,l),
(180,0,l),
(95,0,l),
(95,600,l),
(174,600,l),
(331,486,l),
(490,600,l),
(599,600,l),
(817,449,l),
(817,341,l),
(570,340,l),
(570,263,l),
(570,263,o),
(867,154,q),
(867,600,l),
(954,600,l)
);
},
{
closed = 1;
nodes = (
(567,416,l),
(741,413,l),
(567,523,l)
);
}
);
width = 1049;
}
);
},
{
glyphname = uni10CD6_10CC1_laa;
layers = (
{
layerId = "97583185-4D09-4CC5-9049-5210241494EA";
shapes = (
{
closed = 1;
nodes = (
(180,1,l),
(93,0,l),
(193,227,l),
(34,430,l),
(65,505,l),
(323,600,l),
(429,600,l),
(695,0,l),
(607,0,l),
(561,105,l),
(521,0,l),
(437,0,l),
(519,200,l),
(483,282,l),
(365,0,l),
(281,0,l),
(442,376,l),
(427,411,o),
(404,475,o),
(396,498,q),
(392,498,l),
(378,456,o),
(373,444,qs),
(345,376,o),
(343,371,qs)
);
},
{
closed = 1;
nodes = (
(231,313,l),
(321,515,l),
(131,441,l)
);
}
);
width = 700;
}
);
},
{
glyphname = uni10CD6_10CC1_laa.ltr;
layers = (
{
layerId = "97583185-4D09-4CC5-9049-5210241494EA";
shapes = (
{
closed = 1;
nodes = (
(517,1,l),
(392,285,o),
(357,371,q),
(335,421,o),
(327,444,qs),
(316,474,o),
(308,498,q),
(304,498,o),
(304,498,q),
(296,475,o),
(273,411,o),
(258,376,q),
(258,376,o),
(419,0,q),
(335,0,l),
(217,282,l),
(181,200,l),
(263,0,l),
(179,0,l),
(139,105,l),
(93,0,l),
(5,0,l),
(271,600,l),
(377,600,l),
(635,505,l),
(666,430,l),
(507,227,l),
(607,0,l)
);
},
{
closed = 1;
nodes = (
(469,313,l),
(569,441,l),
(379,515,l)
);
}
);
width = 700;
}
);
},
{
glyphname = uni10CEE_10CC1_10CE2_vaar;
layers = (
{
layerId = "97583185-4D09-4CC5-9049-5210241494EA";
shapes = (
{
closed = 1;
nodes = (
(567,-1,l),
(482,0,l),
(482,192,l),
(182,71,l),
(182,0,l),
(95,0,l),
(95,600,l),
(182,600,l),
(182,154,l),
(469,270,l),
(232,361,l),
(232,449,l),
(450,600,l),
(559,600,l),
(718,486,l),
(875,600,l),
(954,600,l),
(954,0,l),
(869,0,l),
(869,499,l),
(718,394,l),
(567,499,l)
);
},
{
closed = 1;
nodes = (
(482,346,l),
(482,523,l),
(308,413,l)
);
}
);
width = 1049;
}
);
},
{
glyphname = uni10CEE_10CC1_10CE2_vaar.ltr;
layers = (
{
layerId = "97583185-4D09-4CC5-9049-5210241494EA";
shapes = (
{
closed = 1;
nodes = (
(482,1,l),
(482,499,l),
(331,394,l),
(180,499,l),
(180,0,l),
(95,0,l),
(95,600,l),
(174,600,l),
(331,486,l),
(490,600,l),
(599,600,l),
(817,449,l),
(817,361,l),
(580,270,l),
(867,154,l),
(867,600,l),
(954,600,l),
(954,0,l),
(867,0,l),
(867,71,l),
(567,192,l),
(567,0,l)
);
},
{
closed = 1;
nodes = (
(567,346,l),
(741,413,l),
(567,523,l)
);
}
);
width = 1049;
}
);
},
{
glyphname = uni10CC0_10CC2_ab;
layers = (
{
layerId = "97583185-4D09-4CC5-9049-5210241494EA";
shapes = (
{
closed = 1;
nodes = (
(10,0,l),
(217,313,l),
(25,600,l),
(119,600,l),
(268,371,l),
(417,600,l),
(537,600,l),
(616,302,l),
(548,246,l),
(346,348,l),
(321,311,l),
(528,0,l),
(434,0,l),
(271,253,l),
(111,0,l)
);
},
{
closed = 1;
nodes = (
(525,342,l),
(473,536,l),
(387,408,l)
);
}
);
width = 646;
}
);
},
{
glyphname = uni10CC0_10CC2_ba.ltr;
layers = (
{
layerId = "97583185-4D09-4CC5-9049-5210241494EA";
shapes = (
{
closed = 1;
nodes = (
(118,0,l),
(325,311,l),
(300,348,l),
(98,246,l),
(30,302,l),
(109,600,l),
(229,600,l),
(378,371,l),
(527,600,l),
(621,600,l),
(429,313,l),
(636,0,l),
(535,0,l),
(375,253,l),
(212,0,l)
);
},
{
closed = 1;
nodes = (
(121,342,l),
(259,408,l),
(173,536,l)
);
}
);
width = 646;
}
);
},
{
glyphname = uni10CD9_10CC4_nc;
layers = (
{
layerId = "97583185-4D09-4CC5-9049-5210241494EA";
shapes = (
{
closed = 1;
nodes = (
(52,47,l),
(122,79,o),
(215,135,o),
(270,194,o),
(292,260,o),
(292,300,qs),
(292,332,o),
(277,386,o),
(242,435,o),
(184,483,o),
(141,508,q),
(187,348,l),
(112,336,l),
(50,566,l),
(80,614,l),
(309,673,l),
(333,601,l),
(184,569,l),
(237,541,o),
(311,482,o),
(359,417,o),
(381,344,o),
(381,300,qs),
(381,248,o),
(349,161,o),
(279,86,o),
(168,16,o),
(89,-20,q)
);
}
);
width = 446;
}
);
},
{
glyphname = uni10CD9_10CC4_cn.ltr;
layers = (
{
layerId = "97583185-4D09-4CC5-9049-5210241494EA";
shapes = (
{
closed = 1;
nodes = (
(357,-20,l),
(278,16,o),
(167,86,o),
(97,161,o),
(65,248,o),
(65,300,qs),
(65,344,o),
(87,417,o),
(135,482,o),
(210,541,o),
(262,569,q),
(113,601,l),
(137,673,l),
(366,614,l),
(396,566,l),
(334,336,l),
(259,348,l),
(305,508,l),
(262,483,o),
(204,435,o),
(169,386,o),
(154,332,o),
(154,300,qs),
(154,260,o),
(176,194,o),
(231,135,o),
(324,79,o),
(394,47,q)
);
}
);
width = 446;
}
);
},
{
glyphname = uni10CC0_10CC7_ad;
layers = (
{
layerId = "97583185-4D09-4CC5-9049-5210241494EA";
shapes = (
{
closed = 1;
nodes = (
(178,0,l),
(178,187,l),
(30,271,l),
(70,339,l),
(178,277,l),
(178,600,l),
(297,600,l),
(495,409,l),
(495,320,l),
(265,232,l),
(265,228,l),
(412,144,l),
(373,76,l),
(265,137,l),
(265,0,l)
);
},
{
closed = 1;
nodes = (
(265,316,l),
(419,373,l),
(265,523,l)
);
}
);
width = 537;
}
);
},
{
glyphname = uni10CD9_10CC7_nd;
layers = (
{
layerId = "97583185-4D09-4CC5-9049-5210241494EA";
shapes = (
{
closed = 1;
nodes = (
(54,47,l),
(118,76,o),
(206,128,o),
(262,182,o),
(290,240,o),
(293,274,q),
(153,236,l),
(133,305,l),
(290,346,l),
(284,375,o),
(253,425,o),
(196,473,o),
(110,523,o),
(50,551,q),
(95,618,l),
(159,588,o),
(255,531,o),
(324,471,o),
(366,406,o),
(375,369,q),
(509,404,l),
(523,336,l),
(383,298,l),
(383,246,o),
(350,160,o),
(280,85,o),
(170,16,o),
(91,-20,q)
);
}
);
width = 548;
}
);
},
{
glyphname = uni10CC0_10CC7_ad.ltr;
layers = (
{
layerId = "97583185-4D09-4CC5-9049-5210241494EA";
shapes = (
{
closed = 1;
nodes = (
(272,0,l),
(272,137,l),
(164,76,l),
(125,144,l),
(272,228,l),
(272,232,l),
(42,320,l),
(42,409,l),
(240,600,l),
(359,600,l),
(359,277,l),
(467,339,l),
(507,271,l),
(359,187,l),
(359,0,l)
);
},
{
closed = 1;
nodes = (
(272,316,l),
(272,523,l),
(118,373,l)
);
}
);
width = 537;
}
);
},
{
glyphname = uni10CD9_10CC7_nd.ltr;
layers = (
{
layerId = "97583185-4D09-4CC5-9049-5210241494EA";
shapes = (
{
closed = 1;
nodes = (
(457,-20,l),
(378,16,o),
(268,85,o),
(198,160,o),
(165,246,o),
(165,298,q),
(25,336,l),
(39,404,l),
(173,369,l),
(182,406,o),
(224,471,o),
(293,531,o),
(389,588,o),
(453,618,q),
(498,551,l),
(438,523,o),
(352,473,o),
(295,425,o),
(264,375,o),
(258,346,q),
(415,305,l),
(395,236,l),
(255,274,l),
(258,240,o),
(286,182,o),
(342,128,o),
(430,76,o),
(494,47,q)
);
}
);
width = 548;
}
);
},
{
glyphname = uni10CC2_10CC9_be;
layers = (
{
layerId = "97583185-4D09-4CC5-9049-5210241494EA";
shapes = (
{
closed = 1;
nodes = (
(301,-27,l),
(215,51,l),
(182,0,l),
(88,0,l),
(157,104,l),
(80,174,l),
(128,229,l),
(198,165,l),
(295,311,l),
(209,438,l),
(128,365,l),
(80,420,l),
(168,500,l),
(100,600,l),
(199,600,l),
(228,555,l),
(301,621,l),
(344,561,l),
(269,493,l),
(348,371,l),
(497,600,l),
(591,600,l),
(399,313,l),
(606,0,l),
(505,0,l),
(345,253,l),
(255,114,l),
(344,33,l)
);
}
);
width = 616;
}
);
},
{
glyphname = uni10CCD_10CC9_ge;
layers = (
{
layerId = "97583185-4D09-4CC5-9049-5210241494EA";
shapes = (
{
closed = 1;
nodes = (
(212,-68,l),
(147,13,l),
(126,2,o),
(81,-16,o),
(55,-24,q),
(25,42,l),
(45,49,o),
(83,64,o),
(100,73,q),
(47,140,l),
(105,185,l),
(162,113,l),
(228,168,o),
(260,255,qs),
(277,302,o),
(291,403,o),
(288,455,q),
(202,414,l),
(165,477,l),
(278,531,l),
(275,549,o),
(265,583,o),
(259,600,q),
(346,600,l),
(361,571,l),
(449,613,l),
(480,547,l),
(393,505,l),
(643,0,l),
(550,0,l),
(479,149,l),
(408,0,l),
(321,0,l),
(436,241,l),
(384,350,ls),
(379,360,o),
(368,386,o),
(362,401,q),
(364,359,o),
(351,272,o),
(334,226,qs),
(294,120,o),
(210,54,q),
(266,-17,l)
);
}
);
width = 647;
}
);
},
{
glyphname = uni10CCF_10CC9_he;
layers = (
{
layerId = "97583185-4D09-4CC5-9049-5210241494EA";
shapes = (
{
closed = 1;
nodes = (
(221,-20,l),
(166,25,l),
(138,0,l),
(30,0,l),
(108,72,l),
(44,124,l),
(92,179,l),
(161,120,l),
(209,164,l),
(46,311,l),
(209,445,l),
(166,482,l),
(92,420,l),
(44,475,l),
(111,529,l),
(28,600,l),
(137,600,l),
(167,575,l),
(221,619,l),
(271,571,l),
(220,528,l),
(264,491,l),
(392,600,l),
(500,600,l),
(320,445,l),
(482,311,l),
(319,164,l),
(498,0,l),
(391,0,l),
(264,115,l),
(218,73,l),
(271,28,l)
);
},
{
closed = 1;
nodes = (
(264,215,l),
(369,310,l),
(264,397,l),
(161,310,l)
);
}
);
width = 528;
}
);
},
{
glyphname = uni10CD6_10CC9_le;
layers = (
{
layerId = "97583185-4D09-4CC5-9049-5210241494EA";
shapes = (
{
closed = 1;
nodes = (
(212,-53,l),
(156,17,l),
(134,5,o),
(88,-16,o),
(62,-24,q),
(32,42,l),
(52,49,o),
(91,66,o),
(108,76,q),
(57,140,l),
(115,185,l),
(168,119,l),
(230,172,o),
(267,255,qs),
(287,300,o),
(316,401,o),
(319,453,q),
(232,414,l),
(195,477,l),
(316,531,l),
(314,549,o),
(306,583,o),
(299,600,q),
(386,600,l),
(404,570,l),
(499,613,l),
(530,547,l),
(441,507,l),
(744,0,l),
(642,0,l),
(583,98,l),
(538,0,l),
(453,0,l),
(538,172,l),
(499,238,l),
(381,0,l),
(294,0,l),
(452,315,l),
(431,350,ls),
(420,368,o),
(400,407,o),
(392,426,q),
(390,382,o),
(367,284,o),
(341,226,qs),
(295,125,o),
(217,59,q),
(266,-2,l)
);
}
);
width = 748;
}
);
},
{
glyphname = uni10CE2_10CC9_re;
layers = (
{
layerId = "97583185-4D09-4CC5-9049-5210241494EA";
shapes = (
{
closed = 1;
nodes = (
(311,-27,l),
(226,51,l),
(171,16,o),
(91,-20,q),
(54,47,l),
(120,76,o),
(166,104,q),
(90,174,l),
(138,229,l),
(227,148,l),
(265,181,o),
(294,254,o),
(294,300,qs),
(294,345,o),
(265,414,o),
(227,446,q),
(138,365,l),
(90,420,l),
(167,490,l),
(143,504,o),
(85,534,o),
(50,551,q),
(95,618,l),
(175,581,o),
(229,546,q),
(311,621,l),
(354,561,l),
(289,502,l),
(334,463,o),
(378,377,o),
(382,325,q),
(551,434,l),
(551,600,l),
(638,600,l),
(638,0,l),
(551,0,l),
(551,345,l),
(375,231,l),
(357,156,o),
(286,95,q),
(354,33,l)
);
}
);
width = 733;
}
);
},
{
glyphname = uni10CE4_10CC9_se;
layers = (
{
layerId = "97583185-4D09-4CC5-9049-5210241494EA";
shapes = (
{
closed = 1;
nodes = (
(212,-68,l),
(147,13,l),
(126,2,o),
(81,-16,o),
(55,-24,q),
(25,42,l),
(45,49,o),
(83,64,o),
(100,73,q),
(47,140,l),
(105,185,l),
(162,113,l),
(228,168,o),
(260,255,qs),
(277,302,o),
(291,403,o),
(288,455,q),
(202,414,l),
(165,477,l),
(278,531,l),
(275,549,o),
(265,583,o),
(259,600,q),
(346,600,l),
(360,570,l),
(449,613,l),
(480,547,l),
(390,504,l),
(623,0,l),
(530,0,l),
(384,325,ls),
(379,336,o),
(368,368,o),
(362,386,q),
(362,348,o),
(350,268,o),
(334,226,qs),
(294,120,o),
(210,54,q),
(266,-17,l)
);
}
);
width = 627;
}
);
},
{
glyphname = uni10CC2_10CC9_tye.ltr;
layers = (
{
layerId = "97583185-4D09-4CC5-9049-5210241494EA";
shapes = (
{
closed = 1;
nodes = (
(315,-27,l),
(272,33,l),
(361,114,l),
(271,253,l),
(111,0,l),
(10,0,l),
(217,313,l),
(25,600,l),
(119,600,l),
(268,371,l),
(347,493,l),
(272,561,l),
(315,621,l),
(388,555,l),
(417,600,l),
(516,600,l),
(448,500,l),
(536,420,l),
(488,365,l),
(407,438,l),
(321,311,l),
(418,165,l),
(488,229,l),
(536,174,l),
(459,104,l),
(528,0,l),
(434,0,l),
(401,51,l)
);
}
);
width = 616;
}
);
},
{
glyphname = uni10CCD_10CC9_ge.ltr;
layers = (
{
layerId = "97583185-4D09-4CC5-9049-5210241494EA";
shapes = (
{
closed = 1;
nodes = (
(435,-68,l),
(381,-17,l),
(437,54,l),
(353,120,o),
(313,226,qs),
(296,272,o),
(283,359,o),
(285,401,q),
(279,386,o),
(268,360,o),
(263,350,qs),
(211,241,l),
(326,0,l),
(239,0,l),
(168,149,l),
(97,0,l),
(4,0,l),
(254,505,l),
(167,547,l),
(198,613,l),
(286,571,l),
(301,600,l),
(388,600,l),
(382,583,o),
(372,549,o),
(369,531,q),
(482,477,l),
(445,414,l),
(359,455,l),
(356,403,o),
(370,302,o),
(387,255,qs),
(419,168,o),
(485,113,q),
(542,185,l),
(600,140,l),
(547,73,l),
(564,64,o),
(602,49,o),
(622,42,q),
(592,-24,l),
(566,-16,o),
(521,2,o),
(500,13,q)
);
}
);
width = 647;
}
);
},
{
glyphname = uni10CCF_10CC9_he.ltr;
layers = (
{
layerId = "97583185-4D09-4CC5-9049-5210241494EA";
shapes = (
{
closed = 1;
nodes = (
(307,-20,l),
(257,28,l),
(310,73,l),
(264,115,l),
(137,0,l),
(30,0,l),
(209,164,l),
(46,311,l),
(208,445,l),
(28,600,l),
(136,600,l),
(264,491,l),
(308,528,l),
(257,571,l),
(307,619,l),
(361,575,l),
(391,600,l),
(500,600,l),
(417,529,l),
(484,475,l),
(436,420,l),
(362,482,l),
(319,445,l),
(482,311,l),
(319,164,l),
(367,120,l),
(436,179,l),
(484,124,l),
(420,72,l),
(498,0,l),
(390,0,l),
(362,25,l)
);
},
{
closed = 1;
nodes = (
(264,215,l),
(367,310,l),
(264,397,l),
(159,310,l)
);
}
);
width = 528;
}
);
},
{
glyphname = uni10CD6_10CC9_le.ltr;
layers = (
{
layerId = "97583185-4D09-4CC5-9049-5210241494EA";
shapes = (
{
closed = 1;
nodes = (
(536,-53,l),
(482,-2,l),
(531,59,l),
(453,125,o),
(407,226,qs),
(381,284,o),
(358,382,o),
(356,426,q),
(348,407,o),
(328,368,o),
(317,350,qs),
(296,315,l),
(454,0,l),
(367,0,l),
(249,238,l),
(210,172,l),
(295,0,l),
(210,0,l),
(165,98,l),
(106,0,l),
(4,0,l),
(307,507,l),
(218,547,l),
(249,613,l),
(344,570,l),
(362,600,l),
(449,600,l),
(442,583,o),
(434,549,o),
(432,531,q),
(553,477,l),
(516,414,l),
(429,453,l),
(432,401,o),
(461,300,o),
(481,255,qs),
(518,172,o),
(580,119,q),
(633,185,l),
(691,140,l),
(640,76,l),
(657,66,o),
(696,49,o),
(716,42,q),
(686,-24,l),
(660,-16,o),
(614,5,o),
(592,17,q)
);
}
);
width = 748;
}
);
},
{
glyphname = uni10CE2_10CC9_re.ltr;
layers = (
{
layerId = "97583185-4D09-4CC5-9049-5210241494EA";
shapes = (
{
closed = 1;
nodes = (
(422,-27,l),
(379,33,l),
(447,95,l),
(376,156,o),
(358,231,q),
(182,345,l),
(182,0,l),
(95,0,l),
(95,600,l),
(182,600,l),
(182,434,l),
(351,325,l),
(355,377,o),
(399,463,o),
(444,502,q),
(379,561,l),
(422,621,l),
(504,546,l),
(558,581,o),
(638,618,q),
(683,551,l),
(648,534,o),
(590,504,o),
(566,490,q),
(643,420,l),
(595,365,l),
(506,446,l),
(468,414,o),
(439,345,o),
(439,300,qs),
(439,254,o),
(468,181,o),
(506,148,q),
(595,229,l),
(643,174,l),
(567,104,l),
(613,76,o),
(679,47,q),
(642,-20,l),
(562,16,o),
(507,51,q)
);
}
);
width = 733;
}
);
},
{
glyphname = uni10CE4_10CC9_se.ltr;
layers = (
{
layerId = "97583185-4D09-4CC5-9049-5210241494EA";
shapes = (
{
closed = 1;
nodes = (
(415,-68,l),
(361,-17,l),
(417,54,l),
(333,120,o),
(293,226,qs),
(277,268,o),
(265,348,o),
(265,386,q),
(259,368,o),
(248,336,o),
(243,325,qs),
(97,0,l),
(4,0,l),
(237,504,l),
(147,547,l),
(178,613,l),
(267,570,l),
(281,600,l),
(368,600,l),
(362,583,o),
(352,549,o),
(349,531,q),
(462,477,l),
(425,414,l),
(339,455,l),
(336,403,o),
(350,302,o),
(367,255,qs),
(399,168,o),
(465,113,q),
(522,185,l),
(580,140,l),
(527,73,l),
(544,64,o),
(582,49,o),
(602,42,q),
(572,-24,l),
(546,-16,o),
(501,2,o),
(480,13,q)
);
}
);
width = 627;
}
);
},
{
glyphname = uni10CD9_10CCE_ngy;
layers = (
{
layerId = "97583185-4D09-4CC5-9049-5210241494EA";
shapes = (
{
closed = 1;
nodes = (
(54,47,l),
(103,69,o),
(177,109,o),
(231,149,o),
(267,191,o),
(277,213,q),
(149,178,l),
(129,247,l),
(294,290,l),
(294,300,ls),
(294,317,o),
(291,346,o),
(286,360,q),
(139,320,l),
(119,389,l),
(250,424,l),
(223,455,o),
(126,515,o),
(50,551,q),
(95,618,l),
(187,575,o),
(306,494,o),
(339,447,q),
(495,488,l),
(509,420,l),
(371,383,l),
(382,350,o),
(383,314,q),
(505,346,l),
(519,278,l),
(377,240,l),
(369,200,o),
(328,132,o),
(258,69,o),
(158,10,o),
(91,-20,q)
);
}
);
width = 554;
}
);
},
{
glyphname = uni10CD9_10CCE_ngy.ltr;
layers = (
{
layerId = "97583185-4D09-4CC5-9049-5210241494EA";
shapes = (
{
closed = 1;
nodes = (
(463,-20,l),
(396,10,o),
(296,69,o),
(226,132,o),
(185,200,o),
(177,240,q),
(35,278,l),
(49,346,l),
(171,314,l),
(173,350,o),
(183,383,q),
(45,420,l),
(59,488,l),
(215,447,l),
(248,494,o),
(367,575,o),
(459,618,q),
(504,551,l),
(428,515,o),
(331,455,o),
(304,424,q),
(435,389,l),
(415,320,l),
(268,360,l),
(263,346,o),
(260,317,o),
(260,300,qs),
(260,290,l),
(425,247,l),
(405,178,l),
(277,213,l),
(298,168,o),
(403,91,o),
(500,47,q)
);
}
);
width = 554;
}
);
},
{
glyphname = uni10CC2_10CD0_bi;
layers = (
{
layerId = "97583185-4D09-4CC5-9049-5210241494EA";
shapes = (
{
closed = 1;
nodes = (
(88,0,l),
(295,311,l),
(209,438,l),
(128,365,l),
(80,420,l),
(168,500,l),
(100,600,l),
(199,600,l),
(228,555,l),
(301,621,l),
(344,561,l),
(269,493,l),
(348,371,l),
(497,600,l),
(591,600,l),
(399,313,l),
(606,0,l),
(505,0,l),
(345,253,l),
(182,0,l)
);
}
);
width = 616;
}
);
},
{
glyphname = uni10CCD_10CD0_gi;
layers = (
{
layerId = "97583185-4D09-4CC5-9049-5210241494EA";
shapes = (
{
closed = 1;
nodes = (
(65,0,l),
(157,227,l),
(75,209,l),
(62,276,l),
(188,304,l),
(307,600,l),
(378,600,l),
(621,0,l),
(532,0,l),
(443,225,l),
(360,0,l),
(273,0,l),
(401,330,l),
(385,371,ls),
(371,408,o),
(351,471,o),
(345,496,q),
(341,496,l),
(335,470,o),
(316,415,o),
(299,371,qs),
(281,325,l),
(338,338,l),
(350,270,l),
(250,248,l),
(152,0,l)
);
}
);
width = 625;
}
);
},
{
glyphname = uni10CCF_10CD0_hi;
layers = (
{
layerId = "97583185-4D09-4CC5-9049-5210241494EA";
shapes = (
{
closed = 1;
nodes = (
(42,0,l),
(221,164,l),
(58,311,l),
(221,445,l),
(178,482,l),
(104,420,l),
(56,475,l),
(123,529,l),
(40,600,l),
(149,600,l),
(179,575,l),
(233,619,l),
(283,571,l),
(232,528,l),
(276,491,l),
(404,600,l),
(512,600,l),
(332,445,l),
(494,311,l),
(331,164,l),
(510,0,l),
(403,0,l),
(276,115,l),
(150,0,l)
);
},
{
closed = 1;
nodes = (
(276,215,l),
(381,310,l),
(276,397,l),
(173,310,l)
);
}
);
width = 552;
}
);
},
{
glyphname = uni10CD9_10CD0_ni;
layers = (
{
layerId = "97583185-4D09-4CC5-9049-5210241494EA";
shapes = (
{
closed = 1;
nodes = (
(54,47,l),
(124,79,o),
(217,135,o),
(272,194,o),
(294,260,o),
(294,300,qs),
(294,351,o),
(255,427,o),
(204,465,q),
(119,367,l),
(65,414,l),
(143,504,l),
(123,515,o),
(76,538,o),
(50,551,q),
(95,618,l),
(124,604,o),
(174,579,o),
(196,566,q),
(268,649,l),
(323,600,l),
(258,526,l),
(324,478,o),
(383,370,o),
(383,300,qs),
(383,248,o),
(351,161,o),
(281,86,o),
(170,16,o),
(91,-20,q)
);
}
);
width = 448;
}
);
},
{
glyphname = uni10CE2_10CD0_ri;
layers = (
{
layerId = "97583185-4D09-4CC5-9049-5210241494EA";
shapes = (
{
closed = 1;
nodes = (
(140,0,l),
(140,431,l),
(44,404,l),
(27,470,l),
(140,501,l),
(140,600,l),
(227,600,l),
(227,525,l),
(313,549,l),
(328,483,l),
(227,455,l),
(227,264,l),
(490,434,l),
(490,600,l),
(577,600,l),
(577,0,l),
(490,0,l),
(490,345,l),
(227,175,l),
(227,0,l)
);
}
);
width = 672;
}
);
},
{
glyphname = uni10CE4_10CD0_si;
layers = (
{
layerId = "97583185-4D09-4CC5-9049-5210241494EA";
shapes = (
{
closed = 1;
nodes = (
(22,0,l),
(202,447,l),
(57,418,l),
(45,483,l),
(231,519,l),
(264,600,l),
(335,600,l),
(578,0,l),
(489,0,l),
(342,371,ls),
(328,408,o),
(308,471,o),
(302,496,q),
(298,496,l),
(292,470,o),
(273,415,o),
(256,371,qs),
(109,0,l)
);
}
);
width = 582;
}
);
},
{
glyphname = uni10CE6_10CD0_ti;
layers = (
{
layerId = "97583185-4D09-4CC5-9049-5210241494EA";
shapes = (
{
closed = 1;
nodes = (
(178,0,l),
(178,433,l),
(60,378,l),
(30,443,l),
(178,512,l),
(178,600,l),
(260,601,l),
(260,601,o),
(259,550,q),
(376,605,l),
(406,540,l),
(265,474,l),
(265,331,l),
(540,621,l),
(602,567,l),
(265,215,l),
(265,0,l)
);
}
);
width = 600;
}
);
},
{
glyphname = uni10CC2_10CD0_bi.ltr;
layers = (
{
layerId = "97583185-4D09-4CC5-9049-5210241494EA";
shapes = (
{
closed = 1;
nodes = (
(10,0,l),
(217,313,l),
(25,600,l),
(119,600,l),
(268,371,l),
(347,493,l),
(272,561,l),
(315,621,l),
(388,555,l),
(417,600,l),
(516,600,l),
(448,500,l),
(536,420,l),
(488,365,l),
(407,438,l),
(321,311,l),
(528,0,l),
(434,0,l),
(271,253,l),
(111,0,l)
);
}
);
width = 616;
}
);
},
{
glyphname = uni10CCD_10CD0_gi.ltr;
layers = (
{
layerId = "97583185-4D09-4CC5-9049-5210241494EA";
shapes = (
{
closed = 1;
nodes = (
(4,0,l),
(247,600,l),
(318,600,l),
(437,304,l),
(563,276,l),
(550,209,l),
(468,227,l),
(560,0,l),
(473,0,l),
(375,248,l),
(275,270,l),
(287,338,l),
(344,325,l),
(326,371,ls),
(309,415,o),
(290,470,o),
(284,496,q),
(280,496,l),
(274,471,o),
(254,408,o),
(240,371,qs),
(224,330,l),
(352,0,l),
(265,0,l),
(182,225,l),
(93,0,l)
);
}
);
width = 625;
}
);
},
{
glyphname = uni10CCF_10CD0_hi.ltr;
layers = (
{
layerId = "97583185-4D09-4CC5-9049-5210241494EA";
shapes = (
{
closed = 1;
nodes = (
(42,0,l),
(221,164,l),
(58,311,l),
(220,445,l),
(40,600,l),
(148,600,l),
(276,491,l),
(320,528,l),
(269,571,l),
(319,619,l),
(373,575,l),
(403,600,l),
(512,600,l),
(429,529,l),
(496,475,l),
(448,420,l),
(374,482,l),
(331,445,l),
(494,311,l),
(331,164,l),
(510,0,l),
(402,0,l),
(276,115,l),
(149,0,l)
);
},
{
closed = 1;
nodes = (
(276,215,l),
(379,310,l),
(276,397,l),
(171,310,l)
);
}
);
width = 552;
}
);
},
{
glyphname = uni10CD9_10CD0_ni.ltr;
layers = (
{
layerId = "97583185-4D09-4CC5-9049-5210241494EA";
shapes = (
{
closed = 1;
nodes = (
(357,-20,l),
(278,16,o),
(167,86,o),
(97,161,o),
(65,248,o),
(65,300,qs),
(65,370,o),
(124,478,o),
(190,526,q),
(125,600,l),
(180,649,l),
(252,566,l),
(274,579,o),
(324,604,o),
(353,618,q),
(398,551,l),
(372,538,o),
(325,515,o),
(305,504,q),
(383,414,l),
(329,367,l),
(244,465,l),
(193,427,o),
(154,351,o),
(154,300,qs),
(154,260,o),
(176,194,o),
(231,135,o),
(324,79,o),
(394,47,q)
);
}
);
width = 448;
}
);
},
{
glyphname = uni10CE2_10CD0_ri.ltr;
layers = (
{
layerId = "97583185-4D09-4CC5-9049-5210241494EA";
shapes = (
{
closed = 1;
nodes = (
(95,0,l),
(95,600,l),
(182,600,l),
(182,434,l),
(445,264,l),
(445,455,l),
(344,483,l),
(359,549,l),
(445,525,l),
(445,600,l),
(532,600,l),
(532,501,l),
(645,470,l),
(628,404,l),
(532,431,l),
(532,0,l),
(445,0,l),
(445,175,l),
(182,345,l),
(182,0,l)
);
}
);
width = 672;
}
);
},
{
glyphname = uni10CE4_10CD0_si.ltr;
layers = (
{
layerId = "97583185-4D09-4CC5-9049-5210241494EA";
shapes = (
{
closed = 1;
nodes = (
(4,0,l),
(247,600,l),
(318,600,l),
(351,519,l),
(537,483,l),
(525,418,l),
(380,447,l),
(560,0,l),
(473,0,l),
(326,371,ls),
(309,415,o),
(290,470,o),
(284,496,q),
(280,496,l),
(274,471,o),
(254,408,o),
(240,371,qs),
(93,0,l)
);
}
);
width = 582;
}
);
},
{
glyphname = uni10CE6_10CD0_ti.ltr;
layers = (
{
layerId = "97583185-4D09-4CC5-9049-5210241494EA";
shapes = (
{
closed = 1;
nodes = (
(454,0,l),
(367,0,l),
(367,215,l),
(30,567,l),
(92,621,l),
(367,331,l),
(367,474,l),
(226,540,l),
(256,605,l),
(373,550,l),
(372,601,l),
(372,601,o),
(454,600,q),
(454,512,l),
(602,443,l),
(572,378,l),
(454,433,l)
);
}
);
width = 600;
}
);
},
{
glyphname = uni10CC6_10CD2_10CD9_csjn;
layers = (
{
layerId = "97583185-4D09-4CC5-9049-5210241494EA";
shapes = (
{
closed = 1;
nodes = (
(36,47,l),
(106,79,o),
(199,135,o),
(254,194,o),
(276,260,o),
(276,300,qs),
(276,339,o),
(253,402,o),
(198,460,o),
(104,517,o),
(32,551,q),
(77,618,l),
(146,586,o),
(247,524,o),
(282,492,q),
(455,600,l),
(540,600,l),
(540,428,l),
(804,600,l),
(880,600,l),
(880,0,l),
(795,0,l),
(795,170,l),
(531,0,l),
(455,0,l),
(455,513,l),
(330,434,l),
(365,377,o),
(365,300,qs),
(365,248,o),
(333,161,o),
(263,86,o),
(152,16,o),
(73,-20,q)
);
},
{
closed = 1;
nodes = (
(540,91,l),
(795,255,l),
(795,510,l),
(540,343,l)
);
}
);
width = 975;
}
);
},
{
glyphname = uni10CC6_10CD0_10CD9_csjn.ltr;
layers = (
{
layerId = "97583185-4D09-4CC5-9049-5210241494EA";
shapes = (
{
closed = 1;
nodes = (
(902,-20,l),
(823,16,o),
(712,86,o),
(642,161,o),
(610,248,o),
(610,300,qs),
(610,377,o),
(645,434,q),
(520,513,l),
(520,0,l),
(444,0,l),
(180,170,l),
(180,0,l),
(95,0,l),
(95,600,l),
(171,600,l),
(435,428,l),
(435,600,l),
(520,600,l),
(693,492,l),
(728,524,o),
(829,586,o),
(898,618,q),
(943,551,l),
(871,517,o),
(777,460,o),
(722,402,o),
(699,339,o),
(699,300,qs),
(699,260,o),
(721,194,o),
(776,135,o),
(869,79,o),
(939,47,q)
);
},
{
closed = 1;
nodes = (
(435,91,l),
(435,343,l),
(180,510,l),
(180,255,l)
);
}
);
width = 975;
}
);
},
{
glyphname = uni10CD0_10CD2_y;
layers = (
{
layerId = "97583185-4D09-4CC5-9049-5210241494EA";
shapes = (
{
closed = 1;
nodes = (
(225,0,l),
(225,284,l),
(109,192,l),
(74,254,l),
(225,367,l),
(225,485,l),
(65,331,l),
(11,383,l),
(235,600,l),
(312,600,l),
(312,415,l),
(434,512,l),
(463,449,l),
(312,335,l),
(312,0,l)
);
}
);
width = 494;
}
);
},
{
glyphname = uni10CD0_10CD2_y.ltr;
layers = (
{
layerId = "97583185-4D09-4CC5-9049-5210241494EA";
shapes = (
{
closed = 1;
nodes = (
(249,0,l),
(162,0,l),
(162,335,l),
(11,449,l),
(40,512,l),
(162,415,l),
(162,600,l),
(239,600,l),
(463,383,l),
(409,331,l),
(249,485,l),
(249,367,l),
(400,254,l),
(365,192,l),
(249,284,l)
);
}
);
width = 494;
}
);
},
{
glyphname = uni10CC4_10CD3_ck;
layers = (
{
layerId = "97583185-4D09-4CC5-9049-5210241494EA";
shapes = (
{
closed = 1;
nodes = (
(211,0,l),
(34,191,l),
(211,375,l),
(211,488,l),
(84,376,l),
(35,434,l),
(226,600,l),
(283,600,l),
(474,434,l),
(425,376,l),
(298,488,l),
(298,375,l),
(473,191,l),
(298,0,l)
);
},
{
closed = 1;
nodes = (
(211,100,l),
(211,278,l),
(130,190,l)
);
},
{
closed = 1;
nodes = (
(298,101,l),
(377,190,l),
(298,276,l)
);
}
);
width = 508;
}
);
},
{
glyphname = uni10CD9_10CD3_nk;
layers = (
{
layerId = "97583185-4D09-4CC5-9049-5210241494EA";
shapes = (
{
closed = 1;
nodes = (
(91,37,l),
(131,70,o),
(190,133,o),
(209,166,q),
(44,308,l),
(203,439,l),
(183,469,o),
(126,528,o),
(88,561,q),
(139,618,l),
(182,583,o),
(247,515,o),
(270,478,q),
(490,308,l),
(273,125,l),
(250,87,o),
(182,16,o),
(137,-20,q)
);
},
{
closed = 1;
nodes = (
(235,228,l),
(244,261,o),
(244,300,qs),
(244,344,o),
(232,381,q),
(144,307,l)
);
},
{
closed = 1;
nodes = (
(391,307,l),
(311,375,l),
(318,341,o),
(318,300,qs),
(318,283,o),
(316,253,o),
(314,239,q)
);
}
);
width = 520;
}
);
},
{
glyphname = uni10CE4_10CD3_sk;
layers = (
{
layerId = "97583185-4D09-4CC5-9049-5210241494EA";
shapes = (
{
closed = 1;
nodes = (
(125,0,l),
(160,87,l),
(44,290,l),
(270,360,l),
(367,600,l),
(438,600,l),
(681,0,l),
(592,0,l),
(445,371,ls),
(431,408,o),
(411,471,o),
(405,496,q),
(401,496,l),
(395,470,o),
(376,415,o),
(359,371,qs),
(340,324,l),
(462,133,l),
(234,56,l),
(212,0,l)
);
},
{
closed = 1;
nodes = (
(189,159,l),
(242,290,l),
(138,254,l)
);
},
{
closed = 1;
nodes = (
(262,126,l),
(369,167,l),
(316,262,l)
);
}
);
width = 685;
}
);
},
{
glyphname = uni10CC4_10CD3_ck.ltr;
layers = (
{
layerId = "97583185-4D09-4CC5-9049-5210241494EA";
shapes = (
{
closed = 1;
nodes = (
(210,0,l),
(35,191,l),
(210,375,l),
(210,488,l),
(83,376,l),
(34,434,l),
(225,600,l),
(282,600,l),
(473,434,l),
(424,376,l),
(297,488,l),
(297,375,l),
(474,191,l),
(297,0,l)
);
},
{
closed = 1;
nodes = (
(210,101,l),
(210,276,l),
(131,190,l)
);
},
{
closed = 1;
nodes = (
(297,100,l),
(378,190,l),
(297,278,l)
);
}
);
width = 508;
}
);
},
{
glyphname = uni10CD9_10CD3_nk.ltr;
layers = (
{
layerId = "97583185-4D09-4CC5-9049-5210241494EA";
shapes = (
{
closed = 1;
nodes = (
(383,-20,l),
(338,16,o),
(270,87,o),
(247,125,q),
(30,308,l),
(250,478,l),
(273,515,o),
(338,583,o),
(381,618,q),
(432,561,l),
(394,528,o),
(337,469,o),
(317,439,q),
(476,308,l),
(311,166,l),
(330,133,o),
(389,70,o),
(429,37,q)
);
},
{
closed = 1;
nodes = (
(206,239,l),
(204,253,o),
(202,283,o),
(202,300,qs),
(202,341,o),
(209,375,q),
(129,307,l)
);
},
{
closed = 1;
nodes = (
(376,307,l),
(288,381,l),
(276,344,o),
(276,300,qs),
(276,261,o),
(285,228,q)
);
}
);
width = 520;
}
);
},
{
glyphname = uni10CE4_10CD3_sk.ltr;
layers = (
{
layerId = "97583185-4D09-4CC5-9049-5210241494EA";
shapes = (
{
closed = 1;
nodes = (
(4,0,l),
(247,600,l),
(318,600,l),
(415,360,l),
(641,290,l),
(525,87,l),
(560,0,l),
(473,0,l),
(451,56,l),
(223,133,l),
(345,324,l),
(326,371,ls),
(309,415,o),
(290,470,o),
(284,496,q),
(280,496,l),
(274,471,o),
(254,408,o),
(240,371,qs),
(93,0,l)
);
},
{
closed = 1;
nodes = (
(423,126,l),
(369,262,l),
(316,167,l)
);
},
{
closed = 1;
nodes = (
(496,159,l),
(547,254,l),
(443,290,l)
);
}
);
width = 685;
}
);
},
{
glyphname = uni10CC4_10CD4_c_ka;
layers = (
{
layerId = "97583185-4D09-4CC5-9049-5210241494EA";
shapes = (
{
closed = 1;
nodes = (
(391,0,l),
(30,149,l),
(70,224,l),
(224,268,l),
(79,328,l),
(114,403,l),
(348,302,l),
(318,226,l),
(163,177,l),
(391,90,l),
(391,488,l),
(264,376,l),
(215,434,l),
(406,600,l),
(463,600,l),
(654,434,l),
(605,376,l),
(478,488,l),
(478,0,l)
);
}
);
width = 658;
}
);
},
{
glyphname = uni10CC4_10CD4_c_ka.ltr;
layers = (
{
layerId = "97583185-4D09-4CC5-9049-5210241494EA";
shapes = (
{
closed = 1;
nodes = (
(180,0,l),
(180,488,l),
(53,376,l),
(4,434,l),
(195,600,l),
(252,600,l),
(443,434,l),
(394,376,l),
(267,488,l),
(267,90,l),
(495,177,l),
(340,226,l),
(310,302,l),
(544,403,l),
(579,328,l),
(434,268,l),
(588,224,l),
(628,149,l),
(267,0,l)
);
}
);
width = 658;
}
);
},
{
glyphname = uni10CC0_10CD6_al;
layers = (
{
layerId = "97583185-4D09-4CC5-9049-5210241494EA";
shapes = (
{
closed = 1;
nodes = (
(5,0,l),
(270,600,l),
(376,600,l),
(634,505,l),
(675,417,l),
(480,285,l),
(607,0,l),
(519,0,l),
(468,117,l),
(423,0,l),
(339,0,l),
(426,212,l),
(385,305,l),
(257,0,l),
(173,0,l),
(344,399,l),
(333,428,o),
(314,478,o),
(308,498,q),
(304,498,l),
(296,474,o),
(274,414,o),
(255,371,qs),
(90,0,l)
);
},
{
closed = 1;
nodes = (
(450,355,l),
(579,441,l),
(378,516,l)
);
}
);
width = 699;
}
);
},
{
glyphname = uni10CEA_10CD6_ul;
layers = (
{
layerId = "97583185-4D09-4CC5-9049-5210241494EA";
shapes = (
{
closed = 1;
nodes = (
(0,0,l),
(532,600,l),
(609,600,l),
(768,486,l),
(925,600,l),
(1004,600,l),
(1004,0,l),
(925,0,l),
(768,114,l),
(609,0,l),
(532,0,l),
(532,90,l),
(463,0,l),
(366,0,l),
(532,193,l),
(532,293,l),
(283,0,l),
(186,0,l),
(532,394,l),
(532,488,l),
(98,0,l)
);
},
{
closed = 1;
nodes = (
(617,100,l),
(768,206,l),
(919,100,l),
(919,499,l),
(768,394,l),
(617,499,l)
);
}
);
width = 1099;
}
);
},
{
glyphname = uni10CC0_10CD6_al.ltr;
layers = (
{
layerId = "97583185-4D09-4CC5-9049-5210241494EA";
shapes = (
{
closed = 1;
nodes = (
(92,0,l),
(219,285,l),
(24,417,l),
(65,505,l),
(323,600,l),
(429,600,l),
(694,0,l),
(609,0,l),
(444,371,ls),
(425,414,o),
(403,474,o),
(395,498,q),
(391,498,l),
(385,478,o),
(366,428,o),
(355,399,q),
(526,0,l),
(442,0,l),
(314,305,l),
(273,212,l),
(360,0,l),
(276,0,l),
(231,117,l),
(180,0,l)
);
},
{
closed = 1;
nodes = (
(249,355,l),
(321,516,l),
(120,441,l)
);
}
);
width = 699;
}
);
},
{
glyphname = uni10CEA_10CD6_ul.ltr;
layers = (
{
layerId = "97583185-4D09-4CC5-9049-5210241494EA";
shapes = (
{
closed = 1;
nodes = (
(95,0,l),
(95,600,l),
(174,600,l),
(331,486,l),
(490,600,l),
(567,600,l),
(1099,0,l),
(1001,0,l),
(567,488,l),
(567,394,l),
(913,0,l),
(816,0,l),
(567,293,l),
(567,193,l),
(733,0,l),
(636,0,l),
(567,90,l),
(567,0,l),
(490,0,l),
(331,114,l),
(174,0,l)
);
},
{
closed = 1;
nodes = (
(180,100,l),
(331,206,l),
(482,100,l),
(482,499,l),
(331,394,l),
(180,499,l)
);
}
);
width = 1099;
}
);
},
{
glyphname = uni10CE4_10CD8_ms;
layers = (
{
layerId = "97583185-4D09-4CC5-9049-5210241494EA";
shapes = (
{
closed = 1;
nodes = (
(227,0,l),
(47,120,l),
(64,203,l),
(268,311,l),
(157,417,l),
(171,493,l),
(430,600,l),
(545,600,l),
(788,0,l),
(699,0,l),
(552,371,ls),
(538,408,o),
(518,471,o),
(512,496,q),
(508,496,l),
(502,470,o),
(483,415,o),
(466,371,qs),
(319,0,l)
);
},
{
closed = 1;
nodes = (
(260,74,l),
(342,277,l),
(133,159,l)
);
},
{
closed = 1;
nodes = (
(360,322,l),
(441,525,l),
(239,443,l)
);
}
);
width = 792;
}
);
},
{
glyphname = uni10CEA_10CD8_um;
layers = (
{
layerId = "97583185-4D09-4CC5-9049-5210241494EA";
shapes = (
{
closed = 1;
nodes = (
(303,0,l),
(48,132,l),
(48,231,l),
(190,303,l),
(48,380,l),
(48,479,l),
(303,600,l),
(382,600,l),
(541,486,l),
(698,600,l),
(777,600,l),
(777,0,l),
(698,0,l),
(541,114,l),
(382,0,l)
);
},
{
closed = 1;
nodes = (
(305,93,l),
(305,283,l),
(121,185,l)
);
},
{
closed = 1;
nodes = (
(305,321,l),
(305,514,l),
(121,426,l)
);
},
{
closed = 1;
nodes = (
(390,100,l),
(541,206,l),
(692,100,l),
(692,499,l),
(541,394,l),
(390,499,l)
);
}
);
width = 872;
}
);
},
{
glyphname = uni10CEE_10CD8_vm;
layers = (
{
layerId = "97583185-4D09-4CC5-9049-5210241494EA";
shapes = (
{
closed = 1;
nodes = (
(303,0,l),
(48,132,l),
(48,231,l),
(190,303,l),
(48,380,l),
(48,479,l),
(303,600,l),
(382,600,l),
(541,486,l),
(698,600,l),
(777,600,l),
(777,0,l),
(692,0,l),
(692,499,l),
(541,394,l),
(390,499,l),
(390,0,l)
);
},
{
closed = 1;
nodes = (
(305,93,l),
(305,283,l),
(121,185,l)
);
},
{
closed = 1;
nodes = (
(305,321,l),
(305,514,l),
(121,426,l)
);
}
);
width = 872;
}
);
},
{
glyphname = uni10CE4_10CD8_ms.ltr;
layers = (
{
layerId = "97583185-4D09-4CC5-9049-5210241494EA";
shapes = (
{
closed = 1;
nodes = (
(4,0,l),
(247,600,l),
(362,600,l),
(621,493,l),
(635,417,l),
(524,311,l),
(728,203,l),
(745,120,l),
(565,0,l),
(473,0,l),
(326,371,ls),
(309,415,o),
(290,470,o),
(284,496,q),
(280,496,l),
(274,471,o),
(254,408,o),
(240,371,qs),
(93,0,l)
);
},
{
closed = 1;
nodes = (
(532,74,l),
(659,159,l),
(450,277,l)
);
},
{
closed = 1;
nodes = (
(432,322,l),
(553,443,l),
(351,525,l)
);
}
);
width = 792;
}
);
},
{
glyphname = uni10CEA_10CD8_um.ltr;
layers = (
{
layerId = "97583185-4D09-4CC5-9049-5210241494EA";
shapes = (
{
closed = 1;
nodes = (
(95,0,l),
(95,600,l),
(174,600,l),
(331,486,l),
(490,600,l),
(569,600,l),
(824,479,l),
(824,380,l),
(682,303,l),
(824,231,l),
(824,132,l),
(569,0,l),
(490,0,l),
(331,114,l),
(174,0,l)
);
},
{
closed = 1;
nodes = (
(180,100,l),
(331,206,l),
(482,100,l),
(482,499,l),
(331,394,l),
(180,499,l)
);
},
{
closed = 1;
nodes = (
(567,93,l),
(751,185,l),
(567,283,l)
);
},
{
closed = 1;
nodes = (
(567,321,l),
(751,426,l),
(567,514,l)
);
}
);
width = 872;
}
);
},
{
glyphname = uni10CEE_10CD8_vm.ltr;
layers = (
{
layerId = "97583185-4D09-4CC5-9049-5210241494EA";
shapes = (
{
closed = 1;
nodes = (
(95,0,l),
(95,600,l),
(174,600,l),
(331,486,l),
(490,600,l),
(569,600,l),
(824,479,l),
(824,380,l),
(682,303,l),
(824,231,l),
(824,132,l),
(569,0,l),
(482,0,l),
(482,499,l),
(331,394,l),
(180,499,l),
(180,0,l)
);
},
{
closed = 1;
nodes = (
(567,93,l),
(751,185,l),
(567,283,l)
);
},
{
closed = 1;
nodes = (
(567,321,l),
(751,426,l),
(567,514,l)
);
}
);
width = 872;
}
);
},
{
glyphname = uni10CC2_10CDB_bo;
layers = (
{
layerId = "97583185-4D09-4CC5-9049-5210241494EA";
shapes = (
{
closed = 1;
nodes = (
(192,-23,l),
(24,73,l),
(65,141,l),
(164,82,l),
(317,311,l),
(175,517,l),
(75,457,l),
(34,525,l),
(202,621,l),
(370,371,l),
(519,600,l),
(613,600,l),
(421,313,l),
(628,0,l),
(527,0,l),
(367,253,l)
);
}
);
width = 638;
}
);
},
{
glyphname = uni10CCD_10CDB_go;
layers = (
{
layerId = "97583185-4D09-4CC5-9049-5210241494EA";
shapes = (
{
closed = 1;
nodes = (
(32,146,l),
(90,204,l),
(219,81,l),
(281,134,o),
(331,234,o),
(331,295,qs),
(331,326,o),
(319,380,o),
(291,432,o),
(246,484,o),
(212,514,q),
(90,397,l),
(32,455,l),
(211,624,l),
(277,572,o),
(361,482,o),
(384,437,q),
(451,600,l),
(518,600,l),
(761,0,l),
(672,0,l),
(583,225,l),
(500,0,l),
(413,0,l),
(541,330,l),
(525,371,ls),
(511,408,o),
(491,471,o),
(485,496,q),
(481,496,l),
(475,472,o),
(455,417,o),
(438,373,qs),
(417,319,l),
(418,313,o),
(418,301,o),
(418,295,qs),
(418,247,o),
(392,165,o),
(340,89,o),
(263,16,o),
(211,-22,q)
);
}
);
width = 765;
}
);
},
{
glyphname = uni10CCF_10CDB_ho;
layers = (
{
layerId = "97583185-4D09-4CC5-9049-5210241494EA";
shapes = (
{
closed = 1;
nodes = (
(194,-25,l),
(39,99,l),
(87,159,l),
(191,73,l),
(290,164,l),
(127,311,l),
(290,445,l),
(195,526,l),
(87,437,l),
(39,497,l),
(194,621,l),
(345,491,l),
(473,600,l),
(581,600,l),
(401,445,l),
(563,311,l),
(400,164,l),
(579,0,l),
(472,0,l),
(345,115,l)
);
},
{
closed = 1;
nodes = (
(345,215,l),
(450,310,l),
(345,397,l),
(242,310,l)
);
}
);
width = 621;
}
);
},
{
glyphname = uni10CD6_10CDB_lo;
layers = (
{
layerId = "97583185-4D09-4CC5-9049-5210241494EA";
shapes = (
{
closed = 1;
nodes = (
(32,146,l),
(90,204,l),
(219,81,l),
(281,134,o),
(331,234,o),
(331,295,qs),
(331,326,o),
(319,380,o),
(291,432,o),
(246,484,o),
(212,514,q),
(90,397,l),
(32,455,l),
(211,624,l),
(287,564,o),
(377,461,o),
(398,408,q),
(498,600,l),
(551,600,l),
(826,0,l),
(735,0,l),
(682,120,l),
(634,0,l),
(546,0,l),
(639,214,l),
(597,308,l),
(468,0,l),
(380,0,l),
(556,401,l),
(534,456,o),
(523,496,q),
(519,496,l),
(509,472,o),
(482,415,o),
(462,373,qs),
(418,284,l),
(417,239,o),
(389,160,o),
(337,86,o),
(261,15,o),
(211,-22,q)
);
}
);
width = 830;
}
);
},
{
glyphname = uni10CE2_10CDB_ro;
layers = (
{
layerId = "97583185-4D09-4CC5-9049-5210241494EA";
shapes = (
{
closed = 1;
nodes = (
(32,146,l),
(90,204,l),
(219,81,l),
(281,134,o),
(331,234,o),
(331,295,qs),
(331,326,o),
(319,380,o),
(291,432,o),
(246,484,o),
(212,514,q),
(90,397,l),
(32,455,l),
(211,624,l),
(264,582,o),
(339,507,o),
(389,434,o),
(414,361,o),
(417,321,q),
(558,425,l),
(558,600,l),
(645,600,l),
(645,0,l),
(558,0,l),
(558,336,l),
(411,227,l),
(395,157,o),
(295,40,o),
(211,-22,q)
);
}
);
width = 740;
}
);
},
{
glyphname = uni10CE4_10CDB_so;
layers = (
{
layerId = "97583185-4D09-4CC5-9049-5210241494EA";
shapes = (
{
closed = 1;
nodes = (
(32,146,l),
(90,204,l),
(219,81,l),
(281,134,o),
(331,234,o),
(331,295,qs),
(331,326,o),
(319,380,o),
(291,432,o),
(246,484,o),
(212,514,q),
(90,397,l),
(32,455,l),
(211,624,l),
(305,549,o),
(354,485,q),
(401,600,l),
(468,600,l),
(711,0,l),
(622,0,l),
(475,371,ls),
(461,408,o),
(441,471,o),
(435,496,q),
(431,496,l),
(426,476,o),
(411,433,o),
(400,403,q),
(418,352,o),
(418,295,qs),
(418,247,o),
(392,165,o),
(340,89,o),
(263,16,o),
(211,-22,q)
);
}
);
width = 715;
}
);
},
{
glyphname = uni10CC2_10CDB_bo.ltr;
layers = (
{
layerId = "97583185-4D09-4CC5-9049-5210241494EA";
shapes = (
{
closed = 1;
nodes = (
(446,-23,l),
(271,253,l),
(111,0,l),
(10,0,l),
(217,313,l),
(25,600,l),
(119,600,l),
(268,371,l),
(436,621,l),
(604,525,l),
(563,457,l),
(463,517,l),
(321,311,l),
(474,82,l),
(573,141,l),
(614,73,l)
);
}
);
width = 638;
}
);
},
{
glyphname = uni10CCD_10CDB_go.ltr;
layers = (
{
layerId = "97583185-4D09-4CC5-9049-5210241494EA";
shapes = (
{
closed = 1;
nodes = (
(554,-22,l),
(502,16,o),
(425,89,o),
(373,165,o),
(347,247,o),
(347,295,qs),
(347,301,o),
(347,313,o),
(348,319,q),
(327,373,ls),
(310,417,o),
(290,472,o),
(284,496,q),
(280,496,l),
(274,471,o),
(254,408,o),
(240,371,qs),
(224,330,l),
(352,0,l),
(265,0,l),
(182,225,l),
(93,0,l),
(4,0,l),
(247,600,l),
(314,600,l),
(381,437,l),
(404,482,o),
(488,572,o),
(554,624,q),
(733,455,l),
(675,397,l),
(553,514,l),
(519,484,o),
(474,432,o),
(446,380,o),
(434,326,o),
(434,295,qs),
(434,234,o),
(485,134,o),
(546,81,q),
(675,204,l),
(733,146,l)
);
}
);
width = 765;
}
);
},
{
glyphname = uni10CCF_10CDB_ho.ltr;
layers = (
{
layerId = "97583185-4D09-4CC5-9049-5210241494EA";
shapes = (
{
closed = 1;
nodes = (
(427,-25,l),
(276,115,l),
(149,0,l),
(42,0,l),
(221,164,l),
(58,311,l),
(220,445,l),
(40,600,l),
(148,600,l),
(276,491,l),
(427,621,l),
(582,497,l),
(534,437,l),
(426,526,l),
(331,445,l),
(494,311,l),
(331,164,l),
(430,73,l),
(534,159,l),
(582,99,l)
);
},
{
closed = 1;
nodes = (
(276,215,l),
(379,310,l),
(276,397,l),
(171,310,l)
);
}
);
width = 621;
}
);
},
{
glyphname = uni10CD6_10CDB_lo.ltr;
layers = (
{
layerId = "97583185-4D09-4CC5-9049-5210241494EA";
shapes = (
{
closed = 1;
nodes = (
(619,-22,l),
(569,15,o),
(493,86,o),
(441,160,o),
(414,239,o),
(412,284,q),
(368,373,ls),
(348,415,o),
(321,472,o),
(311,496,q),
(307,496,l),
(296,456,o),
(274,401,q),
(450,0,l),
(362,0,l),
(233,308,l),
(191,214,l),
(284,0,l),
(196,0,l),
(148,120,l),
(95,0,l),
(4,0,l),
(279,600,l),
(332,600,l),
(432,408,l),
(453,461,o),
(543,564,o),
(619,624,q),
(798,455,l),
(740,397,l),
(618,514,l),
(584,484,o),
(539,432,o),
(511,380,o),
(499,326,o),
(499,295,qs),
(499,234,o),
(550,134,o),
(611,81,q),
(740,204,l),
(798,146,l)
);
}
);
width = 830;
}
);
},
{
glyphname = uni10CE2_10CDB_ro.ltr;
layers = (
{
layerId = "97583185-4D09-4CC5-9049-5210241494EA";
shapes = (
{
closed = 1;
nodes = (
(529,-22,l),
(445,40,o),
(345,157,o),
(329,227,q),
(182,336,l),
(182,0,l),
(95,0,l),
(95,600,l),
(182,600,l),
(182,425,l),
(323,321,l),
(326,361,o),
(351,434,o),
(401,507,o),
(476,582,o),
(529,624,q),
(708,455,l),
(650,397,l),
(528,514,l),
(494,484,o),
(449,432,o),
(421,380,o),
(409,326,o),
(409,295,qs),
(409,234,o),
(460,134,o),
(521,81,q),
(650,204,l),
(708,146,l)
);
}
);
width = 740;
}
);
},
{
glyphname = uni10CE4_10CDB_so.ltr;
layers = (
{
layerId = "97583185-4D09-4CC5-9049-5210241494EA";
shapes = (
{
closed = 1;
nodes = (
(504,-22,l),
(452,16,o),
(375,89,o),
(323,165,o),
(297,247,o),
(297,295,qs),
(297,352,o),
(315,403,q),
(304,433,o),
(289,476,o),
(284,496,q),
(280,496,l),
(274,471,o),
(254,408,o),
(240,371,qs),
(93,0,l),
(4,0,l),
(247,600,l),
(314,600,l),
(361,485,l),
(410,549,o),
(504,624,q),
(683,455,l),
(625,397,l),
(503,514,l),
(469,484,o),
(424,432,o),
(396,380,o),
(384,326,o),
(384,295,qs),
(384,234,o),
(435,134,o),
(496,81,q),
(625,204,l),
(683,146,l)
);
}
);
width = 715;
}
);
},
{
glyphname = uni10CD9_10CE0_np;
layers = (
{
layerId = "97583185-4D09-4CC5-9049-5210241494EA";
shapes = (
{
closed = 1;
nodes = (
(32,80,l),
(77,144,l),
(186,73,l),
(252,128,o),
(280,180,q),
(259,178,o),
(218,166,o),
(198,154,q),
(172,202,l),
(204,221,o),
(267,237,o),
(302,238,q),
(308,265,o),
(308,295,qs),
(308,302,l),
(283,299,o),
(237,284,o),
(214,269,q),
(185,316,l),
(213,335,o),
(270,354,o),
(301,358,q),
(297,373,o),
(284,403,o),
(276,417,q),
(255,412,o),
(216,394,o),
(197,379,q),
(165,424,l),
(200,451,o),
(239,465,q),
(214,493,o),
(177,524,q),
(77,458,l),
(32,522,l),
(188,624,l),
(237,585,o),
(308,515,o),
(333,481,q),
(377,485,o),
(453,472,o),
(493,449,q),
(469,400,l),
(443,414,o),
(393,425,o),
(367,426,q),
(381,395,o),
(389,359,q),
(422,356,o),
(483,336,o),
(514,316,q),
(486,269,l),
(463,284,o),
(418,299,o),
(395,302,q),
(395,295,ls),
(395,261,o),
(389,231,q),
(419,225,o),
(474,202,o),
(501,181,q),
(470,136,l),
(447,154,o),
(397,172,o),
(371,177,q),
(348,123,o),
(257,29,o),
(188,-22,q)
);
}
);
width = 554;
}
);
},
{
glyphname = uni10CE4_10CE0_sp;
layers = (
{
layerId = "97583185-4D09-4CC5-9049-5210241494EA";
shapes = (
{
closed = 1;
nodes = (
(178,0,l),
(238,148,l),
(60,82,l),
(38,144,l),
(270,228,l),
(313,334,l),
(127,265,l),
(105,327,l),
(345,414,l),
(388,520,l),
(194,448,l),
(172,510,l),
(420,600,l),
(491,600,l),
(734,0,l),
(645,0,l),
(498,371,ls),
(484,408,o),
(464,471,o),
(458,496,q),
(454,496,l),
(448,470,o),
(429,415,o),
(412,371,qs),
(265,0,l)
);
}
);
width = 756;
}
);
},
{
glyphname = uni10CD9_10CE0_np.ltr;
layers = (
{
layerId = "97583185-4D09-4CC5-9049-5210241494EA";
shapes = (
{
closed = 1;
nodes = (
(366,-22,l),
(297,29,o),
(206,123,o),
(183,177,q),
(157,172,o),
(107,154,o),
(84,136,q),
(53,181,l),
(80,202,o),
(135,225,o),
(165,231,q),
(159,261,o),
(159,295,qs),
(159,302,l),
(136,299,o),
(91,284,o),
(68,269,q),
(40,316,l),
(71,336,o),
(132,356,o),
(165,359,q),
(173,395,o),
(187,426,q),
(161,425,o),
(111,414,o),
(85,400,q),
(61,449,l),
(101,472,o),
(177,485,o),
(221,481,q),
(246,515,o),
(317,585,o),
(366,624,q),
(522,522,l),
(477,458,l),
(377,524,l),
(340,493,o),
(315,465,q),
(354,451,o),
(389,424,q),
(357,379,l),
(338,394,o),
(299,412,o),
(278,417,q),
(270,403,o),
(258,373,o),
(253,358,q),
(284,354,o),
(341,335,o),
(369,316,q),
(340,269,l),
(317,284,o),
(271,299,o),
(246,302,q),
(246,295,ls),
(246,265,o),
(252,238,q),
(287,237,o),
(350,221,o),
(382,202,q),
(356,154,l),
(336,166,o),
(295,178,o),
(274,180,q),
(302,128,o),
(368,73,q),
(477,144,l),
(522,80,l)
);
}
);
width = 554;
}
);
},
{
glyphname = uni10CE4_10CE0_sp.ltr;
layers = (
{
layerId = "97583185-4D09-4CC5-9049-5210241494EA";
shapes = (
{
closed = 1;
nodes = (
(22,0,l),
(265,600,l),
(336,600,l),
(584,510,l),
(562,448,l),
(368,520,l),
(411,414,l),
(651,327,l),
(629,265,l),
(443,334,l),
(486,228,l),
(718,144,l),
(696,82,l),
(518,148,l),
(578,0,l),
(491,0,l),
(344,371,ls),
(327,415,o),
(308,470,o),
(302,496,q),
(298,496,l),
(292,471,o),
(272,408,o),
(258,371,qs),
(111,0,l)
);
}
);
width = 756;
}
);
},
{
glyphname = uni10CC0_10CE2_ar;
layers = (
{
layerId = "97583185-4D09-4CC5-9049-5210241494EA";
shapes = (
{
closed = 1;
nodes = (
(95,0,l),
(95,600,l),
(182,600,l),
(182,264,l),
(445,434,l),
(445,600,l),
(564,600,l),
(762,409,l),
(762,320,l),
(532,313,l),
(532,0,l),
(445,0,l),
(445,345,l),
(182,175,l),
(182,0,l)
);
},
{
closed = 1;
nodes = (
(532,376,l),
(686,373,l),
(532,523,l)
);
}
);
width = 792;
}
);
},
{
glyphname = uni10CC1_10CE2_aar;
layers = (
{
layerId = "97583185-4D09-4CC5-9049-5210241494EA";
shapes = (
{
closed = 1;
nodes = (
(445,-1,l),
(445,375,l),
(182,205,l),
(182,0,l),
(95,0,l),
(95,600,l),
(182,600,l),
(182,294,l),
(445,464,l),
(445,600,l),
(564,600,l),
(762,409,l),
(762,330,l),
(532,193,l),
(532,0,l)
);
},
{
closed = 1;
nodes = (
(532,280,l),
(686,373,l),
(532,523,l)
);
}
);
width = 792;
}
);
},
{
glyphname = uni10CDB_10CE2_or;
layers = (
{
layerId = "97583185-4D09-4CC5-9049-5210241494EA";
shapes = (
{
closed = 1;
nodes = (
(529,-22,l),
(477,20,o),
(401,94,o),
(352,166,o),
(326,239,o),
(323,279,q),
(182,175,l),
(182,0,l),
(95,0,l),
(95,600,l),
(182,600,l),
(182,264,l),
(329,372,l),
(344,443,o),
(444,561,o),
(529,624,q),
(708,456,l),
(650,398,l),
(521,521,l),
(460,468,o),
(409,368,o),
(409,307,qs),
(409,276,o),
(421,222,o),
(449,170,o),
(494,118,o),
(528,88,q),
(650,205,l),
(708,147,l)
);
}
);
width = 740;
}
);
},
{
glyphname = uni10CEA_10CE2_ur;
layers = (
{
layerId = "97583185-4D09-4CC5-9049-5210241494EA";
shapes = (
{
closed = 1;
nodes = (
(95,0,l),
(95,600,l),
(182,600,l),
(182,264,l),
(365,398,l),
(365,600,l),
(442,600,l),
(601,486,l),
(758,600,l),
(837,600,l),
(837,0,l),
(758,0,l),
(601,114,l),
(442,0,l),
(365,0,l),
(365,309,l),
(182,175,l),
(182,0,l)
);
},
{
closed = 1;
nodes = (
(450,100,l),
(601,206,l),
(752,100,l),
(752,499,l),
(601,394,l),
(450,499,l)
);
}
);
width = 932;
}
);
},
{
glyphname = uni10CEF_10CE2_zr;
layers = (
{
layerId = "97583185-4D09-4CC5-9049-5210241494EA";
shapes = (
{
closed = 1;
nodes = (
(95,0,l),
(95,600,l),
(182,600,l),
(182,264,l),
(445,434,l),
(445,600,l),
(532,600,l),
(532,427,l),
(787,600,l),
(872,600,l),
(872,0,l),
(787,0,l),
(787,173,l),
(532,0,l),
(445,0,l),
(445,345,l),
(182,175,l),
(182,0,l)
);
},
{
closed = 1;
nodes = (
(532,81,l),
(787,254,l),
(787,346,l),
(532,173,l)
);
},
{
closed = 1;
nodes = (
(532,254,l),
(787,427,l),
(787,519,l),
(532,346,l)
);
}
);
width = 967;
}
);
},
{
glyphname = uni10CC0_10CE2_ar.ltr;
layers = (
{
layerId = "97583185-4D09-4CC5-9049-5210241494EA";
shapes = (
{
closed = 1;
nodes = (
(260,0,l),
(260,303,l),
(30,300,l),
(30,409,l),
(228,600,l),
(347,600,l),
(347,434,l),
(610,264,l),
(610,600,l),
(697,600,l),
(697,0,l),
(610,0,l),
(610,175,l),
(347,345,l),
(347,0,l)
);
},
{
closed = 1;
nodes = (
(260,377,l),
(260,523,l),
(106,373,l)
);
}
);
width = 792;
}
);
},
{
glyphname = uni10CC1_10CE2_aar.ltr;
layers = (
{
layerId = "97583185-4D09-4CC5-9049-5210241494EA";
shapes = (
{
closed = 1;
nodes = (
(347,0,l),
(260,0,l),
(260,193,l),
(30,330,l),
(30,409,l),
(228,600,l),
(347,600,l),
(347,464,l),
(610,294,l),
(610,600,l),
(697,600,l),
(697,0,l),
(610,0,l),
(610,205,l),
(347,375,l)
);
},
{
closed = 1;
nodes = (
(260,280,l),
(260,523,l),
(106,373,l)
);
}
);
width = 792;
}
);
},
{
glyphname = uni10CDB_10CE2_or.ltr;
layers = (
{
layerId = "97583185-4D09-4CC5-9049-5210241494EA";
shapes = (
{
closed = 1;
nodes = (
(32,147,l),
(90,205,l),
(212,88,l),
(246,118,o),
(291,170,o),
(319,222,o),
(331,276,o),
(331,307,qs),
(331,368,o),
(281,468,o),
(219,521,q),
(90,398,l),
(32,456,l),
(211,624,l),
(296,561,o),
(396,443,o),
(411,372,q),
(558,264,l),
(558,600,l),
(645,600,l),
(645,0,l),
(558,0,l),
(558,175,l),
(417,279,l),
(414,239,o),
(388,166,o),
(339,94,o),
(264,20,o),
(211,-22,q)
);
}
);
width = 740;
}
);
},
{
glyphname = uni10CEA_10CE2_ur.ltr;
layers = (
{
layerId = "97583185-4D09-4CC5-9049-5210241494EA";
shapes = (
{
closed = 1;
nodes = (
(95,0,l),
(95,600,l),
(174,600,l),
(331,486,l),
(490,600,l),
(567,600,l),
(567,398,l),
(750,264,l),
(750,600,l),
(837,600,l),
(837,0,l),
(750,0,l),
(750,175,l),
(567,309,l),
(567,0,l),
(490,0,l),
(331,114,l),
(174,0,l)
);
},
{
closed = 1;
nodes = (
(180,100,l),
(331,206,l),
(482,100,l),
(482,499,l),
(331,394,l),
(180,499,l)
);
}
);
width = 932;
}
);
},
{
glyphname = uni10CEF_10CE2_zr.ltr;
layers = (
{
layerId = "97583185-4D09-4CC5-9049-5210241494EA";
shapes = (
{
closed = 1;
nodes = (
(95,0,l),
(95,600,l),
(180,600,l),
(435,427,l),
(435,600,l),
(522,600,l),
(522,434,l),
(785,264,l),
(785,600,l),
(872,600,l),
(872,0,l),
(785,0,l),
(785,175,l),
(522,345,l),
(522,0,l),
(435,0,l),
(180,173,l),
(180,0,l)
);
},
{
closed = 1;
nodes = (
(435,81,l),
(435,173,l),
(180,346,l),
(180,254,l)
);
},
{
closed = 1;
nodes = (
(435,254,l),
(435,346,l),
(180,519,l),
(180,427,l)
);
}
);
width = 967;
}
);
},
{
glyphname = uni10CD1_10CE2_10CE6_iirt;
layers = (
{
layerId = "97583185-4D09-4CC5-9049-5210241494EA";
shapes = (
{
closed = 1;
nodes = (
(235,0,l),
(235,302,l),
(18,567,l),
(83,624,l),
(235,434,l),
(235,600,l),
(322,600,l),
(322,264,l),
(585,434,l),
(585,546,l),
(497,510,l),
(472,573,l),
(747,685,l),
(770,621,l),
(672,581,l),
(672,0,l),
(585,0,l),
(585,345,l),
(322,175,l),
(322,0,l)
);
}
);
width = 784;
}
);
},
{
glyphname = uni10CD1_10CE2_10CE6_iirt.ltr;
layers = (
{
layerId = "97583185-4D09-4CC5-9049-5210241494EA";
shapes = (
{
closed = 1;
nodes = (
(112,0,l),
(112,581,l),
(14,621,l),
(37,685,l),
(312,573,l),
(287,510,l),
(199,546,l),
(199,434,l),
(462,264,l),
(462,600,l),
(549,600,l),
(549,434,l),
(701,624,l),
(766,567,l),
(549,302,l),
(549,0,l),
(462,0,l),
(462,175,l),
(199,345,l),
(199,0,l)
);
}
);
width = 784;
}
);
},
{
glyphname = uni10CD3_10CE5_x;
layers = (
{
layerId = "97583185-4D09-4CC5-9049-5210241494EA";
shapes = (
{
closed = 1;
nodes = (
(185,180,l),
(183,90,o),
(182,0,q),
(95,0,l),
(95,600,l),
(182,600,l),
(182,419,l),
(236,510,o),
(289,600,q),
(365,600,l),
(540,304,l),
(365,0,l),
(289,0,l)
);
},
{
closed = 1;
nodes = (
(327,83,l),
(450,303,l),
(327,517,l),
(203,303,l)
);
}
);
width = 573;
}
);
},
{
glyphname = uni10CD3_10CE5_x.ltr;
layers = (
{
layerId = "97583185-4D09-4CC5-9049-5210241494EA";
shapes = (
{
closed = 1;
nodes = (
(450,180,o),
(346,0,q),
(270,0,l),
(95,304,l),
(270,600,l),
(346,600,l),
(399,510,o),
(453,419,q),
(453,419,o),
(453,600,q),
(540,600,l),
(540,0,l),
(453,0,l),
(452,90,o),
(450,180,q)
);
},
{
closed = 1;
nodes = (
(308,83,l),
(432,303,l),
(308,517,l),
(185,303,l)
);
}
);
width = 573;
}
);
},
{
glyphname = uni10CC2_10CE6;
layers = (
{
layerId = "97583185-4D09-4CC5-9049-5210241494EA";
shapes = (
{
closed = 1;
nodes = (
(118,0,l),
(325,311,l),
(293,359,l),
(46,381,l),
(52,458,l),
(238,440,l),
(130,600,l),
(229,600,l),
(378,371,l),
(527,600,l),
(621,600,l),
(429,313,l),
(636,0,l),
(535,0,l),
(375,253,l),
(212,0,l)
);
}
);
width = 646;
}
);
},
{
glyphname = uni10CD0_10CE6_it;
layers = (
{
layerId = "97583185-4D09-4CC5-9049-5210241494EA";
shapes = (
{
closed = 1;
nodes = (
(325,0,l),
(325,130,l),
(18,477,l),
(86,526,l),
(325,251,l),
(325,427,l),
(244,404,l),
(227,470,l),
(325,497,l),
(325,600,l),
(412,600,l),
(412,521,l),
(513,549,l),
(528,483,l),
(412,451,l),
(412,0,l)
);
}
);
width = 559;
}
);
},
{
glyphname = uni10CD1_10CE6_iit;
layers = (
{
layerId = "97583185-4D09-4CC5-9049-5210241494EA";
shapes = (
{
closed = 1;
nodes = (
(342,0,l),
(342,204,l),
(5,567,l),
(70,624,l),
(342,334,l),
(342,546,l),
(254,510,l),
(229,573,l),
(504,685,l),
(527,621,l),
(429,581,l),
(429,0,l)
);
}
);
width = 541;
}
);
},
{
glyphname = uni10CD6_10CE6_lt;
layers = (
{
layerId = "97583185-4D09-4CC5-9049-5210241494EA";
shapes = (
{
closed = 1;
nodes = (
(62,0,l),
(207,329,l),
(29,578,l),
(98,625,l),
(245,413,l),
(327,600,l),
(398,600,l),
(664,0,l),
(576,0,l),
(525,117,l),
(480,0,l),
(396,0,l),
(483,212,l),
(442,305,l),
(314,0,l),
(230,0,l),
(401,399,l),
(390,428,o),
(371,478,o),
(365,498,q),
(361,498,l),
(353,474,o),
(331,414,o),
(312,371,qs),
(147,0,l)
);
}
);
width = 668;
}
);
},
{
glyphname = uni10CD9_10CE6_nt;
layers = (
{
layerId = "97583185-4D09-4CC5-9049-5210241494EA";
shapes = (
{
closed = 1;
nodes = (
(75,47,l),
(145,79,o),
(238,135,o),
(293,194,o),
(315,260,o),
(315,300,qs),
(315,345,o),
(301,377,q),
(64,332,l),
(50,407,l),
(255,440,l),
(226,466,o),
(137,520,o),
(71,551,q),
(116,618,l),
(194,582,o),
(303,512,o),
(372,437,o),
(404,352,o),
(404,300,qs),
(404,248,o),
(372,161,o),
(302,86,o),
(191,16,o),
(112,-20,q)
);
}
);
width = 459;
}
);
},
{
glyphname = uni10CE2_10CE6_rt;
layers = (
{
layerId = "97583185-4D09-4CC5-9049-5210241494EA";
shapes = (
{
closed = 1;
nodes = (
(260,0,l),
(260,300,l),
(11,565,l),
(73,621,l),
(260,416,l),
(260,600,l),
(347,600,l),
(347,264,l),
(610,434,l),
(610,600,l),
(697,600,l),
(697,0,l),
(610,0,l),
(610,345,l),
(347,175,l),
(347,0,l)
);
}
);
width = 792;
}
);
},
{
glyphname = uni10CE4_10CE6_st;
layers = (
{
layerId = "97583185-4D09-4CC5-9049-5210241494EA";
shapes = (
{
closed = 1;
nodes = (
(69,0,l),
(199,323,l),
(24,579,l),
(87,618,l),
(232,404,l),
(311,600,l),
(382,600,l),
(625,0,l),
(536,0,l),
(389,371,ls),
(375,408,o),
(355,471,o),
(349,496,q),
(345,496,l),
(339,470,o),
(320,415,o),
(303,371,qs),
(156,0,l)
);
}
);
width = 647;
}
);
},
{
glyphname = uni10CE5_10CE6_szt;
layers = (
{
layerId = "97583185-4D09-4CC5-9049-5210241494EA";
shapes = (
{
closed = 1;
nodes = (
(375,0,l),
(375,241,l),
(292,342,l),
(34,359,l),
(42,432,l),
(230,418,l),
(108,567,l),
(173,624,l),
(375,371,l),
(375,600,l),
(462,600,l),
(462,0,l)
);
}
);
width = 557;
}
);
},
{
glyphname = uni10CEF_10CE6_zt;
layers = (
{
layerId = "97583185-4D09-4CC5-9049-5210241494EA";
shapes = (
{
closed = 1;
nodes = (
(285,0,l),
(285,241,l),
(18,567,l),
(83,624,l),
(285,371,l),
(285,600,l),
(372,600,l),
(372,427,l),
(627,600,l),
(712,600,l),
(712,0,l),
(627,0,l),
(627,173,l),
(372,0,l)
);
},
{
closed = 1;
nodes = (
(372,81,l),
(627,254,l),
(627,346,l),
(372,173,l)
);
},
{
closed = 1;
nodes = (
(372,254,l),
(627,427,l),
(627,519,l),
(372,346,l)
);
}
);
width = 807;
}
);
},
{
glyphname = uni10CC2_10CE6_bt.ltr;
layers = (
{
layerId = "97583185-4D09-4CC5-9049-5210241494EA";
shapes = (
{
closed = 1;
nodes = (
(10,0,l),
(217,313,l),
(25,600,l),
(119,600,l),
(268,371,l),
(417,600,l),
(516,600,l),
(408,440,l),
(594,458,l),
(600,381,l),
(353,359,l),
(321,311,l),
(528,0,l),
(434,0,l),
(271,253,l),
(111,0,l)
);
}
);
width = 646;
}
);
},
{
glyphname = uni10CD0_10CE6_it.ltr;
layers = (
{
layerId = "97583185-4D09-4CC5-9049-5210241494EA";
shapes = (
{
closed = 1;
nodes = (
(147,0,l),
(147,451,l),
(31,483,l),
(46,549,l),
(147,521,l),
(147,600,l),
(234,600,l),
(234,497,l),
(332,470,l),
(315,404,l),
(234,427,l),
(234,251,l),
(473,526,l),
(541,477,l),
(234,130,l),
(234,0,l)
);
}
);
width = 559;
}
);
},
{
glyphname = uni10CD1_10CE6_iit.ltr;
layers = (
{
layerId = "97583185-4D09-4CC5-9049-5210241494EA";
shapes = (
{
closed = 1;
nodes = (
(112,0,l),
(112,581,l),
(14,621,l),
(37,685,l),
(312,573,l),
(287,510,l),
(199,546,l),
(199,334,l),
(471,624,l),
(536,567,l),
(199,204,l),
(199,0,l)
);
}
);
width = 541;
}
);
},
{
glyphname = uni10CD6_10CE6_lt.ltr;
layers = (
{
layerId = "97583185-4D09-4CC5-9049-5210241494EA";
shapes = (
{
closed = 1;
nodes = (
(4,0,l),
(270,600,l),
(341,600,l),
(423,413,l),
(570,625,l),
(639,578,l),
(461,329,l),
(606,0,l),
(521,0,l),
(356,371,ls),
(337,414,o),
(315,474,o),
(307,498,q),
(303,498,l),
(297,478,o),
(278,428,o),
(267,399,q),
(438,0,l),
(354,0,l),
(226,305,l),
(185,212,l),
(272,0,l),
(188,0,l),
(143,117,l),
(92,0,l)
);
}
);
width = 668;
}
);
},
{
glyphname = uni10CD9_10CE6_nt.ltr;
layers = (
{
layerId = "97583185-4D09-4CC5-9049-5210241494EA";
shapes = (
{
closed = 1;
nodes = (
(347,-20,l),
(268,16,o),
(157,86,o),
(87,161,o),
(55,248,o),
(55,300,qs),
(55,352,o),
(87,437,o),
(156,512,o),
(265,582,o),
(343,618,q),
(388,551,l),
(322,520,o),
(233,466,o),
(204,440,q),
(409,407,l),
(395,332,l),
(158,377,l),
(144,345,o),
(144,300,qs),
(144,260,o),
(166,194,o),
(221,135,o),
(314,79,o),
(384,47,q)
);
}
);
width = 459;
}
);
},
{
glyphname = uni10CE2_10CE6_rt.ltr;
layers = (
{
layerId = "97583185-4D09-4CC5-9049-5210241494EA";
shapes = (
{
closed = 1;
nodes = (
(95,0,l),
(95,600,l),
(182,600,l),
(182,434,l),
(445,264,l),
(445,600,l),
(532,600,l),
(532,416,l),
(719,621,l),
(781,565,l),
(532,300,l),
(532,0,l),
(445,0,l),
(445,175,l),
(182,345,l),
(182,0,l)
);
}
);
width = 792;
}
);
},
{
glyphname = uni10CE4_10CE6_st.ltr;
layers = (
{
layerId = "97583185-4D09-4CC5-9049-5210241494EA";
shapes = (
{
closed = 1;
nodes = (
(22,0,l),
(265,600,l),
(336,600,l),
(415,404,l),
(560,618,l),
(623,579,l),
(448,323,l),
(578,0,l),
(491,0,l),
(344,371,ls),
(327,415,o),
(308,470,o),
(302,496,q),
(298,496,l),
(292,471,o),
(272,408,o),
(258,371,qs),
(111,0,l)
);
}
);
width = 647;
}
);
},
{
glyphname = uni10CE5_10CE6_szt.ltr;
layers = (
{
layerId = "97583185-4D09-4CC5-9049-5210241494EA";
shapes = (
{
closed = 1;
nodes = (
(95,0,l),
(95,600,l),
(182,600,l),
(182,371,l),
(384,624,l),
(449,567,l),
(327,418,l),
(515,432,l),
(523,359,l),
(265,342,l),
(182,241,l),
(182,0,l)
);
}
);
width = 557;
}
);
},
{
glyphname = uni10CEF_10CE6_zt.ltr;
layers = (
{
layerId = "97583185-4D09-4CC5-9049-5210241494EA";
shapes = (
{
closed = 1;
nodes = (
(95,0,l),
(95,600,l),
(180,600,l),
(435,427,l),
(435,600,l),
(522,600,l),
(522,371,l),
(724,624,l),
(789,567,l),
(522,241,l),
(522,0,l),
(435,0,l),
(180,173,l),
(180,0,l)
);
},
{
closed = 1;
nodes = (
(435,81,l),
(435,173,l),
(180,346,l),
(180,254,l)
);
},
{
closed = 1;
nodes = (
(435,254,l),
(435,346,l),
(180,519,l),
(180,427,l)
);
}
);
width = 807;
}
);
},
{
glyphname = uni10CC0_10CE6_10CE6_att;
layers = (
{
layerId = "97583185-4D09-4CC5-9049-5210241494EA";
shapes = (
{
closed = 1;
nodes = (
(285,0,l),
(285,173,l),
(50,338,l),
(100,398,l),
(285,266,l),
(285,347,l),
(50,512,l),
(100,572,l),
(285,440,l),
(285,600,l),
(404,600,l),
(602,409,l),
(602,320,l),
(372,232,l),
(372,0,l)
);
},
{
closed = 1;
nodes = (
(372,316,l),
(526,373,l),
(372,523,l)
);
}
);
width = 632;
}
);
},
{
glyphname = uni10CC0_10CE6_10CE6_att.ltr;
layers = (
{
layerId = "97583185-4D09-4CC5-9049-5210241494EA";
shapes = (
{
closed = 1;
nodes = (
(260,0,l),
(260,232,l),
(30,320,l),
(30,409,l),
(228,600,l),
(347,600,l),
(347,440,l),
(532,572,l),
(582,512,l),
(347,347,l),
(347,266,l),
(532,398,l),
(582,338,l),
(347,173,l),
(347,0,l)
);
},
{
closed = 1;
nodes = (
(260,316,l),
(260,523,l),
(106,373,l)
);
}
);
width = 632;
}
);
},
{
glyphname = uni10CC7_10CEA_du;
layers = (
{
layerId = "97583185-4D09-4CC5-9049-5210241494EA";
shapes = (
{
closed = 1;
nodes = (
(87,0,l),
(87,600,l),
(164,600,l),
(323,486,l),
(480,600,l),
(559,600,l),
(559,379,l),
(659,415,l),
(686,341,l),
(559,296,l),
(559,0,l),
(480,0,l),
(323,114,l),
(164,0,l)
);
},
{
closed = 1;
nodes = (
(172,100,l),
(323,206,l),
(474,100,l),
(474,266,l),
(373,231,l),
(347,304,l),
(474,349,l),
(474,499,l),
(323,394,l),
(172,499,l)
);
}
);
width = 718;
}
);
},
{
glyphname = uni10CE2_10CEA_ru;
layers = (
{
layerId = "97583185-4D09-4CC5-9049-5210241494EA";
shapes = (
{
closed = 1;
nodes = (
(87,0,l),
(87,600,l),
(164,600,l),
(323,486,l),
(480,600,l),
(559,600,l),
(559,284,l),
(765,417,l),
(765,600,l),
(852,600,l),
(852,0,l),
(765,0,l),
(765,328,l),
(559,195,l),
(559,0,l),
(480,0,l),
(323,114,l),
(164,0,l)
);
},
{
closed = 1;
nodes = (
(172,100,l),
(323,206,l),
(474,100,l),
(474,499,l),
(323,394,l),
(172,499,l)
);
}
);
width = 947;
}
);
},
{
glyphname = uni10CC7_10CEA_du.ltr;
layers = (
{
layerId = "97583185-4D09-4CC5-9049-5210241494EA";
shapes = (
{
closed = 1;
nodes = (
(159,0,l),
(159,296,l),
(32,341,l),
(59,415,l),
(159,379,l),
(159,600,l),
(238,600,l),
(395,486,l),
(554,600,l),
(631,600,l),
(631,0,l),
(554,0,l),
(395,114,l),
(238,0,l)
);
},
{
closed = 1;
nodes = (
(244,100,l),
(395,206,l),
(546,100,l),
(546,499,l),
(395,394,l),
(244,499,l),
(244,349,l),
(371,304,l),
(345,231,l),
(244,266,l)
);
}
);
width = 718;
}
);
},
{
glyphname = uni10CE2_10CEA_ru.ltr;
layers = (
{
layerId = "97583185-4D09-4CC5-9049-5210241494EA";
shapes = (
{
closed = 1;
nodes = (
(95,0,l),
(95,600,l),
(182,600,l),
(182,417,l),
(388,284,l),
(388,600,l),
(467,600,l),
(624,486,l),
(783,600,l),
(860,600,l),
(860,0,l),
(783,0,l),
(624,114,l),
(467,0,l),
(388,0,l),
(388,195,l),
(182,328,l),
(182,0,l)
);
},
{
closed = 1;
nodes = (
(473,100,l),
(624,206,l),
(775,100,l),
(775,499,l),
(624,394,l),
(473,499,l)
);
}
);
width = 947;
}
);
},
{
glyphname = uni10CD3_10CEE_q;
layers = (
{
layerId = "97583185-4D09-4CC5-9049-5210241494EA";
shapes = (
{
closed = 1;
nodes = (
(95,0,l),
(95,430,l),
(291,624,l),
(372,624,l),
(567,430,l),
(567,0,l),
(482,0,l),
(482,344,l),
(365,226,l),
(298,226,l),
(180,345,l),
(180,0,l)
);
},
{
closed = 1;
nodes = (
(331,291,l),
(462,423,l),
(331,554,l),
(200,423,l)
);
}
);
width = 662;
}
);
},
{
glyphname = uni10CEE_10CEE_w;
layers = (
{
layerId = "97583185-4D09-4CC5-9049-5210241494EA";
shapes = (
{
closed = 1;
nodes = (
(95,0,l),
(95,600,l),
(172,600,l),
(331,486,l),
(488,600,l),
(567,600,l),
(567,0,l),
(482,0,l),
(482,252,l),
(331,144,l),
(180,256,l),
(180,0,l)
);
},
{
closed = 1;
nodes = (
(331,236,l),
(482,346,l),
(482,499,l),
(331,394,l),
(180,499,l),
(180,344,l)
);
}
);
width = 662;
}
);
},
{
glyphname = uni10CD3_10CEE_q.ltr;
layers = (
{
layerId = "97583185-4D09-4CC5-9049-5210241494EA";
shapes = (
{
closed = 1;
nodes = (
(95,0,l),
(95,430,l),
(290,624,l),
(371,624,l),
(567,430,l),
(567,0,l),
(482,0,l),
(482,345,l),
(364,226,l),
(297,226,l),
(180,344,l),
(180,0,l)
);
},
{
closed = 1;
nodes = (
(331,291,l),
(462,423,l),
(331,554,l),
(200,423,l)
);
}
);
width = 662;
}
);
},
{
glyphname = uni10CEE_10CEE_w.ltr;
layers = (
{
layerId = "97583185-4D09-4CC5-9049-5210241494EA";
shapes = (
{
closed = 1;
nodes = (
(95,0,l),
(95,600,l),
(174,600,l),
(331,486,l),
(490,600,l),
(567,600,l),
(567,0,l),
(482,0,l),
(482,256,l),
(331,144,l),
(180,252,l),
(180,0,l)
);
},
{
closed = 1;
nodes = (
(331,236,l),
(482,344,l),
(482,499,l),
(331,394,l),
(180,499,l),
(180,346,l)
);
}
);
width = 662;
}
);
},
{
glyphname = uni10C80.ltr;
layers = (
{
layerId = "97583185-4D09-4CC5-9049-5210241494EA";
shapes = (
{
closed = 1;
nodes = (
(100,1,l),
(10,1,l),
(10,802,l),
(107,802,l),
(400,562,l),
(400,457,l),
(100,425,l)
);
},
{
closed = 1;
nodes = (
(100,508,l),
(318,528,l),
(100,705,l)
);
}
);
width = 529;
}
);
},
{
glyphname = uni10C81.ltr;
layers = (
{
layerId = "97583185-4D09-4CC5-9049-5210241494EA";
shapes = (
{
closed = 1;
nodes = (
(113,0,l),
(23,0,l),
(23,802,l),
(116,802,l),
(400,526,l),
(400,450,l),
(113,212,l)
);
},
{
closed = 1;
nodes = (
(113,327,l),
(316,489,l),
(113,697,l)
);
}
);
width = 529;
}
);
},
{
glyphname = uni10C82.ltr;
layers = (
{
layerId = "97583185-4D09-4CC5-9049-5210241494EA";
shapes = (
{
closed = 1;
nodes = (
(687,1,l),
(583,1,l),
(348,376,l),
(116,1,l),
(4,1,l),
(287,446,l),
(24,802,l),
(128,802,l),
(345,485,l),
(559,802,l),
(669,802,l),
(405,444,l)
);
}
);
width = 691;
}
);
},
{
glyphname = uni10C83.ltr;
layers = (
{
layerId = "97583185-4D09-4CC5-9049-5210241494EA";
shapes = (
{
closed = 1;
nodes = (
(554,0,o),
(461,0,q),
(426,27,o),
(366,82,o),
(340,110,q),
(340,110,o),
(253,1,q),
(55,89,l),
(87,164,l),
(227,96,l),
(287,176,l),
(249,231,o),
(209,353,o),
(209,404,qs),
(209,447,o),
(249,570,o),
(287,625,q),
(287,625,o),
(227,705,q),
(87,637,l),
(55,713,l),
(253,800,l),
(340,691,l),
(366,720,o),
(426,774,o),
(461,801,q),
(461,801,o),
(555,801,q),
(589,774,o),
(651,718,o),
(677,689,q),
(677,689,o),
(767,800,q),
(963,713,l),
(933,637,l),
(792,705,l),
(730,623,l),
(767,568,o),
(807,447,o),
(807,354,o),
(767,233,o),
(730,179,q),
(730,179,o),
(792,96,q),
(933,164,l),
(963,89,l),
(767,1,l),
(677,112,l),
(651,84,o),
(589,28,o),
(554,0,q)
);
},
{
closed = 1;
nodes = (
(578,132,o),
(669,239,o),
(714,354,o),
(714,447,o),
(669,562,o),
(578,670,o),
(510,730,q),
(510,730,o),
(506,730,q),
(437,670,o),
(347,562,o),
(302,447,o),
(302,354,o),
(347,239,o),
(437,132,o),
(506,72,q),
(506,72,o),
(510,72,q)
);
}
);
width = 1018;
}
);
},
{
glyphname = uni10C84.ltr;
layers = (
{
layerId = "97583185-4D09-4CC5-9049-5210241494EA";
shapes = (
{
closed = 1;
nodes = (
(355,1,l),
(265,1,l),
(265,678,l),
(83,515,l),
(24,579,l),
(273,802,l),
(347,802,l),
(596,579,l),
(537,515,l),
(355,678,l)
);
}
);
width = 620;
}
);
},
{
glyphname = uni10C85.ltr;
layers = (
{
layerId = "97583185-4D09-4CC5-9049-5210241494EA";
shapes = (
{
closed = 1;
nodes = (
(347,1,l),
(273,1,l),
(24,224,l),
(83,288,l),
(265,125,l),
(265,678,l),
(83,515,l),
(31,579,l),
(273,802,l),
(347,802,l),
(589,579,l),
(537,515,l),
(355,678,l),
(355,125,l),
(537,288,l),
(596,224,l)
);
}
);
width = 620;
}
);
},
{
glyphname = uni10C86.ltr;
layers = (
{
layerId = "97583185-4D09-4CC5-9049-5210241494EA";
shapes = (
{
closed = 1;
nodes = (
(708,1,l),
(621,1,l),
(214,260,l),
(214,1,l),
(124,1,l),
(124,801,l),
(211,801,l),
(618,543,l),
(618,801,l),
(708,801,l)
);
},
{
closed = 1;
nodes = (
(618,106,l),
(618,444,l),
(214,701,l),
(214,357,l)
);
}
);
width = 832;
}
);
},
{
glyphname = uni10C87.ltr;
layers = (
{
layerId = "97583185-4D09-4CC5-9049-5210241494EA";
shapes = (
{
closed = 1;
nodes = (
(361,1,l),
(265,1,l),
(265,420,l),
(57,533,l),
(96,607,l),
(265,512,l),
(265,802,l),
(361,802,l),
(361,462,l),
(569,351,l),
(530,279,l),
(361,371,l)
);
}
);
width = 627;
}
);
},
{
glyphname = uni10C88.ltr;
layers = (
{
layerId = "97583185-4D09-4CC5-9049-5210241494EA";
shapes = (
{
closed = 1;
nodes = (
(687,1,l),
(583,1,l),
(348,335,l),
(116,1,l),
(4,1,l),
(277,389,l),
(39,459,l),
(55,529,l),
(243,473,l),
(24,802,l),
(128,802,l),
(345,469,l),
(559,802,l),
(669,802,l),
(417,421,l),
(661,349,l),
(637,282,l),
(446,339,l)
);
}
);
width = 691;
}
);
},
{
glyphname = uni10C89.ltr;
layers = (
{
layerId = "97583185-4D09-4CC5-9049-5210241494EA";
shapes = (
{
closed = 1;
nodes = (
(365,28,o),
(286,85,o),
(254,112,q),
(254,112,o),
(131,6,q),
(82,69,l),
(195,167,l),
(133,232,o),
(81,366,o),
(81,447,o),
(134,582,o),
(197,649,q),
(197,649,o),
(82,749,q),
(131,812,l),
(256,704,l),
(287,731,o),
(362,786,o),
(407,815,q),
(407,815,o),
(468,748,q),
(425,720,o),
(354,668,o),
(325,644,q),
(325,644,o),
(451,536,q),
(396,476,l),
(266,589,l),
(216,536,o),
(175,431,o),
(175,382,o),
(215,276,o),
(262,225,q),
(262,225,o),
(396,341,q),
(451,282,l),
(321,170,l),
(349,146,o),
(420,96,o),
(463,69,q),
(463,69,o),
(412,-2,q)
);
}
);
width = 563;
}
);
},
{
glyphname = uni10C8A.ltr;
layers = (
{
layerId = "97583185-4D09-4CC5-9049-5210241494EA";
shapes = (
{
closed = 1;
nodes = (
(395,23,o),
(323,73,o),
(293,97,q),
(263,73,o),
(191,23,o),
(150,-4,q),
(150,-4,o),
(98,67,q),
(135,91,o),
(200,135,o),
(227,156,q),
(159,224,o),
(102,362,o),
(102,394,qs),
(102,438,o),
(159,575,o),
(225,643,q),
(198,665,o),
(132,712,o),
(93,737,q),
(93,737,o),
(154,804,q),
(236,751,o),
(293,704,q),
(350,751,o),
(432,804,q),
(432,804,o),
(493,737,q),
(454,712,o),
(388,665,o),
(360,642,q),
(427,575,o),
(484,437,o),
(484,394,qs),
(484,362,o),
(426,224,o),
(359,156,q),
(386,135,o),
(450,91,o),
(488,67,q),
(488,67,o),
(436,-4,q)
);
},
{
closed = 1;
nodes = (
(345,268,o),
(390,373,o),
(390,394,qs),
(390,421,o),
(346,528,o),
(293,582,q),
(240,528,o),
(196,421,o),
(196,394,qs),
(196,373,o),
(241,268,o),
(293,215,q)
);
}
);
width = 586;
}
);
},
{
glyphname = uni10C8B.ltr;
layers = (
{
layerId = "97583185-4D09-4CC5-9049-5210241494EA";
shapes = (
{
closed = 1;
nodes = (
(180,30,l),
(287,119,l),
(181,193,o),
(88,336,o),
(88,494,o),
(181,637,o),
(287,710,q),
(287,710,o),
(180,799,q),
(238,867,l),
(430,701,l),
(344,649,o),
(234,558,o),
(182,463,o),
(182,366,o),
(235,271,o),
(344,179,o),
(430,128,q),
(430,128,o),
(238,-39,q)
);
}
);
width = 512;
}
);
},
{
glyphname = uni10C8C.ltr;
layers = (
{
layerId = "97583185-4D09-4CC5-9049-5210241494EA";
shapes = (
{
closed = 1;
nodes = (
(430,0,o),
(337,0,q),
(257,62,o),
(143,190,o),
(81,336,o),
(81,404,qs),
(81,473,o),
(143,619,o),
(257,741,o),
(337,802,q),
(337,802,o),
(431,802,q),
(510,741,o),
(625,619,o),
(687,473,o),
(687,404,qs),
(687,336,o),
(625,190,o),
(510,62,o),
(430,0,q)
);
},
{
closed = 1;
nodes = (
(521,602,l),
(480,654,o),
(386,734,q),
(386,734,o),
(382,734,q),
(338,697,o),
(271,634,o),
(246,600,q),
(246,600,o),
(382,437,q)
);
},
{
closed = 1;
nodes = (
(558,267,l),
(576,303,o),
(594,380,o),
(594,404,qs),
(594,470,o),
(559,540,q),
(559,540,o),
(429,402,q)
);
},
{
closed = 1;
nodes = (
(208,270,o),
(336,402,q),
(208,537,l),
(174,469,o),
(174,404,qs),
(174,339,o),
(208,270,q)
);
},
{
closed = 1;
nodes = (
(427,107,o),
(492,172,o),
(517,203,q),
(517,203,o),
(382,366,q),
(249,206,l),
(274,173,o),
(340,107,o),
(382,72,q),
(382,72,o),
(386,72,q)
);
}
);
width = 769;
}
);
},
{
glyphname = uni10C8D.ltr;
layers = (
{
layerId = "97583185-4D09-4CC5-9049-5210241494EA";
shapes = (
{
closed = 1;
nodes = (
(780,1,l),
(680,1,l),
(468,504,ls),
(465,512,o),
(430,606,qs),
(412,653,o),
(402,695,q),
(402,695,o),
(398,695,q),
(387,653,o),
(370,606,q),
(344,529,o),
(333,506,q),
(333,506,o),
(321,481,q),
(515,1,l),
(421,1,l),
(277,392,l),
(120,1,l),
(21,1,l),
(354,802,l),
(441,802,l)
);
}
);
width = 801;
}
);
},
{
glyphname = uni10C8E.ltr;
layers = (
{
layerId = "97583185-4D09-4CC5-9049-5210241494EA";
shapes = (
{
closed = 1;
nodes = (
(361,1,l),
(265,1,l),
(265,266,l),
(57,378,l),
(96,452,l),
(265,361,l),
(265,515,l),
(57,627,l),
(96,701,l),
(265,610,l),
(265,802,l),
(361,802,l),
(361,558,l),
(569,445,l),
(530,373,l),
(361,464,l),
(361,309,l),
(569,196,l),
(530,124,l),
(361,215,l)
);
}
);
width = 624;
}
);
},
{
glyphname = uni10C8F.ltr;
layers = (
{
layerId = "97583185-4D09-4CC5-9049-5210241494EA";
shapes = (
{
closed = 1;
nodes = (
(646,1,l),
(524,1,l),
(356,161,l),
(187,1,l),
(65,1,l),
(296,215,l),
(51,412,l),
(296,602,l),
(65,802,l),
(187,802,l),
(356,653,l),
(526,802,l),
(646,802,l),
(415,602,l),
(659,412,l),
(415,215,l)
);
},
{
closed = 1;
nodes = (
(356,273,l),
(536,413,l),
(356,549,l),
(176,413,l)
);
}
);
width = 710;
}
);
},
{
glyphname = uni10C90.ltr;
layers = (
{
layerId = "97583185-4D09-4CC5-9049-5210241494EA";
shapes = (
{
closed = 1;
nodes = (
(361,1,l),
(265,1,l),
(265,523,l),
(57,635,l),
(96,709,l),
(265,618,l),
(266,802,l),
(362,802,l),
(361,566,l),
(569,453,l),
(530,381,l),
(361,472,l)
);
}
);
width = 627;
}
);
},
{
glyphname = uni10C91.ltr;
layers = (
{
layerId = "97583185-4D09-4CC5-9049-5210241494EA";
shapes = (
{
closed = 1;
nodes = (
(348,1,l),
(252,1,l),
(252,740,l),
(57,845,l),
(96,919,l),
(569,663,l),
(530,591,l),
(348,689,l)
);
}
);
width = 627;
}
);
},
{
glyphname = uni10C92.ltr;
layers = (
{
layerId = "97583185-4D09-4CC5-9049-5210241494EA";
shapes = (
{
closed = 1;
nodes = (
(120,1,l),
(31,1,l),
(31,802,l),
(107,802,l),
(413,501,l),
(358,441,l),
(120,676,l)
);
}
);
width = 547;
}
);
},
{
glyphname = uni10C93.ltr;
layers = (
{
layerId = "97583185-4D09-4CC5-9049-5210241494EA";
shapes = (
{
closed = 1;
nodes = (
(388,1,l),
(296,1,l),
(56,412,l),
(296,802,l),
(388,802,l),
(629,412,l)
);
},
{
closed = 1;
nodes = (
(342,87,l),
(529,412,l),
(342,717,l),
(157,412,l)
);
}
);
width = 684;
}
);
},
{
glyphname = uni10C94.ltr;
layers = (
{
layerId = "97583185-4D09-4CC5-9049-5210241494EA";
shapes = (
{
closed = 1;
nodes = (
(355,0,l),
(273,0,l),
(24,223,l),
(83,287,l),
(265,123,l),
(265,802,l),
(347,802,l),
(596,580,l),
(537,516,l),
(355,679,l)
);
}
);
width = 613;
}
);
},
{
glyphname = uni10C95.ltr;
layers = (
{
layerId = "97583185-4D09-4CC5-9049-5210241494EA";
shapes = (
{
closed = 1;
nodes = (
(667,0,l),
(454,326,l),
(240,0,l),
(33,100,l),
(66,171,l),
(200,102,l),
(408,399,l),
(206,697,l),
(72,629,l),
(39,699,l),
(246,801,l),
(454,465,l),
(661,801,l),
(869,699,l),
(835,629,l),
(702,697,l),
(499,399,l),
(708,102,l),
(841,171,l),
(875,100,l)
);
}
);
width = 907;
}
);
},
{
glyphname = uni10C96.ltr;
layers = (
{
layerId = "97583185-4D09-4CC5-9049-5210241494EA";
shapes = (
{
closed = 1;
nodes = (
(784,1,l),
(684,1,l),
(470,500,ls),
(464,514,o),
(432,602,qs),
(414,649,o),
(402,689,q),
(402,689,o),
(388,689,q),
(377,650,o),
(341,566,o),
(323,517,q),
(323,517,o),
(560,1,q),
(470,1,l),
(287,411,l),
(220,247,l),
(349,1,l),
(261,1,l),
(187,155,l),
(117,1,l),
(18,1,l),
(356,802,l),
(442,802,l)
);
}
);
width = 801;
}
);
},
{
glyphname = uni10C97.ltr;
layers = (
{
layerId = "97583185-4D09-4CC5-9049-5210241494EA";
shapes = (
{
closed = 1;
nodes = (
(430,1,o),
(337,1,q),
(259,63,o),
(146,191,o),
(85,337,o),
(85,469,o),
(146,615,o),
(259,740,o),
(337,801,q),
(337,801,o),
(431,801,q),
(508,740,o),
(622,615,o),
(683,469,o),
(683,337,o),
(621,191,o),
(508,63,o),
(430,1,q)
);
},
{
closed = 1;
nodes = (
(590,345,o),
(590,405,qs),
(590,451,o),
(545,566,o),
(454,674,o),
(386,734,q),
(386,734,o),
(382,734,q),
(340,697,o),
(274,630,o),
(249,597,q),
(249,597,o),
(560,279,q)
);
},
{
closed = 1;
nodes = (
(427,110,o),
(493,176,o),
(518,210,q),
(518,210,o),
(210,530,q),
(178,465,o),
(178,405,qs),
(178,355,o),
(223,240,o),
(313,133,o),
(382,73,q),
(382,73,o),
(386,73,q)
);
}
);
width = 768;
}
);
},
{
glyphname = uni10C98.ltr;
layers = (
{
layerId = "97583185-4D09-4CC5-9049-5210241494EA";
shapes = (
{
closed = 1;
nodes = (
(167,1,l),
(72,1,l),
(72,802,l),
(167,802,l),
(497,611,l),
(497,523,l),
(281,410,l),
(497,283,l),
(497,196,l)
);
},
{
closed = 1;
nodes = (
(162,446,l),
(413,565,l),
(162,708,l)
);
},
{
closed = 1;
nodes = (
(162,98,l),
(413,244,l),
(162,390,l)
);
}
);
width = 627;
}
);
},
{
glyphname = uni10C99.ltr;
layers = (
{
layerId = "97583185-4D09-4CC5-9049-5210241494EA";
shapes = (
{
closed = 1;
nodes = (
(272,80,o),
(126,218,o),
(62,362,o),
(62,418,qs),
(62,474,o),
(125,618,o),
(269,758,o),
(391,837,q),
(391,837,o),
(452,770,q),
(368,715,o),
(254,621,o),
(186,534,o),
(156,442,o),
(156,418,qs),
(156,375,o),
(212,255,o),
(340,139,o),
(447,71,q),
(447,71,o),
(396,0,q)
);
}
);
width = 538;
}
);
},
{
glyphname = uni10C9A.ltr;
layers = (
{
layerId = "97583185-4D09-4CC5-9049-5210241494EA";
shapes = (
{
closed = 1;
nodes = (
(542,1,l),
(452,1,l),
(364,47,o),
(262,136,qs),
(186,201,o),
(122,344,o),
(122,394,qs),
(122,466,o),
(152,527,qs),
(190,606,o),
(252,664,qs),
(345,752,o),
(452,802,q),
(452,802,o),
(542,802,q)
);
},
{
closed = 1;
nodes = (
(452,102,o),
(452,702,q),
(383,670,o),
(315,598,qs),
(252,530,o),
(236,493,qs),
(216,449,o),
(216,394,qs),
(216,362,o),
(262,252,o),
(317,202,qs),
(389,138,o),
(452,102,q)
);
}
);
width = 633;
}
);
},
{
glyphname = uni10C9B.ltr;
layers = (
{
layerId = "97583185-4D09-4CC5-9049-5210241494EA";
shapes = (
{
closed = 1;
nodes = (
(323,0,l),
(233,69,o),
(114,200,o),
(55,347,o),
(55,400,qs),
(55,458,o),
(77,518,qs),
(106,595,o),
(161,658,qs),
(214,717,o),
(323,806,q),
(323,806,o),
(559,592,q),
(497,531,l),
(325,690,l),
(249,624,o),
(216,582,q),
(182,542,o),
(162,479,qs),
(149,438,o),
(149,400,qs),
(149,372,o),
(182,261,o),
(255,163,o),
(315,111,q),
(315,111,o),
(497,280,q),
(559,219,l)
);
}
);
width = 634;
}
);
},
{
glyphname = uni10C9C.ltr;
layers = (
{
layerId = "97583185-4D09-4CC5-9049-5210241494EA";
shapes = (
{
closed = 1;
nodes = (
(305,-2,l),
(215,70,o),
(96,203,o),
(37,348,o),
(37,435,qs),
(37,499,o),
(89,623,o),
(207,768,o),
(305,851,q),
(305,851,o),
(365,776,q),
(277,702,o),
(177,583,o),
(134,486,o),
(134,435,qs),
(134,343,o),
(209,193,o),
(297,113,q),
(297,113,o),
(457,274,q),
(315,428,l),
(375,491,l),
(579,266,l)
);
}
);
width = 658;
}
);
},
{
glyphname = uni10C9D.ltr;
layers = (
{
layerId = "97583185-4D09-4CC5-9049-5210241494EA";
shapes = (
{
closed = 1;
nodes = (
(146,1,l),
(83,67,l),
(292,307,l),
(71,506,l),
(342,804,l),
(406,738,l),
(189,501,l),
(411,303,l)
);
}
);
width = 482;
}
);
},
{
glyphname = uni10C9E.ltr;
layers = (
{
layerId = "97583185-4D09-4CC5-9049-5210241494EA";
shapes = (
{
closed = 1;
nodes = (
(606,1,l),
(516,1,l),
(516,413,l),
(237,1,l),
(123,1,l),
(412,419,l),
(132,802,l),
(241,802,l),
(516,415,l),
(516,802,l),
(606,802,l)
);
}
);
width = 624;
}
);
},
{
glyphname = uni10C9F.ltr;
layers = (
{
layerId = "97583185-4D09-4CC5-9049-5210241494EA";
shapes = (
{
closed = 1;
nodes = (
(353,1,l),
(297,45,o),
(210,128,o),
(178,170,q),
(178,170,o),
(85,87,q),
(37,142,l),
(137,231,l),
(85,323,o),
(85,436,qs),
(85,455,o),
(109,558,o),
(136,607,q),
(136,607,o),
(40,693,q),
(88,750,l),
(176,671,l),
(207,714,o),
(295,802,o),
(353,851,q),
(353,851,o),
(413,777,q),
(356,729,o),
(274,646,o),
(246,608,q),
(246,608,o),
(300,560,q),
(252,504,l),
(208,543,l),
(179,476,o),
(179,436,qs),
(179,360,o),
(206,294,q),
(206,294,o),
(252,335,q),
(300,279,l),
(243,228,l),
(262,200,o),
(315,145,o),
(347,116,q),
(347,116,o),
(507,275,q),
(362,429,l),
(423,491,l),
(627,268,l),
(622,265,l),
(625,264,l)
);
}
);
width = 724;
}
);
},
{
glyphname = uni10CA0.ltr;
layers = (
{
layerId = "97583185-4D09-4CC5-9049-5210241494EA";
shapes = (
{
closed = 1;
nodes = (
(396,-11,l),
(151,226,l),
(151,0,l),
(61,0,l),
(61,802,l),
(142,802,l),
(451,505,l),
(396,450,l),
(151,688,l),
(151,553,l),
(451,262,l),
(396,207,l),
(151,445,l),
(151,331,l),
(451,44,l)
);
}
);
width = 578;
}
);
},
{
glyphname = uni10CA1.ltr;
layers = (
{
layerId = "97583185-4D09-4CC5-9049-5210241494EA";
shapes = (
{
closed = 1;
nodes = (
(785,-33,l),
(666,100,l),
(641,75,o),
(586,27,o),
(555,2,q),
(555,2,o),
(457,2,q),
(427,27,o),
(378,75,o),
(353,100,q),
(353,100,o),
(228,-33,q),
(164,27,l),
(300,163,l),
(235,249,o),
(216,344,q),
(216,344,o),
(81,262,q),
(39,340,l),
(208,432,l),
(209,472,o),
(225,526,qs),
(241,578,o),
(288,637,q),
(288,637,o),
(285,640,q),
(153,564,l),
(114,643,l),
(457,803,l),
(556,803,l),
(899,643,l),
(860,564,l),
(729,640,l),
(727,628,l),
(773,569,o),
(811,484,o),
(812,432,q),
(812,432,o),
(981,340,q),
(940,262,l),
(805,344,l),
(794,295,o),
(751,205,o),
(720,163,q),
(720,163,o),
(850,27,q)
);
},
{
closed = 1;
nodes = (
(605,151,o),
(715,320,o),
(715,432,qs),
(715,520,o),
(613,671,o),
(507,735,q),
(507,735,o),
(503,735,q),
(396,671,o),
(295,520,o),
(295,432,qs),
(295,320,o),
(404,151,o),
(503,74,q),
(503,74,o),
(507,74,q)
);
}
);
width = 1027;
}
);
},
{
glyphname = uni10CA2.ltr;
layers = (
{
layerId = "97583185-4D09-4CC5-9049-5210241494EA";
shapes = (
{
closed = 1;
nodes = (
(703,1,l),
(613,1,l),
(613,248,l),
(220,505,l),
(220,1,l),
(130,1,l),
(130,802,l),
(220,802,l),
(220,605,l),
(613,343,l),
(613,802,l),
(703,802,l)
);
}
);
width = 832;
}
);
},
{
glyphname = uni10CA3.ltr;
layers = (
{
layerId = "97583185-4D09-4CC5-9049-5210241494EA";
shapes = (
{
closed = 1;
nodes = (
(515,262,l),
(52,535,l),
(94,609,l),
(556,336,l)
);
}
);
width = 613;
}
);
},
{
glyphname = uni10CA4.ltr;
layers = (
{
layerId = "97583185-4D09-4CC5-9049-5210241494EA";
shapes = (
{
closed = 1;
nodes = (
(712,1,l),
(617,1,l),
(426,500,ls),
(422,512,o),
(391,602,qs),
(375,650,o),
(365,690,q),
(365,690,o),
(361,690,q),
(351,650,o),
(335,602,qs),
(306,515,o),
(301,502,q),
(301,502,o),
(108,1,q),
(13,1,l),
(314,802,l),
(405,802,l)
);
}
);
width = 724;
}
);
},
{
glyphname = uni10CA5.ltr;
layers = (
{
layerId = "97583185-4D09-4CC5-9049-5210241494EA";
shapes = (
{
closed = 1;
nodes = (
(214,0,l),
(124,0,l),
(124,801,l),
(214,801,l)
);
}
);
width = 341;
}
);
},
{
glyphname = uni10CA6.ltr;
layers = (
{
layerId = "97583185-4D09-4CC5-9049-5210241494EA";
shapes = (
{
closed = 1;
nodes = (
(100,1,l),
(10,1,l),
(10,802,l),
(100,802,l),
(100,464,l),
(374,828,l),
(446,779,l),
(100,324,l)
);
}
);
width = 567;
}
);
},
{
glyphname = uni10CA7.ltr;
layers = (
{
layerId = "97583185-4D09-4CC5-9049-5210241494EA";
shapes = (
{
closed = 1;
nodes = (
(479,2,l),
(389,2,l),
(389,482,l),
(186,698,l),
(77,585,l),
(20,644,l),
(188,815,l),
(389,599,l),
(389,803,l),
(479,803,l),
(479,600,l),
(679,815,l),
(847,644,l),
(791,585,l),
(682,698,l),
(479,483,l)
);
}
);
width = 866;
}
);
},
{
glyphname = uni10CA8.ltr;
layers = (
{
layerId = "97583185-4D09-4CC5-9049-5210241494EA";
shapes = (
{
closed = 1;
nodes = (
(423,2,l),
(327,2,l),
(223,173,l),
(116,2,l),
(4,2,l),
(287,423,l),
(24,803,l),
(128,803,l),
(345,467,l),
(417,581,l),
(278,804,l),
(374,804,l),
(464,657,l),
(559,804,l),
(669,804,l),
(405,421,l),
(687,2,l),
(583,2,l),
(348,369,l),
(271,250,l)
);
}
);
width = 691;
}
);
},
{
glyphname = uni10CA9.ltr;
layers = (
{
layerId = "97583185-4D09-4CC5-9049-5210241494EA";
shapes = (
{
closed = 1;
nodes = (
(68,-27,l),
(4,38,l),
(268,421,l),
(5,780,l),
(66,835,l),
(352,754,l),
(331,681,l),
(128,741,l),
(319,483,l),
(534,801,l),
(641,801,l),
(377,416,l),
(671,0,l),
(571,0,l),
(323,355,l),
(127,66,l),
(330,125,l),
(355,51,l)
);
}
);
width = 724;
}
);
},
{
glyphname = uni10CAA.ltr;
layers = (
{
layerId = "97583185-4D09-4CC5-9049-5210241494EA";
shapes = (
{
closed = 1;
nodes = (
(750,1,l),
(662,1,l),
(437,176,l),
(212,1,l),
(124,1,l),
(124,801,l),
(212,801,l),
(437,627,l),
(662,801,l),
(750,801,l)
);
},
{
closed = 1;
nodes = (
(660,108,l),
(660,694,l),
(437,526,l),
(214,694,l),
(214,108,l),
(437,276,l)
);
}
);
width = 885;
}
);
},
{
glyphname = uni10CAB.ltr;
layers = (
{
layerId = "97583185-4D09-4CC5-9049-5210241494EA";
shapes = (
{
closed = 1;
nodes = (
(837,0,l),
(755,0,l),
(481,348,l),
(204,0,l),
(122,0,l),
(122,802,l),
(204,802,l),
(481,456,l),
(755,802,l),
(837,802,l)
);
},
{
closed = 1;
nodes = (
(215,146,l),
(431,404,l),
(215,657,l),
(211,657,l),
(211,146,l)
);
},
{
closed = 1;
nodes = (
(748,154,l),
(748,649,l),
(744,649,l),
(533,404,l),
(744,154,l)
);
}
);
width = 953;
}
);
},
{
glyphname = uni10CAC.ltr;
layers = (
{
layerId = "97583185-4D09-4CC5-9049-5210241494EA";
shapes = (
{
closed = 1;
nodes = (
(663,-15,l),
(551,110,l),
(525,82,o),
(465,28,o),
(431,1,q),
(431,1,o),
(338,1,q),
(304,28,o),
(244,82,o),
(218,110,q),
(218,110,o),
(106,-15,q),
(41,45,l),
(166,175,l),
(128,231,o),
(86,353,o),
(86,403,qs),
(86,448,o),
(128,572,o),
(166,627,q),
(166,627,o),
(42,756,q),
(106,817,l),
(218,692,l),
(243,720,o),
(304,775,o),
(338,802,q),
(338,802,o),
(432,802,q),
(466,776,o),
(525,721,o),
(551,692,q),
(551,692,o),
(663,817,q),
(728,756,l),
(604,628,l),
(642,573,o),
(684,449,o),
(684,353,o),
(642,230,o),
(604,175,q),
(604,175,o),
(728,45,q)
);
},
{
closed = 1;
nodes = (
(455,133,o),
(546,240,o),
(591,355,o),
(591,447,o),
(546,562,o),
(455,670,o),
(387,730,q),
(387,730,o),
(383,730,q),
(314,670,o),
(224,562,o),
(179,447,o),
(179,355,o),
(224,240,o),
(314,133,o),
(383,73,q),
(383,73,o),
(387,73,q)
);
}
);
width = 769;
}
);
},
{
glyphname = uni10CAD.ltr;
layers = (
{
layerId = "97583185-4D09-4CC5-9049-5210241494EA";
shapes = (
{
closed = 1;
nodes = (
(220,1,l),
(130,1,l),
(130,607,l),
(220,607,l),
(567,346,l),
(567,802,l),
(657,802,l),
(657,242,l),
(567,242,l),
(220,498,l)
);
}
);
width = 788;
}
);
},
{
glyphname = uni10CAE.ltr;
layers = (
{
layerId = "97583185-4D09-4CC5-9049-5210241494EA";
shapes = (
{
closed = 1;
nodes = (
(750,0,l),
(660,0,l),
(660,695,l),
(437,527,l),
(214,695,l),
(214,0,l),
(124,0,l),
(124,802,l),
(212,802,l),
(437,628,l),
(662,802,l),
(750,802,l)
);
}
);
width = 888;
}
);
},
{
glyphname = uni10CAF.ltr;
layers = (
{
layerId = "97583185-4D09-4CC5-9049-5210241494EA";
shapes = (
{
closed = 1;
nodes = (
(705,1,l),
(618,1,l),
(211,260,l),
(211,1,l),
(121,1,l),
(121,802,l),
(208,802,l),
(615,554,l),
(615,802,l),
(705,802,l)
);
},
{
closed = 1;
nodes = (
(615,323,l),
(615,464,l),
(211,710,l),
(211,578,l)
);
},
{
closed = 1;
nodes = (
(615,95,l),
(615,244,l),
(211,489,l),
(211,349,l)
);
}
);
width = 820;
}
);
},
{
glyphname = uni10CB0.ltr;
layers = (
{
layerId = "97583185-4D09-4CC5-9049-5210241494EA";
shapes = (
{
closed = 1;
nodes = (
(440,1,l),
(350,1,l),
(350,356,l),
(10,779,l),
(84,830,l),
(350,498,l),
(350,802,l),
(440,802,l),
(440,498,l),
(706,830,l),
(780,779,l),
(440,356,l)
);
}
);
width = 796;
}
);
},
{
glyphname = uni10CB1.ltr;
layers = (
{
layerId = "97583185-4D09-4CC5-9049-5210241494EA";
shapes = (
{
closed = 1;
nodes = (
(478,0,l),
(388,0,l),
(186,212,l),
(77,98,l),
(20,158,l),
(188,326,l),
(388,112,l),
(388,266,l),
(186,459,l),
(77,345,l),
(20,404,l),
(188,573,l),
(388,379,l),
(388,493,l),
(186,715,l),
(77,592,l),
(20,651,l),
(188,820,l),
(388,606,l),
(388,801,l),
(478,801,l),
(478,606,l),
(677,820,l),
(845,651,l),
(789,592,l),
(680,705,l),
(478,493,l),
(478,379,l),
(677,573,l),
(845,404,l),
(789,345,l),
(680,459,l),
(478,266,l),
(478,112,l),
(677,326,l),
(845,158,l),
(789,98,l),
(680,212,l)
);
}
);
width = 866;
}
);
},
{
glyphname = uni10CB2.ltr;
layers = (
{
layerId = "97583185-4D09-4CC5-9049-5210241494EA";
shapes = (
{
closed = 1;
nodes = (
(434,2,o),
(335,2,q),
(257,64,o),
(142,192,o),
(78,338,o),
(78,467,o),
(142,613,o),
(257,742,o),
(335,803,q),
(335,803,o),
(434,803,q),
(511,742,o),
(627,613,o),
(691,467,o),
(691,338,o),
(627,192,o),
(511,64,o),
(434,2,q)
);
},
{
closed = 1;
nodes = (
(484,156,o),
(559,255,o),
(596,362,o),
(596,443,o),
(559,550,o),
(484,650,o),
(427,703,q),
(427,703,o),
(427,102,q)
);
},
{
closed = 1;
nodes = (
(342,102,o),
(342,703,q),
(285,650,o),
(210,550,o),
(174,443,o),
(174,362,o),
(210,255,o),
(285,156,o),
(342,102,q)
);
}
);
width = 769;
}
);
},
{
glyphname = uni10CC0.ltr;
layers = (
{
layerId = "97583185-4D09-4CC5-9049-5210241494EA";
shapes = (
{
closed = 1;
nodes = (
(119,0,l),
(32,0,l),
(32,600,l),
(151,600,l),
(349,409,l),
(349,300,l),
(119,289,l)
);
},
{
closed = 1;
nodes = (
(119,366,l),
(273,373,l),
(119,523,l)
);
}
);
width = 444;
}
);
},
{
glyphname = uni10CC1.ltr;
layers = (
{
layerId = "97583185-4D09-4CC5-9049-5210241494EA";
shapes = (
{
closed = 1;
nodes = (
(129,0,l),
(42,0,l),
(42,600,l),
(127,600,l),
(338,414,l),
(338,334,l),
(129,164,l)
);
},
{
closed = 1;
nodes = (
(129,268,l),
(262,375,l),
(129,495,l)
);
}
);
width = 433;
}
);
},
{
glyphname = uni10CC2.ltr;
layers = (
{
layerId = "97583185-4D09-4CC5-9049-5210241494EA";
shapes = (
{
closed = 1;
nodes = (
(528,0,l),
(434,0,l),
(271,253,l),
(111,0,l),
(10,0,l),
(217,313,l),
(25,600,l),
(119,600,l),
(268,371,l),
(417,600,l),
(516,600,l),
(321,311,l)
);
}
);
width = 538;
}
);
},
{
glyphname = uni10CC3.ltr;
layers = (
{
layerId = "97583185-4D09-4CC5-9049-5210241494EA";
shapes = (
{
closed = 1;
nodes = (
(558,-1,l),
(494,74,l),
(456,36,o),
(408,0,q),
(408,0,o),
(339,0,q),
(316,18,o),
(273,54,o),
(254,73,q),
(254,73,o),
(192,-1,q),
(40,65,l),
(68,131,l),
(170,83,l),
(206,130,l),
(179,168,o),
(150,251,o),
(150,300,qs),
(150,349,o),
(179,433,o),
(206,470,q),
(206,470,o),
(170,515,q),
(68,467,l),
(40,535,l),
(192,600,l),
(254,527,l),
(273,546,o),
(316,582,o),
(339,600,q),
(339,600,o),
(408,600,q),
(432,581,o),
(475,545,o),
(495,525,q),
(495,525,o),
(558,600,q),
(711,535,l),
(681,467,l),
(581,515,l),
(543,467,l),
(568,430,o),
(596,347,o),
(596,300,qs),
(596,252,o),
(568,169,o),
(543,132,q),
(543,132,o),
(581,83,q),
(681,131,l),
(711,65,l)
);
},
{
closed = 1;
nodes = (
(422,105,o),
(483,176,o),
(513,252,o),
(513,300,qs),
(513,347,o),
(484,423,o),
(422,495,o),
(374,536,q),
(374,536,o),
(372,536,q),
(301,475,o),
(233,370,o),
(233,300,qs),
(233,230,o),
(300,125,o),
(372,64,q),
(372,64,o),
(374,64,q)
);
}
);
width = 751;
}
);
},
{
glyphname = uni10CC4.ltr;
layers = (
{
layerId = "97583185-4D09-4CC5-9049-5210241494EA";
shapes = (
{
closed = 1;
nodes = (
(267,0,l),
(180,0,l),
(180,488,l),
(53,376,l),
(4,434,l),
(195,600,l),
(252,600,l),
(443,434,l),
(394,376,l),
(267,488,l)
);
}
);
width = 447;
}
);
},
{
glyphname = uni10CC5.ltr;
layers = (
{
layerId = "97583185-4D09-4CC5-9049-5210241494EA";
shapes = (
{
closed = 1;
nodes = (
(252,0,l),
(195,0,l),
(4,166,l),
(53,224,l),
(180,112,l),
(180,488,l),
(53,376,l),
(4,434,l),
(195,600,l),
(252,600,l),
(443,434,l),
(394,376,l),
(267,488,l),
(267,112,l),
(394,224,l),
(443,166,l)
);
}
);
width = 447;
}
);
},
{
glyphname = uni10CC6.ltr;
layers = (
{
layerId = "97583185-4D09-4CC5-9049-5210241494EA";
shapes = (
{
closed = 1;
nodes = (
(520,0,l),
(444,0,l),
(180,170,l),
(180,0,l),
(95,0,l),
(95,600,l),
(171,600,l),
(435,428,l),
(435,600,l),
(520,600,l)
);
},
{
closed = 1;
nodes = (
(435,91,l),
(435,343,l),
(180,510,l),
(180,255,l)
);
}
);
width = 615;
}
);
},
{
glyphname = uni10CC7.ltr;
layers = (
{
layerId = "97583185-4D09-4CC5-9049-5210241494EA";
shapes = (
{
closed = 1;
nodes = (
(262,0,l),
(175,0,l),
(175,290,l),
(26,366,l),
(59,434,l),
(175,374,l),
(175,600,l),
(262,600,l),
(262,328,l),
(411,251,l),
(377,186,l),
(262,245,l)
);
}
);
width = 437;
}
);
},
{
glyphname = uni10CC8.ltr;
layers = (
{
layerId = "97583185-4D09-4CC5-9049-5210241494EA";
shapes = (
{
closed = 1;
nodes = (
(528,0,l),
(434,0,l),
(271,253,l),
(111,0,l),
(10,0,l),
(206,296,l),
(42,343,l),
(57,407,l),
(177,372,l),
(25,600,l),
(119,600,l),
(268,371,l),
(417,600,l),
(516,600,l),
(332,328,l),
(505,278,l),
(482,217,l),
(360,252,l)
);
}
);
width = 538;
}
);
},
{
glyphname = uni10CC9.ltr;
layers = (
{
layerId = "97583185-4D09-4CC5-9049-5210241494EA";
shapes = (
{
closed = 1;
nodes = (
(79,33,l),
(147,95,l),
(96,139,o),
(50,237,o),
(50,300,qs),
(50,362,o),
(94,459,o),
(144,502,q),
(144,502,o),
(79,561,q),
(122,621,l),
(204,546,l),
(258,581,o),
(338,618,q),
(338,618,o),
(383,551,q),
(348,535,o),
(290,504,o),
(266,490,q),
(266,490,o),
(343,420,q),
(295,365,l),
(206,446,l),
(168,414,o),
(139,344,o),
(139,300,qs),
(139,254,o),
(168,181,o),
(206,148,q),
(206,148,o),
(295,229,q),
(343,174,l),
(267,104,l),
(313,76,o),
(379,47,q),
(379,47,o),
(342,-20,q),
(262,16,o),
(207,51,q),
(207,51,o),
(122,-27,q)
);
}
);
width = 411;
}
);
},
{
glyphname = uni10CCA.ltr;
layers = (
{
layerId = "97583185-4D09-4CC5-9049-5210241494EA";
shapes = (
{
closed = 1;
nodes = (
(278,17,o),
(224,50,q),
(170,17,o),
(91,-20,q),
(91,-20,o),
(54,47,q),
(84,61,o),
(135,86,o),
(157,99,q),
(108,142,o),
(65,239,o),
(65,300,qs),
(65,359,o),
(107,455,o),
(154,497,q),
(132,510,o),
(81,537,o),
(50,551,q),
(50,551,o),
(95,618,q),
(170,584,o),
(224,549,q),
(278,584,o),
(353,618,q),
(353,618,o),
(398,551,q),
(367,537,o),
(316,510,o),
(294,497,q),
(340,455,o),
(383,359,o),
(383,300,qs),
(383,239,o),
(340,142,o),
(291,99,q),
(313,86,o),
(364,61,o),
(394,47,q),
(394,47,o),
(357,-20,q)
);
},
{
closed = 1;
nodes = (
(263,180,o),
(294,254,o),
(294,300,qs),
(294,345,o),
(263,416,o),
(224,449,q),
(185,416,o),
(154,345,o),
(154,300,qs),
(154,254,o),
(185,180,o),
(224,146,q)
);
}
);
width = 428;
}
);
},
{
glyphname = uni10CCB.ltr;
layers = (
{
layerId = "97583185-4D09-4CC5-9049-5210241494EA";
shapes = (
{
closed = 1;
nodes = (
(147,-41,l),
(96,20,l),
(176,86,l),
(99,137,o),
(34,238,o),
(34,300,qs),
(34,362,o),
(99,462,o),
(177,514,q),
(177,514,o),
(96,580,q),
(147,639,l),
(309,502,l),
(253,471,l),
(182,428,o),
(120,346,o),
(120,300,qs),
(120,256,o),
(175,178,o),
(239,137,q),
(239,137,o),
(309,97,q)
);
}
);
width = 354;
}
);
},
{
glyphname = uni10CCC.ltr;
layers = (
{
layerId = "97583185-4D09-4CC5-9049-5210241494EA";
shapes = (
{
closed = 1;
nodes = (
(313,0,o),
(244,0,q),
(159,64,o),
(55,206,o),
(55,300,qs),
(55,394,o),
(159,536,o),
(244,600,q),
(244,600,o),
(313,600,q),
(398,536,o),
(501,394,o),
(501,300,qs),
(501,206,o),
(398,64,o),
(313,0,q)
);
},
{
closed = 1;
nodes = (
(366,450,l),
(349,470,o),
(306,513,o),
(279,536,q),
(279,536,o),
(277,536,q),
(250,513,o),
(206,470,o),
(190,449,q),
(190,449,o),
(278,349,q)
);
},
{
closed = 1;
nodes = (
(402,207,l),
(420,249,o),
(420,300,qs),
(420,350,o),
(402,392,q),
(402,392,o),
(322,298,q)
);
},
{
closed = 1;
nodes = (
(154,208,o),
(234,298,q),
(154,391,l),
(136,349,o),
(136,300,qs),
(136,250,o),
(154,208,q)
);
},
{
closed = 1;
nodes = (
(332,108,o),
(364,147,q),
(364,147,o),
(278,247,q),
(192,147,l),
(224,108,o),
(277,64,q),
(277,64,o),
(279,64,q)
);
}
);
width = 556;
}
);
},
{
glyphname = uni10CCD.ltr;
layers = (
{
layerId = "97583185-4D09-4CC5-9049-5210241494EA";
shapes = (
{
closed = 1;
nodes = (
(561,0,l),
(474,0,l),
(327,371,ls),
(310,415,o),
(291,470,o),
(285,496,q),
(285,496,o),
(281,496,q),
(275,471,o),
(255,408,o),
(241,371,q),
(241,371,o),
(225,330,q),
(353,0,l),
(266,0,l),
(183,225,l),
(94,0,l),
(5,0,l),
(248,600,l),
(319,600,l)
);
}
);
width = 565;
}
);
},
{
glyphname = uni10CCE.ltr;
layers = (
{
layerId = "97583185-4D09-4CC5-9049-5210241494EA";
shapes = (
{
closed = 1;
nodes = (
(270,0,l),
(183,0,l),
(183,185,l),
(32,273,l),
(61,336,l),
(183,269,l),
(183,372,l),
(32,459,l),
(61,522,l),
(183,454,l),
(183,600,l),
(270,600,l),
(270,409,l),
(421,324,l),
(386,262,l),
(270,328,l),
(270,223,l),
(421,138,l),
(386,76,l),
(270,141,l)
);
}
);
width = 450;
}
);
},
{
glyphname = uni10CCF.ltr;
layers = (
{
layerId = "97583185-4D09-4CC5-9049-5210241494EA";
shapes = (
{
closed = 1;
nodes = (
(492,0,l),
(384,0,l),
(268,105,l),
(151,0,l),
(44,0,l),
(213,154,l),
(40,311,l),
(212,455,l),
(42,600,l),
(150,600,l),
(268,501,l),
(385,600,l),
(494,600,l),
(323,455,l),
(496,311,l),
(323,154,l)
);
},
{
closed = 1;
nodes = (
(268,205,l),
(381,310,l),
(268,407,l),
(153,310,l)
);
}
);
width = 536;
}
);
},
{
glyphname = uni10CD0.ltr;
layers = (
{
layerId = "97583185-4D09-4CC5-9049-5210241494EA";
shapes = (
{
closed = 1;
nodes = (
(270,0,l),
(183,0,l),
(183,410,l),
(32,494,l),
(61,557,l),
(183,490,l),
(183,600,l),
(270,600,l),
(270,442,l),
(421,359,l),
(386,297,l),
(270,362,l)
);
}
);
width = 452;
}
);
},
{
glyphname = uni10CD1.ltr;
layers = (
{
layerId = "97583185-4D09-4CC5-9049-5210241494EA";
shapes = (
{
closed = 1;
nodes = (
(243,0,l),
(156,0,l),
(156,558,l),
(8,640,l),
(37,703,l),
(421,492,l),
(386,430,l),
(243,509,l)
);
}
);
width = 421;
}
);
},
{
glyphname = uni10CD2.ltr;
layers = (
{
layerId = "97583185-4D09-4CC5-9049-5210241494EA";
shapes = (
{
closed = 1;
nodes = (
(98,0,l),
(11,0,l),
(11,600,l),
(88,600,l),
(312,383,l),
(258,331,l),
(98,485,l)
);
}
);
width = 407;
}
);
},
{
glyphname = uni10CD3.ltr;
layers = (
{
layerId = "97583185-4D09-4CC5-9049-5210241494EA";
shapes = (
{
closed = 1;
nodes = (
(284,0,l),
(208,0,l),
(33,304,l),
(208,600,l),
(284,600,l),
(460,304,l)
);
},
{
closed = 1;
nodes = (
(246,83,l),
(370,303,l),
(246,517,l),
(123,303,l)
);
}
);
width = 493;
}
);
},
{
glyphname = uni10CD4.ltr;
layers = (
{
layerId = "97583185-4D09-4CC5-9049-5210241494EA";
shapes = (
{
closed = 1;
nodes = (
(278,0,l),
(206,0,l),
(15,166,l),
(64,224,l),
(191,112,l),
(191,600,l),
(263,600,l),
(454,434,l),
(405,376,l),
(278,488,l)
);
}
);
width = 469;
}
);
},
{
glyphname = uni10CD5.ltr;
layers = (
{
layerId = "97583185-4D09-4CC5-9049-5210241494EA";
shapes = (
{
closed = 1;
nodes = (
(491,-30,l),
(342,227,l),
(194,-30,l),
(28,46,l),
(59,113,l),
(154,67,l),
(294,301,l),
(159,526,l),
(63,479,l),
(32,547,l),
(199,623,l),
(342,375,l),
(487,624,l),
(652,547,l),
(621,479,l),
(526,526,l),
(390,301,l),
(530,67,l),
(626,113,l),
(657,46,l)
);
}
);
width = 685;
}
);
},
{
glyphname = uni10CD6.ltr;
layers = (
{
layerId = "97583185-4D09-4CC5-9049-5210241494EA";
shapes = (
{
closed = 1;
nodes = (
(607,0,l),
(522,0,l),
(357,371,ls),
(338,414,o),
(315,474,o),
(308,498,q),
(308,498,o),
(304,498,q),
(298,479,o),
(279,428,o),
(268,399,q),
(268,399,o),
(439,0,q),
(355,0,l),
(227,305,l),
(186,212,l),
(273,0,l),
(189,0,l),
(144,117,l),
(93,0,l),
(5,0,l),
(271,600,l),
(342,600,l)
);
}
);
width = 612;
}
);
},
{
glyphname = uni10CD7.ltr;
layers = (
{
layerId = "97583185-4D09-4CC5-9049-5210241494EA";
shapes = (
{
closed = 1;
nodes = (
(313,0,o),
(244,0,q),
(159,64,o),
(55,206,o),
(55,300,qs),
(55,394,o),
(159,536,o),
(244,600,q),
(244,600,o),
(313,600,q),
(398,536,o),
(501,394,o),
(501,300,qs),
(501,206,o),
(398,64,o),
(313,0,q)
);
},
{
closed = 1;
nodes = (
(418,251,o),
(418,300,qs),
(418,347,o),
(389,423,o),
(327,495,o),
(279,536,q),
(279,536,o),
(277,536,q),
(222,488,o),
(190,448,q),
(190,448,o),
(401,208,q)
);
},
{
closed = 1;
nodes = (
(305,86,o),
(347,127,o),
(363,147,q),
(363,147,o),
(155,389,q),
(138,347,o),
(138,300,qs),
(138,230,o),
(205,125,o),
(277,64,q),
(277,64,o),
(279,64,q)
);
}
);
width = 556;
}
);
},
{
glyphname = uni10CD8.ltr;
layers = (
{
layerId = "97583185-4D09-4CC5-9049-5210241494EA";
shapes = (
{
closed = 1;
nodes = (
(127,0,l),
(48,0,l),
(48,600,l),
(131,600,l),
(386,479,l),
(386,380,l),
(244,303,l),
(386,231,l),
(386,132,l)
);
},
{
closed = 1;
nodes = (
(128,320,l),
(313,426,l),
(128,514,l)
);
},
{
closed = 1;
nodes = (
(128,93,l),
(313,185,l),
(128,284,l)
);
}
);
width = 481;
}
);
},
{
glyphname = uni10CD9.ltr;
layers = (
{
layerId = "97583185-4D09-4CC5-9049-5210241494EA";
shapes = (
{
closed = 1;
nodes = (
(218,28,o),
(90,122,o),
(32,230,o),
(32,300,qs),
(32,369,o),
(90,477,o),
(216,570,o),
(320,618,q),
(320,618,o),
(365,551,q),
(269,506,o),
(163,431,o),
(121,352,o),
(121,300,qs),
(121,246,o),
(163,164,o),
(267,89,o),
(361,47,q),
(361,47,o),
(324,-20,q)
);
}
);
width = 420;
}
);
},
{
glyphname = uni10CDA.ltr;
layers = (
{
layerId = "97583185-4D09-4CC5-9049-5210241494EA";
shapes = (
{
closed = 1;
nodes = (
(435,0,l),
(350,0,l),
(258,48,o),
(146,138,o),
(95,239,o),
(95,300,qs),
(95,359,o),
(147,459,o),
(259,552,o),
(350,600,q),
(350,600,o),
(435,600,q)
);
},
{
closed = 1;
nodes = (
(350,87,o),
(350,512,q),
(283,474,o),
(211,407,o),
(182,340,o),
(182,300,qs),
(182,235,o),
(258,137,o),
(350,87,q)
);
}
);
width = 490;
}
);
},
{
glyphname = uni10CDB.ltr;
layers = (
{
layerId = "97583185-4D09-4CC5-9049-5210241494EA";
shapes = (
{
closed = 1;
nodes = (
(239,-22,l),
(135,55,o),
(32,200,o),
(32,295,qs),
(32,355,o),
(72,459,o),
(163,564,o),
(239,624,q),
(239,624,o),
(418,455,q),
(360,397,l),
(238,514,l),
(193,475,o),
(141,406,o),
(119,336,o),
(119,295,qs),
(119,234,o),
(169,134,o),
(231,81,q),
(231,81,o),
(360,204,q),
(418,146,l)
);
}
);
width = 473;
}
);
},
{
glyphname = uni10CDC.ltr;
layers = (
{
layerId = "97583185-4D09-4CC5-9049-5210241494EA";
shapes = (
{
closed = 1;
nodes = (
(239,-21,l),
(132,55,o),
(28,199,o),
(28,293,qs),
(28,353,o),
(69,456,o),
(161,559,o),
(239,618,q),
(239,618,o),
(293,554,q),
(224,502,o),
(146,419,o),
(114,340,o),
(114,293,qs),
(114,232,o),
(165,133,o),
(230,80,q),
(230,80,o),
(339,187,q),
(241,290,l),
(298,348,l),
(452,182,l)
);
}
);
width = 507;
}
);
},
{
glyphname = uni10CDD.ltr;
layers = (
{
layerId = "97583185-4D09-4CC5-9049-5210241494EA";
shapes = (
{
closed = 1;
nodes = (
(107,-18,l),
(50,41,l),
(230,211,l),
(33,394,l),
(266,618,l),
(323,559,l),
(139,390,l),
(337,207,l)
);
}
);
width = 370;
}
);
},
{
glyphname = uni10CDE.ltr;
layers = (
{
layerId = "97583185-4D09-4CC5-9049-5210241494EA";
shapes = (
{
closed = 1;
nodes = (
(474,0,l),
(387,0,l),
(387,300,l),
(197,0,l),
(95,0,l),
(300,307,l),
(102,600,l),
(199,600,l),
(387,308,l),
(387,600,l),
(474,600,l)
);
}
);
width = 492;
}
);
},
{
glyphname = uni10CDF.ltr;
layers = (
{
layerId = "97583185-4D09-4CC5-9049-5210241494EA";
shapes = (
{
closed = 1;
nodes = (
(277,-21,l),
(234,9,o),
(167,67,o),
(142,96,q),
(142,96,o),
(73,38,q),
(28,88,l),
(102,151,l),
(66,216,o),
(66,293,qs),
(66,334,o),
(84,406,o),
(104,441,q),
(104,441,o),
(31,503,q),
(76,552,l),
(143,496,l),
(167,525,o),
(233,585,o),
(277,618,q),
(277,618,o),
(331,554,q),
(248,492,o),
(207,442,q),
(207,442,o),
(250,406,q),
(204,356,l),
(170,385,l),
(160,363,o),
(152,318,o),
(152,293,qs),
(152,247,o),
(167,206,q),
(167,206,o),
(203,236,q),
(249,187,l),
(201,147,l),
(226,114,o),
(268,80,q),
(268,80,o),
(377,187,q),
(279,290,l),
(336,348,l),
(490,182,l)
);
}
);
width = 541;
}
);
},
{
glyphname = uni10CE0.ltr;
layers = (
{
layerId = "97583185-4D09-4CC5-9049-5210241494EA";
shapes = (
{
closed = 1;
nodes = (
(308,-9,l),
(127,144,l),
(127,0,l),
(42,0,l),
(42,600,l),
(117,600,l),
(358,401,l),
(308,348,l),
(127,501,l),
(127,411,l),
(358,223,l),
(308,170,l),
(127,322,l),
(127,232,l),
(358,45,l)
);
}
);
width = 453;
}
);
},
{
glyphname = uni10CE1.ltr;
layers = (
{
layerId = "97583185-4D09-4CC5-9049-5210241494EA";
shapes = (
{
closed = 1;
nodes = (
(576,-17,l),
(491,71,l),
(473,52,o),
(431,17,o),
(408,0,q),
(408,0,o),
(339,0,q),
(316,17,o),
(274,53,o),
(255,71,q),
(255,71,o),
(170,-17,q),
(111,36,l),
(207,127,l),
(190,152,o),
(165,203,o),
(158,231,q),
(158,231,o),
(52,174,q),
(14,241,l),
(150,311,l),
(151,356,o),
(180,432,o),
(206,466,q),
(206,466,o),
(82,406,q),
(47,475,l),
(337,600,l),
(409,600,l),
(699,475,l),
(664,406,l),
(541,465,l),
(566,432,o),
(594,356,o),
(596,311,q),
(596,311,o),
(732,241,q),
(694,174,l),
(588,231,l),
(575,177,o),
(539,127,q),
(539,127,o),
(635,36,q)
);
},
{
closed = 1;
nodes = (
(422,105,o),
(483,176,o),
(513,252,o),
(513,300,qs),
(513,372,o),
(447,481,o),
(374,536,q),
(374,536,o),
(372,536,q),
(301,481,o),
(233,372,o),
(233,300,qs),
(233,230,o),
(300,125,o),
(372,64,q),
(372,64,o),
(374,64,q)
);
}
);
width = 746;
}
);
},
{
glyphname = uni10CE2.ltr;
layers = (
{
layerId = "97583185-4D09-4CC5-9049-5210241494EA";
shapes = (
{
closed = 1;
nodes = (
(532,0,l),
(445,0,l),
(445,175,l),
(182,345,l),
(182,0,l),
(95,0,l),
(95,600,l),
(182,600,l),
(182,434,l),
(445,264,l),
(445,600,l),
(532,600,l)
);
}
);
width = 627;
}
);
},
{
glyphname = uni10CE3.ltr;
layers = (
{
layerId = "97583185-4D09-4CC5-9049-5210241494EA";
shapes = (
{
closed = 1;
nodes = (
(370,177,l),
(27,372,l),
(67,440,l),
(409,245,l)
);
}
);
width = 441;
}
);
},
{
glyphname = uni10CE4.ltr;
layers = (
{
layerId = "97583185-4D09-4CC5-9049-5210241494EA";
shapes = (
{
closed = 1;
nodes = (
(561,0,l),
(474,0,l),
(327,371,ls),
(310,415,o),
(291,470,o),
(285,496,q),
(285,496,o),
(281,496,q),
(275,471,o),
(255,408,o),
(241,371,q),
(241,371,o),
(94,0,q),
(5,0,l),
(248,600,l),
(319,600,l)
);
}
);
width = 566;
}
);
},
{
glyphname = uni10CE5.ltr;
layers = (
{
layerId = "97583185-4D09-4CC5-9049-5210241494EA";
shapes = (
{
closed = 1;
nodes = (
(182,0,l),
(95,0,l),
(95,600,l),
(182,600,l)
);
}
);
width = 277;
}
);
},
{
glyphname = uni10CE6.ltr;
layers = (
{
layerId = "97583185-4D09-4CC5-9049-5210241494EA";
shapes = (
{
closed = 1;
nodes = (
(105,0,l),
(18,0,l),
(18,600,l),
(105,600,l),
(105,371,l),
(307,624,l),
(372,567,l),
(105,241,l)
);
}
);
width = 467;
}
);
},
{
glyphname = uni10CE7.ltr;
layers = (
{
layerId = "97583185-4D09-4CC5-9049-5210241494EA";
shapes = (
{
closed = 1;
nodes = (
(373,0,l),
(288,0,l),
(288,351,l),
(143,508,l),
(66,430,l),
(14,482,l),
(146,611,l),
(288,456,l),
(288,600,l),
(373,600,l),
(373,455,l),
(514,611,l),
(647,482,l),
(594,430,l),
(518,508,l),
(373,350,l)
);
}
);
width = 661;
}
);
},
{
glyphname = uni10CE8.ltr;
layers = (
{
layerId = "97583185-4D09-4CC5-9049-5210241494EA";
shapes = (
{
closed = 1;
nodes = (
(528,0,l),
(434,0,l),
(271,253,l),
(223,177,l),
(335,0,l),
(248,0,l),
(180,109,l),
(111,0,l),
(10,0,l),
(217,313,l),
(25,600,l),
(119,600,l),
(268,371,l),
(313,440,l),
(211,600,l),
(299,600,l),
(356,507,l),
(417,600,l),
(516,600,l),
(321,311,l)
);
}
);
width = 538;
}
);
},
{
glyphname = uni10CE9.ltr;
layers = (
{
layerId = "97583185-4D09-4CC5-9049-5210241494EA";
shapes = (
{
closed = 1;
nodes = (
(79,-24,l),
(10,22,l),
(202,313,l),
(21,584,l),
(82,625,l),
(280,567,l),
(260,499,l),
(143,535,l),
(253,371,l),
(402,600,l),
(501,600,l),
(306,311,l),
(513,0,l),
(419,0,l),
(256,253,l),
(135,63,l),
(260,102,l),
(282,34,l)
);
}
);
width = 517;
}
);
},
{
glyphname = uni10CEA.ltr;
layers = (
{
layerId = "97583185-4D09-4CC5-9049-5210241494EA";
shapes = (
{
closed = 1;
nodes = (
(567,0,l),
(490,0,l),
(331,114,l),
(174,0,l),
(95,0,l),
(95,600,l),
(174,600,l),
(331,486,l),
(490,600,l),
(567,600,l)
);
},
{
closed = 1;
nodes = (
(482,100,l),
(482,499,l),
(331,394,l),
(180,499,l),
(180,100,l),
(331,206,l)
);
}
);
width = 662;
}
);
},
{
glyphname = uni10CEB.ltr;
layers = (
{
layerId = "97583185-4D09-4CC5-9049-5210241494EA";
shapes = (
{
closed = 1;
nodes = (
(615,0,l),
(537,0,l),
(354,243,l),
(168,0,l),
(95,0,l),
(95,600,l),
(168,600,l),
(354,355,l),
(537,600,l),
(615,600,l)
);
},
{
closed = 1;
nodes = (
(173,126,l),
(307,300,l),
(173,472,l),
(170,472,l),
(170,126,l)
);
},
{
closed = 1;
nodes = (
(535,131,l),
(535,467,l),
(532,467,l),
(401,300,l),
(532,131,l)
);
}
);
width = 710;
}
);
},
{
glyphname = uni10CEC.ltr;
layers = (
{
layerId = "97583185-4D09-4CC5-9049-5210241494EA";
shapes = (
{
closed = 1;
nodes = (
(492,-15,l),
(413,71,l),
(376,35,o),
(330,0,q),
(330,0,o),
(261,0,q),
(238,17,o),
(196,53,o),
(177,71,q),
(177,71,o),
(97,-15,q),
(38,38,l),
(128,129,l),
(102,167,o),
(72,251,o),
(72,300,qs),
(72,349,o),
(102,433,o),
(128,471,q),
(128,471,o),
(38,560,q),
(97,613,l),
(177,528,l),
(214,564,o),
(261,600,q),
(261,600,o),
(330,600,q),
(378,564,o),
(413,528,q),
(413,528,o),
(492,613,q),
(551,560,l),
(462,471,l),
(489,434,o),
(518,349,o),
(518,300,qs),
(518,251,o),
(489,167,o),
(462,129,q),
(462,129,o),
(551,38,q)
);
},
{
closed = 1;
nodes = (
(344,105,o),
(405,176,o),
(435,252,o),
(435,300,qs),
(435,347,o),
(406,423,o),
(344,495,o),
(296,536,q),
(296,536,o),
(294,536,q),
(223,475,o),
(155,370,o),
(155,300,qs),
(155,230,o),
(222,125,o),
(294,64,q),
(294,64,o),
(296,64,q)
);
}
);
width = 589;
}
);
},
{
glyphname = uni10CED.ltr;
layers = (
{
layerId = "97583185-4D09-4CC5-9049-5210241494EA";
shapes = (
{
closed = 1;
nodes = (
(173,0,l),
(86,0,l),
(86,457,l),
(171,457,l),
(404,272,l),
(404,600,l),
(491,600,l),
(491,169,l),
(407,169,l),
(173,354,l)
);
}
);
width = 577;
}
);
},
{
glyphname = uni10CEE.ltr;
layers = (
{
layerId = "97583185-4D09-4CC5-9049-5210241494EA";
shapes = (
{
closed = 1;
nodes = (
(567,0,l),
(482,0,l),
(482,499,l),
(331,394,l),
(180,499,l),
(180,0,l),
(95,0,l),
(95,600,l),
(174,600,l),
(331,486,l),
(490,600,l),
(567,600,l)
);
}
);
width = 662;
}
);
},
{
glyphname = uni10CEF.ltr;
layers = (
{
layerId = "97583185-4D09-4CC5-9049-5210241494EA";
shapes = (
{
closed = 1;
nodes = (
(520,0,l),
(435,0,l),
(180,173,l),
(180,0,l),
(95,0,l),
(95,600,l),
(180,600,l),
(435,427,l),
(435,600,l),
(520,600,l)
);
},
{
closed = 1;
nodes = (
(435,254,l),
(435,346,l),
(180,519,l),
(180,427,l)
);
},
{
closed = 1;
nodes = (
(435,81,l),
(435,173,l),
(180,346,l),
(180,254,l)
);
}
);
width = 615;
}
);
},
{
glyphname = uni10CF0.ltr;
layers = (
{
layerId = "97583185-4D09-4CC5-9049-5210241494EA";
shapes = (
{
closed = 1;
nodes = (
(355,0,l),
(268,0,l),
(268,261,l),
(12,570,l),
(80,617,l),
(268,386,l),
(268,600,l),
(355,600,l),
(355,386,l),
(541,617,l),
(610,570,l),
(355,261,l)
);
}
);
width = 622;
}
);
},
{
glyphname = uni10CF1.ltr;
layers = (
{
layerId = "97583185-4D09-4CC5-9049-5210241494EA";
shapes = (
{
closed = 1;
nodes = (
(396,0,l),
(311,0,l),
(166,152,l),
(77,85,l),
(30,140,l),
(169,246,l),
(311,98,l),
(311,192,l),
(166,336,l),
(77,268,l),
(30,324,l),
(169,429,l),
(311,285,l),
(311,375,l),
(166,519,l),
(77,452,l),
(30,507,l),
(169,613,l),
(311,469,l),
(311,600,l),
(396,600,l),
(396,469,l),
(537,613,l),
(676,507,l),
(629,452,l),
(540,519,l),
(396,375,l),
(396,285,l),
(537,429,l),
(676,324,l),
(629,268,l),
(540,336,l),
(396,192,l),
(396,98,l),
(537,246,l),
(676,140,l),
(629,85,l),
(540,152,l)
);
}
);
width = 706;
}
);
},
{
glyphname = uni10CF2.ltr;
layers = (
{
layerId = "97583185-4D09-4CC5-9049-5210241494EA";
shapes = (
{
closed = 1;
nodes = (
(313,0,o),
(244,0,q),
(159,64,o),
(55,206,o),
(55,300,qs),
(55,394,o),
(159,536,o),
(244,600,q),
(244,600,o),
(313,600,q),
(398,536,o),
(501,394,o),
(501,300,qs),
(501,206,o),
(398,64,o),
(313,0,q)
);
},
{
closed = 1;
nodes = (
(368,146,o),
(418,239,o),
(418,300,qs),
(418,360,o),
(369,454,o),
(316,503,q),
(316,503,o),
(316,97,q)
);
},
{
closed = 1;
nodes = (
(239,98,o),
(239,502,q),
(187,453,o),
(138,360,o),
(138,300,qs),
(138,239,o),
(187,147,o),
(239,98,q)
);
}
);
width = 556;
}
);
},
{
glyphname = u10C82_10C80_BA;
layers = (
{
layerId = "97583185-4D09-4CC5-9049-5210241494EA";
shapes = (
{
closed = 1;
nodes = (
(118,1,l),
(325,417,l),
(270,506,l),
(98,330,l),
(30,405,l),
(109,802,l),
(229,802,l),
(378,497,l),
(527,802,l),
(621,802,l),
(429,419,l),
(636,1,l),
(535,1,l),
(375,339,l),
(212,1,l)
);
},
{
closed = 1;
nodes = (
(121,458,l),
(229,586,l),
(173,717,l)
);
}
);
width = 646;
}
);
},
{
glyphname = u10C86_10C80_CSA;
layers = (
{
layerId = "97583185-4D09-4CC5-9049-5210241494EA";
shapes = (
{
closed = 1;
nodes = (
(262,2,l),
(262,387,l),
(32,402,l),
(32,539,l),
(236,802,l),
(347,802,l),
(347,573,l),
(611,802,l),
(687,802,l),
(687,2,l),
(602,2,l),
(602,229,l),
(338,2,l)
);
},
{
closed = 1;
nodes = (
(262,490,l),
(262,697,l),
(108,499,l)
);
},
{
closed = 1;
nodes = (
(347,117,l),
(602,336,l),
(602,676,l),
(347,453,l)
);
}
);
width = 782;
}
);
},
{
glyphname = u10C8D_10C80_GA;
layers = (
{
layerId = "97583185-4D09-4CC5-9049-5210241494EA";
shapes = (
{
closed = 1;
nodes = (
(95,1,l),
(218,407,l),
(22,519,l),
(35,646,l),
(304,801,l),
(408,801,l),
(651,1,l),
(562,1,l),
(473,302,l),
(390,1,l),
(303,1,l),
(431,442,l),
(415,497,ls),
(401,546,o),
(381,630,o),
(375,663,q),
(371,663,l),
(365,628,o),
(356,592,qs),
(346,556,o),
(329,497,qs),
(182,1,l)
);
},
{
closed = 1;
nodes = (
(245,498,l),
(302,686,l),
(103,581,l)
);
}
);
width = 655;
}
);
},
{
glyphname = u10C8F_10C80_HA;
layers = (
{
layerId = "97583185-4D09-4CC5-9049-5210241494EA";
shapes = (
{
closed = 1;
nodes = (
(134,1,l),
(313,206,l),
(168,366,l),
(325,559,l),
(275,619,l),
(85,486,l),
(20,554,l),
(87,802,l),
(231,802,l),
(379,629,l),
(497,802,l),
(605,802,l),
(431,565,l),
(589,390,l),
(424,204,l),
(592,1,l),
(485,1,l),
(367,145,l),
(242,1,l)
);
},
{
closed = 1;
nodes = (
(371,272,l),
(476,389,l),
(380,495,l),
(282,370,l)
);
},
{
closed = 1;
nodes = (
(96,585,l),
(230,673,l),
(148,771,l)
);
}
);
width = 645;
}
);
},
{
glyphname = u10C96_10C80_LA;
layers = (
{
layerId = "97583185-4D09-4CC5-9049-5210241494EA";
shapes = (
{
closed = 1;
nodes = (
(93,1,l),
(219,382,l),
(24,558,l),
(65,675,l),
(323,802,l),
(429,802,l),
(695,1,l),
(607,1,l),
(556,158,l),
(511,1,l),
(427,1,l),
(514,285,l),
(473,409,l),
(345,1,l),
(261,1,l),
(432,534,l),
(421,573,o),
(402,639,o),
(396,666,q),
(392,666,l),
(384,634,o),
(373,594,qs),
(364,561,o),
(343,497,qs),
(178,1,l)
);
},
{
closed = 1;
nodes = (
(250,474,l),
(321,690,l),
(120,590,l)
);
}
);
width = 700;
}
);
},
{
glyphname = u10C99_10C80_NA;
layers = (
{
layerId = "97583185-4D09-4CC5-9049-5210241494EA";
shapes = (
{
closed = 1;
nodes = (
(119,64,l),
(189,107,o),
(282,181,o),
(337,260,o),
(359,348,o),
(359,401,qs),
(359,434,o),
(351,492,o),
(340,519,q),
(117,340,l),
(43,403,l),
(102,801,l),
(160,825,l),
(238,777,o),
(347,684,o),
(416,584,o),
(448,471,o),
(448,401,qs),
(448,332,o),
(416,216,o),
(346,116,o),
(235,23,o),
(156,-25,q)
);
},
{
closed = 1;
nodes = (
(134,468,l),
(289,600,l),
(267,624,o),
(208,673,o),
(169,700,q)
);
}
);
width = 503;
}
);
},
{
glyphname = u10CE2_10C80_RA;
layers = (
{
layerId = "97583185-4D09-4CC5-9049-5210241494EA";
shapes = (
{
closed = 1;
nodes = (
(262,1,l),
(262,418,l),
(32,429,l),
(32,547,l),
(230,802,l),
(349,802,l),
(349,354,l),
(612,581,l),
(612,802,l),
(699,802,l),
(699,1,l),
(612,1,l),
(612,462,l),
(349,235,l),
(349,1,l)
);
},
{
closed = 1;
nodes = (
(262,503,l),
(262,699,l),
(108,499,l)
);
}
);
width = 794;
}
);
},
{
glyphname = u10CA4_10C80_SA;
layers = (
{
layerId = "97583185-4D09-4CC5-9049-5210241494EA";
shapes = (
{
closed = 1;
nodes = (
(106,1,l),
(227,401,l),
(22,518,l),
(35,645,l),
(304,802,l),
(419,802,l),
(662,1,l),
(573,1,l),
(426,496,ls),
(416,528,o),
(402,587,qs),
(392,629,o),
(386,662,q),
(382,662,l),
(376,628,o),
(366,591,qs),
(353,539,o),
(340,496,qs),
(193,1,l)
);
},
{
closed = 1;
nodes = (
(254,492,l),
(315,692,l),
(103,580,l)
);
}
);
width = 666;
}
);
},
{
glyphname = u10CA8_10C80_TYA;
layers = (
{
layerId = "97583185-4D09-4CC5-9049-5210241494EA";
shapes = (
{
closed = 1;
nodes = (
(120,1,l),
(327,417,l),
(301,467,l),
(98,330,l),
(30,405,l),
(109,802,l),
(231,802,l),
(292,678,l),
(349,802,l),
(437,802,l),
(335,589,l),
(380,497,l),
(529,802,l),
(623,802,l),
(431,419,l),
(638,1,l),
(537,1,l),
(468,147,l),
(400,1,l),
(313,1,l),
(425,238,l),
(377,339,l),
(214,1,l)
);
},
{
closed = 1;
nodes = (
(121,458,l),
(261,547,l),
(174,719,l)
);
}
);
width = 648;
}
);
},
{
glyphname = u10CAE_10C80_VA;
layers = (
{
layerId = "97583185-4D09-4CC5-9049-5210241494EA";
shapes = (
{
closed = 1;
nodes = (
(262,1,l),
(262,387,l),
(32,402,l),
(32,547,l),
(230,802,l),
(339,802,l),
(498,650,l),
(655,802,l),
(734,802,l),
(734,1,l),
(649,1,l),
(649,667,l),
(498,527,l),
(347,667,l),
(347,1,l)
);
},
{
closed = 1;
nodes = (
(262,490,l),
(262,699,l),
(108,499,l)
);
}
);
width = 829;
}
);
},
{
glyphname = u10CAF_10C80_ZA;
layers = (
{
layerId = "97583185-4D09-4CC5-9049-5210241494EA";
shapes = (
{
closed = 1;
nodes = (
(262,1,l),
(262,406,l),
(32,402,l),
(32,547,l),
(230,802,l),
(347,802,l),
(347,571,l),
(602,802,l),
(687,802,l),
(687,1,l),
(602,1,l),
(602,233,l),
(347,1,l)
);
},
{
closed = 1;
nodes = (
(262,503,l),
(262,699,l),
(108,499,l)
);
},
{
closed = 1;
nodes = (
(347,110,l),
(602,341,l),
(602,463,l),
(347,233,l)
);
},
{
closed = 1;
nodes = (
(347,341,l),
(602,571,l),
(602,694,l),
(347,463,l)
);
}
);
width = 782;
}
);
},
{
glyphname = u10C82_10C80_BA.ltr;
layers = (
{
layerId = "97583185-4D09-4CC5-9049-5210241494EA";
shapes = (
{
closed = 1;
nodes = (
(10,1,l),
(217,419,l),
(25,802,l),
(119,802,l),
(268,497,l),
(417,802,l),
(537,802,l),
(616,405,l),
(548,330,l),
(346,466,l),
(321,417,l),
(528,1,l),
(434,1,l),
(271,339,l),
(111,1,l)
);
},
{
closed = 1;
nodes = (
(525,458,l),
(473,717,l),
(387,546,l)
);
}
);
width = 646;
}
);
},
{
glyphname = u10C86_10C80_CSA.ltr;
layers = (
{
layerId = "97583185-4D09-4CC5-9049-5210241494EA";
shapes = (
{
closed = 1;
nodes = (
(95,0,l),
(95,801,l),
(171,801,l),
(435,572,l),
(435,801,l),
(546,801,l),
(750,538,l),
(750,401,l),
(520,386,l),
(520,0,l),
(444,0,l),
(180,227,l),
(180,0,l)
);
},
{
closed = 1;
nodes = (
(435,121,l),
(435,458,l),
(180,681,l),
(180,340,l)
);
},
{
closed = 1;
nodes = (
(520,489,l),
(674,498,l),
(520,696,l)
);
}
);
width = 782;
}
);
},
{
glyphname = u10C8D_10C80_GA.ltr;
layers = (
{
layerId = "97583185-4D09-4CC5-9049-5210241494EA";
shapes = (
{
closed = 1;
nodes = (
(4,1,l),
(247,802,l),
(351,802,l),
(620,645,l),
(633,518,l),
(437,406,l),
(560,1,l),
(473,1,l),
(326,496,ls),
(310,549,o),
(300,591,q),
(290,628,o),
(284,662,q),
(280,662,l),
(274,629,o),
(264,587,qs),
(253,540,o),
(240,496,qs),
(224,441,l),
(352,1,l),
(265,1,l),
(182,301,l),
(93,1,l)
);
},
{
closed = 1;
nodes = (
(410,497,l),
(552,580,l),
(353,685,l)
);
}
);
width = 655;
}
);
},
{
glyphname = u10C8F_10C80_HA.ltr;
layers = (
{
layerId = "97583185-4D09-4CC5-9049-5210241494EA";
shapes = (
{
closed = 1;
nodes = (
(53,1,l),
(221,204,l),
(56,391,l),
(214,565,l),
(40,802,l),
(148,802,l),
(266,629,l),
(414,802,l),
(558,802,l),
(625,554,l),
(560,486,l),
(370,619,l),
(320,559,l),
(477,367,l),
(332,206,l),
(511,1,l),
(403,1,l),
(278,145,l),
(160,1,l)
);
},
{
closed = 1;
nodes = (
(274,273,l),
(363,371,l),
(265,495,l),
(169,390,l)
);
},
{
closed = 1;
nodes = (
(549,585,l),
(497,771,l),
(415,673,l)
);
}
);
width = 645;
}
);
},
{
glyphname = u10C96_10C80_LA.ltr;
layers = (
{
layerId = "97583185-4D09-4CC5-9049-5210241494EA";
shapes = (
{
closed = 1;
nodes = (
(5,2,l),
(271,802,l),
(377,802,l),
(635,675,l),
(676,558,l),
(481,382,l),
(607,2,l),
(522,2,l),
(357,497,ls),
(336,561,o),
(327,594,qs),
(316,634,o),
(308,666,q),
(304,666,l),
(298,639,o),
(279,573,o),
(268,534,q),
(439,2,l),
(355,2,l),
(227,409,l),
(186,285,l),
(273,2,l),
(189,2,l),
(144,158,l),
(93,2,l)
);
},
{
closed = 1;
nodes = (
(450,474,l),
(580,590,l),
(379,690,l)
);
}
);
width = 700;
}
);
},
{
glyphname = u10C99_10C80_NA.ltr;
layers = (
{
layerId = "97583185-4D09-4CC5-9049-5210241494EA";
shapes = (
{
closed = 1;
nodes = (
(347,-25,l),
(268,23,o),
(157,116,o),
(87,216,o),
(55,332,o),
(55,401,qs),
(55,471,o),
(87,584,o),
(156,684,o),
(265,777,o),
(343,825,q),
(401,801,l),
(460,403,l),
(386,340,l),
(163,519,l),
(152,492,o),
(144,435,o),
(144,401,qs),
(144,348,o),
(166,260,o),
(221,181,o),
(314,107,o),
(384,64,q)
);
},
{
closed = 1;
nodes = (
(369,468,l),
(334,700,l),
(295,673,o),
(236,624,o),
(214,600,q)
);
}
);
width = 503;
}
);
},
{
glyphname = u10CA2_10C80_RA.ltr;
layers = (
{
layerId = "97583185-4D09-4CC5-9049-5210241494EA";
shapes = (
{
closed = 1;
nodes = (
(95,1,l),
(95,802,l),
(182,802,l),
(182,581,l),
(445,354,l),
(445,802,l),
(564,802,l),
(762,547,l),
(762,429,l),
(532,420,l),
(532,1,l),
(445,1,l),
(445,235,l),
(182,462,l),
(182,1,l)
);
},
{
closed = 1;
nodes = (
(532,499,l),
(686,499,l),
(532,699,l)
);
}
);
width = 794;
}
);
},
{
glyphname = u10CA4_10C80_SA.ltr;
layers = (
{
layerId = "97583185-4D09-4CC5-9049-5210241494EA";
shapes = (
{
closed = 1;
nodes = (
(4,1,l),
(247,802,l),
(362,802,l),
(631,646,l),
(644,519,l),
(439,402,l),
(560,1,l),
(473,1,l),
(326,497,ls),
(319,519,o),
(300,592,qs),
(290,629,o),
(284,663,q),
(280,663,l),
(274,630,o),
(264,588,qs),
(251,535,o),
(240,497,qs),
(93,1,l)
);
},
{
closed = 1;
nodes = (
(412,493,l),
(563,581,l),
(351,693,l)
);
}
);
width = 666;
}
);
},
{
glyphname = u10CA8_10C80_TYA.ltr;
layers = (
{
layerId = "97583185-4D09-4CC5-9049-5210241494EA";
shapes = (
{
closed = 1;
nodes = (
(10,1,l),
(217,419,l),
(25,802,l),
(119,802,l),
(268,497,l),
(313,589,l),
(211,802,l),
(299,802,l),
(356,678,l),
(417,802,l),
(539,802,l),
(618,405,l),
(550,330,l),
(347,467,l),
(321,417,l),
(528,1,l),
(434,1,l),
(271,339,l),
(223,238,l),
(335,1,l),
(248,1,l),
(180,147,l),
(111,1,l)
);
},
{
closed = 1;
nodes = (
(527,458,l),
(474,719,l),
(387,547,l)
);
}
);
width = 648;
}
);
},
{
glyphname = u10CAE_10C80_VA.ltr;
layers = (
{
layerId = "97583185-4D09-4CC5-9049-5210241494EA";
shapes = (
{
closed = 1;
nodes = (
(95,1,l),
(95,802,l),
(174,802,l),
(331,650,l),
(490,802,l),
(599,802,l),
(797,547,l),
(797,402,l),
(567,387,l),
(567,1,l),
(482,1,l),
(482,667,l),
(331,527,l),
(180,667,l),
(180,1,l)
);
},
{
closed = 1;
nodes = (
(567,490,l),
(721,499,l),
(567,699,l)
);
}
);
width = 829;
}
);
},
{
glyphname = u10CAF_10C80_ZA.ltr;
layers = (
{
layerId = "97583185-4D09-4CC5-9049-5210241494EA";
shapes = (
{
closed = 1;
nodes = (
(457,1,l),
(372,1,l),
(117,232,l),
(117,1,l),
(32,1,l),
(32,801,l),
(117,801,l),
(372,570,l),
(372,801,l),
(489,801,l),
(687,546,l),
(687,401,l),
(457,405,l)
);
},
{
closed = 1;
nodes = (
(457,502,l),
(611,498,l),
(457,698,l)
);
},
{
closed = 1;
nodes = (
(372,109,l),
(372,232,l),
(117,462,l),
(117,340,l)
);
},
{
closed = 1;
nodes = (
(372,340,l),
(372,462,l),
(117,693,l),
(117,570,l)
);
}
);
width = 782;
}
);
},
{
glyphname = u10CAE_10C80_10CA2_VAR;
layers = (
{
layerId = "97583185-4D09-4CC5-9049-5210241494EA";
shapes = (
{
closed = 1;
nodes = (
(95,1,l),
(95,803,l),
(182,803,l),
(182,206,l),
(482,345,l),
(482,345,o),
(478,470,q),
(232,471,l),
(232,602,l),
(450,803,l),
(559,803,l),
(718,651,l),
(875,803,l),
(954,803,l),
(954,1,l),
(869,1,l),
(869,668,l),
(718,528,l),
(567,668,l),
(567,1,l),
(482,1,l),
(482,239,l),
(182,96,l),
(182,1,l)
);
},
{
closed = 1;
nodes = (
(482,558,l),
(482,700,l),
(308,554,l)
);
}
);
width = 1049;
}
);
},
{
glyphname = u10CAE_10C80_10CA2_VAR.ltr;
layers = (
{
layerId = "97583185-4D09-4CC5-9049-5210241494EA";
shapes = (
{
closed = 1;
nodes = (
(95,2,l),
(95,802,l),
(174,802,l),
(331,650,l),
(490,802,l),
(599,802,l),
(817,601,l),
(817,457,l),
(563,455,l),
(567,338,l),
(567,338,o),
(867,207,q),
(867,802,l),
(954,802,l),
(954,2,l),
(867,2,l),
(867,97,l),
(567,233,l),
(567,2,l),
(482,2,l),
(482,667,l),
(331,527,l),
(180,667,l),
(180,2,l)
);
},
{
closed = 1;
nodes = (
(567,557,l),
(741,553,l),
(567,699,l)
);
}
);
width = 1049;
}
);
},
{
glyphname = u10C96_10C81_LAA;
layers = (
{
layerId = "97583185-4D09-4CC5-9049-5210241494EA";
shapes = (
{
closed = 1;
nodes = (
(181,0,l),
(93,-1,l),
(193,302,l),
(34,572,l),
(65,672,l),
(323,801,l),
(429,801,l),
(695,-1,l),
(607,-1,l),
(561,139,l),
(521,-1,l),
(437,-1,l),
(519,266,l),
(483,375,l),
(365,-1,l),
(281,-1,l),
(442,500,l),
(427,547,o),
(404,632,o),
(396,663,q),
(392,663,l),
(378,607,o),
(373,591,qs),
(345,502,o),
(343,494,qs)
);
},
{
closed = 1;
nodes = (
(231,416,l),
(321,686,l),
(131,587,l)
);
}
);
width = 700;
}
);
},
{
glyphname = u10C96_10C81_LAA.ltr;
layers = (
{
layerId = "97583185-4D09-4CC5-9049-5210241494EA";
shapes = (
{
closed = 1;
nodes = (
(519,0,l),
(357,496,ls),
(334,567,o),
(327,593,qs),
(316,633,o),
(308,665,q),
(304,665,l),
(296,634,o),
(273,549,o),
(258,502,q),
(419,1,l),
(335,1,l),
(217,377,l),
(181,268,l),
(263,1,l),
(179,1,l),
(139,141,l),
(93,1,l),
(5,1,l),
(271,802,l),
(377,802,l),
(635,674,l),
(666,574,l),
(507,304,l),
(607,1,l)
);
},
{
closed = 1;
nodes = (
(469,418,l),
(569,589,l),
(379,688,l)
);
}
);
width = 700;
}
);
},
{
glyphname = u10CAE_10C81_10CA2_VAAR;
layers = (
{
layerId = "97583185-4D09-4CC5-9049-5210241494EA";
shapes = (
{
closed = 1;
nodes = (
(567,658,l),
(567,1,l),
(482,1,l),
(482,257,l),
(182,96,l),
(182,1,l),
(95,1,l),
(95,803,l),
(182,803,l),
(182,206,l),
(469,361,l),
(232,482,l),
(232,600,l),
(450,803,l),
(559,803,l),
(718,649,l),
(875,803,l),
(954,803,l),
(954,1,l),
(869,1,l),
(869,666,l),
(718,526,l)
);
},
{
closed = 1;
nodes = (
(482,462,l),
(482,698,l),
(308,552,l)
);
}
);
width = 1049;
}
);
},
{
glyphname = u10CAE_10C81_10CA2_VAAR.ltr;
layers = (
{
layerId = "97583185-4D09-4CC5-9049-5210241494EA";
shapes = (
{
closed = 1;
nodes = (
(482,0,l),
(482,668,l),
(331,528,l),
(180,668,l),
(180,1,l),
(95,1,l),
(95,802,l),
(174,802,l),
(331,650,l),
(490,802,l),
(599,802,l),
(817,601,l),
(817,484,l),
(580,363,l),
(867,208,l),
(867,802,l),
(954,802,l),
(954,1,l),
(867,1,l),
(867,97,l),
(567,259,l),
(567,1,l)
);
},
{
closed = 1;
nodes = (
(567,464,l),
(741,553,l),
(567,700,l)
);
}
);
width = 1049;
}
);
},
{
glyphname = u10C80_10C82_AB;
layers = (
{
layerId = "97583185-4D09-4CC5-9049-5210241494EA";
shapes = (
{
closed = 1;
nodes = (
(10,1,l),
(217,419,l),
(25,802,l),
(119,802,l),
(268,497,l),
(417,802,l),
(537,802,l),
(616,405,l),
(548,330,l),
(346,466,l),
(321,417,l),
(528,1,l),
(434,1,l),
(271,339,l),
(111,1,l)
);
},
{
closed = 1;
nodes = (
(525,458,l),
(473,717,l),
(387,546,l)
);
}
);
width = 646;
}
);
},
{
glyphname = u10C80_10C82_AB.ltr;
layers = (
{
layerId = "97583185-4D09-4CC5-9049-5210241494EA";
shapes = (
{
closed = 1;
nodes = (
(118,1,l),
(325,417,l),
(300,466,l),
(98,330,l),
(30,405,l),
(109,802,l),
(229,802,l),
(378,497,l),
(527,802,l),
(621,802,l),
(429,419,l),
(636,1,l),
(535,1,l),
(375,339,l),
(212,1,l)
);
},
{
closed = 1;
nodes = (
(121,458,l),
(259,546,l),
(173,717,l)
);
}
);
width = 646;
}
);
},
{
glyphname = u10C99_10C84_NC;
layers = (
{
layerId = "97583185-4D09-4CC5-9049-5210241494EA";
shapes = (
{
closed = 1;
nodes = (
(52,55,l),
(122,98,o),
(215,172,o),
(270,251,o),
(292,339,o),
(292,392,qs),
(292,435,o),
(277,507,o),
(242,572,o),
(184,636,o),
(141,669,q),
(187,456,l),
(112,440,l),
(50,747,l),
(80,811,l),
(309,889,l),
(333,793,l),
(184,751,l),
(237,713,o),
(311,635,o),
(359,548,o),
(381,451,o),
(381,392,qs),
(381,323,o),
(349,207,o),
(279,107,o),
(168,14,o),
(89,-34,q)
);
}
);
width = 446;
}
);
},
{
glyphname = u10C99_10C84_NC.ltr;
layers = (
{
layerId = "97583185-4D09-4CC5-9049-5210241494EA";
shapes = (
{
closed = 1;
nodes = (
(357,-34,l),
(278,14,o),
(167,107,o),
(97,207,o),
(65,323,o),
(65,392,qs),
(65,451,o),
(87,548,o),
(135,635,o),
(210,713,o),
(262,751,q),
(113,793,l),
(137,889,l),
(366,811,l),
(396,747,l),
(334,440,l),
(259,456,l),
(305,669,l),
(262,636,o),
(204,572,o),
(169,507,o),
(154,435,o),
(154,392,qs),
(154,339,o),
(176,251,o),
(231,172,o),
(324,98,o),
(394,55,q)
);
}
);
width = 446;
}
);
},
{
glyphname = u10C80_10C87_AD;
layers = (
{
layerId = "97583185-4D09-4CC5-9049-5210241494EA";
shapes = (
{
closed = 1;
nodes = (
(178,2,l),
(178,251,l),
(30,363,l),
(70,454,l),
(178,371,l),
(178,802,l),
(297,802,l),
(495,547,l),
(495,429,l),
(265,311,l),
(265,306,l),
(412,194,l),
(373,103,l),
(265,185,l),
(265,2,l)
);
},
{
closed = 1;
nodes = (
(265,423,l),
(419,499,l),
(265,699,l)
);
}
);
width = 537;
}
);
},
{
glyphname = u10C99_10C87_ND;
layers = (
{
layerId = "97583185-4D09-4CC5-9049-5210241494EA";
shapes = (
{
closed = 1;
nodes = (
(54,64,l),
(118,103,o),
(206,172,o),
(262,244,o),
(290,321,o),
(293,367,q),
(153,316,l),
(133,408,l),
(290,463,l),
(284,501,o),
(253,568,o),
(196,632,o),
(110,699,o),
(50,736,q),
(95,825,l),
(159,785,o),
(255,709,o),
(324,629,o),
(366,543,o),
(375,493,q),
(509,540,l),
(523,449,l),
(383,399,l),
(383,329,o),
(350,215,o),
(280,115,o),
(170,23,o),
(91,-25,q)
);
}
);
width = 548;
}
);
},
{
glyphname = u10C80_10C87_AD.ltr;
layers = (
{
layerId = "97583185-4D09-4CC5-9049-5210241494EA";
shapes = (
{
closed = 1;
nodes = (
(272,1,l),
(272,185,l),
(164,103,l),
(125,194,l),
(272,306,l),
(272,311,l),
(42,429,l),
(42,547,l),
(240,802,l),
(359,802,l),
(359,371,l),
(467,454,l),
(507,363,l),
(359,251,l),
(359,1,l)
);
},
{
closed = 1;
nodes = (
(272,423,l),
(272,699,l),
(118,499,l)
);
}
);
width = 537;
}
);
},
{
glyphname = u10C99_10C87_ND.ltr;
layers = (
{
layerId = "97583185-4D09-4CC5-9049-5210241494EA";
shapes = (
{
closed = 1;
nodes = (
(457,-25,l),
(378,23,o),
(268,115,o),
(198,215,o),
(165,329,o),
(165,399,q),
(25,449,l),
(39,540,l),
(173,493,l),
(182,543,o),
(224,629,o),
(293,709,o),
(389,785,o),
(453,825,q),
(498,736,l),
(438,699,o),
(352,632,o),
(295,568,o),
(264,501,o),
(258,463,q),
(415,408,l),
(395,316,l),
(255,367,l),
(258,321,o),
(286,244,o),
(342,172,o),
(430,103,o),
(494,64,q)
);
}
);
width = 548;
}
);
},
{
glyphname = u10C82_10C89_BE;
layers = (
{
layerId = "97583185-4D09-4CC5-9049-5210241494EA";
shapes = (
{
closed = 1;
nodes = (
(301,-36,l),
(215,68,l),
(182,0,l),
(88,0,l),
(157,139,l),
(80,232,l),
(128,305,l),
(198,220,l),
(295,415,l),
(209,585,l),
(128,488,l),
(80,561,l),
(168,668,l),
(100,801,l),
(199,801,l),
(228,741,l),
(301,829,l),
(344,749,l),
(269,658,l),
(348,496,l),
(497,801,l),
(591,801,l),
(399,417,l),
(606,0,l),
(505,0,l),
(345,337,l),
(255,152,l),
(344,44,l)
);
}
);
width = 616;
}
);
},
{
glyphname = u10C8D_10C89_GE;
layers = (
{
layerId = "97583185-4D09-4CC5-9049-5210241494EA";
shapes = (
{
closed = 1;
nodes = (
(212,-90,l),
(147,18,l),
(126,3,o),
(81,-21,o),
(55,-32,q),
(25,56,l),
(45,66,o),
(83,86,o),
(100,98,q),
(47,187,l),
(105,247,l),
(162,151,l),
(228,224,o),
(260,340,qs),
(277,403,o),
(291,537,o),
(288,607,q),
(202,552,l),
(165,636,l),
(278,708,l),
(275,732,o),
(265,777,o),
(259,800,q),
(346,800,l),
(361,761,l),
(449,817,l),
(480,729,l),
(393,673,l),
(643,0,l),
(550,0,l),
(479,199,l),
(408,0,l),
(321,0,l),
(436,322,l),
(384,467,ls),
(379,480,o),
(368,515,o),
(362,535,q),
(364,479,o),
(351,363,o),
(334,302,qs),
(294,160,o),
(210,72,q),
(266,-22,l)
);
}
);
width = 647;
}
);
},
{
glyphname = u10C8F_10C89_HE;
layers = (
{
layerId = "97583185-4D09-4CC5-9049-5210241494EA";
shapes = (
{
closed = 1;
nodes = (
(221,-25,l),
(166,35,l),
(138,1,l),
(30,1,l),
(108,97,l),
(44,167,l),
(92,240,l),
(161,161,l),
(209,220,l),
(46,416,l),
(209,594,l),
(166,644,l),
(92,561,l),
(44,634,l),
(111,706,l),
(28,801,l),
(137,801,l),
(167,768,l),
(221,826,l),
(271,762,l),
(220,705,l),
(264,656,l),
(392,801,l),
(500,801,l),
(320,594,l),
(482,416,l),
(319,220,l),
(498,1,l),
(391,1,l),
(264,155,l),
(218,99,l),
(271,39,l)
);
},
{
closed = 1;
nodes = (
(264,288,l),
(369,414,l),
(264,530,l),
(161,414,l)
);
}
);
width = 528;
}
);
},
{
glyphname = u10C96_10C89_LE;
layers = (
{
layerId = "97583185-4D09-4CC5-9049-5210241494EA";
shapes = (
{
closed = 1;
nodes = (
(212,-69,l),
(156,24,l),
(134,8,o),
(88,-20,o),
(62,-30,q),
(32,58,l),
(52,67,o),
(91,90,o),
(108,103,q),
(57,188,l),
(115,248,l),
(168,160,l),
(230,231,o),
(267,342,qs),
(287,402,o),
(316,536,o),
(319,606,q),
(232,554,l),
(195,638,l),
(316,710,l),
(314,734,o),
(306,779,o),
(299,802,q),
(386,802,l),
(404,762,l),
(499,819,l),
(530,731,l),
(441,678,l),
(744,2,l),
(642,2,l),
(583,132,l),
(538,2,l),
(453,2,l),
(538,231,l),
(499,319,l),
(381,2,l),
(294,2,l),
(452,422,l),
(431,468,ls),
(420,492,o),
(400,544,o),
(392,570,q),
(390,511,o),
(367,380,o),
(341,303,qs),
(295,168,o),
(217,80,q),
(266,-1,l)
);
}
);
width = 748;
}
);
},
{
glyphname = u10CA2_10C89_RE;
layers = (
{
layerId = "97583185-4D09-4CC5-9049-5210241494EA";
shapes = (
{
closed = 1;
nodes = (
(311,-34,l),
(226,70,l),
(171,23,o),
(91,-25,q),
(54,65,l),
(120,103,o),
(166,141,q),
(90,234,l),
(138,307,l),
(227,199,l),
(265,243,o),
(294,341,o),
(294,402,qs),
(294,462,o),
(265,554,o),
(227,597,q),
(138,489,l),
(90,562,l),
(167,655,l),
(143,674,o),
(85,714,o),
(50,737,q),
(95,826,l),
(175,777,o),
(229,730,q),
(311,830,l),
(354,750,l),
(289,671,l),
(334,619,o),
(378,505,o),
(382,435,q),
(551,581,l),
(551,802,l),
(638,802,l),
(638,2,l),
(551,2,l),
(551,462,l),
(375,310,l),
(357,210,o),
(286,129,q),
(354,46,l)
);
}
);
width = 733;
}
);
},
{
glyphname = u10CA4_10C89_SE;
layers = (
{
layerId = "97583185-4D09-4CC5-9049-5210241494EA";
shapes = (
{
closed = 1;
nodes = (
(212,-80,l),
(147,18,l),
(126,3,o),
(81,-21,o),
(55,-32,q),
(25,56,l),
(45,66,o),
(83,86,o),
(100,98,q),
(47,187,l),
(105,247,l),
(162,151,l),
(228,224,o),
(260,340,qs),
(277,403,o),
(291,537,o),
(288,607,q),
(202,552,l),
(165,636,l),
(278,708,l),
(275,732,o),
(265,777,o),
(259,800,q),
(346,800,l),
(360,760,l),
(449,817,l),
(480,729,l),
(390,672,l),
(623,0,l),
(530,0,l),
(384,433,ls),
(378,450,o),
(374,470,q),
(368,491,o),
(362,515,q),
(362,464,o),
(350,358,o),
(334,302,qs),
(294,160,o),
(210,72,q),
(266,-22,l)
);
}
);
width = 627;
}
);
},
{
glyphname = u10C82_10C89_BE.ltr;
layers = (
{
layerId = "97583185-4D09-4CC5-9049-5210241494EA";
shapes = (
{
closed = 1;
nodes = (
(315,-34,l),
(272,46,l),
(361,154,l),
(271,339,l),
(111,2,l),
(10,2,l),
(217,419,l),
(25,803,l),
(119,803,l),
(268,498,l),
(347,660,l),
(272,751,l),
(315,831,l),
(388,743,l),
(417,803,l),
(516,803,l),
(448,670,l),
(536,563,l),
(488,490,l),
(407,587,l),
(321,417,l),
(418,222,l),
(488,307,l),
(536,234,l),
(459,141,l),
(528,2,l),
(434,2,l),
(401,70,l)
);
}
);
width = 616;
}
);
},
{
glyphname = u10C8D_10C89_GE.ltr;
layers = (
{
layerId = "97583185-4D09-4CC5-9049-5210241494EA";
shapes = (
{
closed = 1;
nodes = (
(435,-89,l),
(381,-21,l),
(437,73,l),
(353,161,o),
(313,303,qs),
(296,364,o),
(283,480,o),
(285,536,q),
(279,516,o),
(268,481,o),
(263,468,qs),
(211,323,l),
(326,1,l),
(239,1,l),
(168,200,l),
(97,1,l),
(4,1,l),
(254,674,l),
(167,730,l),
(198,818,l),
(286,762,l),
(301,801,l),
(388,801,l),
(382,778,o),
(372,733,o),
(369,709,q),
(482,637,l),
(445,553,l),
(359,608,l),
(356,538,o),
(370,404,o),
(387,341,qs),
(419,225,o),
(485,152,q),
(542,248,l),
(600,188,l),
(547,99,l),
(564,87,o),
(602,67,o),
(622,57,q),
(592,-31,l),
(566,-20,o),
(521,4,o),
(500,19,q)
);
}
);
width = 647;
}
);
},
{
glyphname = u10C8F_10C89_HE.ltr;
layers = (
{
layerId = "97583185-4D09-4CC5-9049-5210241494EA";
shapes = (
{
closed = 1;
nodes = (
(307,-25,l),
(257,39,l),
(310,99,l),
(264,155,l),
(137,1,l),
(30,1,l),
(209,220,l),
(46,416,l),
(208,594,l),
(28,801,l),
(136,801,l),
(264,656,l),
(308,705,l),
(257,762,l),
(307,826,l),
(361,768,l),
(391,801,l),
(500,801,l),
(417,706,l),
(484,634,l),
(436,561,l),
(362,644,l),
(319,594,l),
(482,416,l),
(319,220,l),
(367,161,l),
(436,240,l),
(484,167,l),
(420,97,l),
(498,1,l),
(390,1,l),
(362,35,l)
);
},
{
closed = 1;
nodes = (
(264,288,l),
(367,414,l),
(264,530,l),
(159,414,l)
);
}
);
width = 528;
}
);
},
{
glyphname = u10C8F_10C89_LE.ltr;
layers = (
{
layerId = "97583185-4D09-4CC5-9049-5210241494EA";
shapes = (
{
closed = 1;
nodes = (
(536,-69,l),
(482,-1,l),
(531,80,l),
(453,168,o),
(407,303,qs),
(381,380,o),
(358,511,o),
(356,570,q),
(348,544,o),
(328,492,o),
(317,468,qs),
(296,422,l),
(454,2,l),
(367,2,l),
(249,319,l),
(210,231,l),
(295,2,l),
(210,2,l),
(165,132,l),
(106,2,l),
(4,2,l),
(307,678,l),
(218,731,l),
(249,819,l),
(344,762,l),
(362,802,l),
(449,802,l),
(442,779,o),
(434,734,o),
(432,710,q),
(553,638,l),
(516,554,l),
(429,606,l),
(432,536,o),
(461,402,o),
(481,342,qs),
(518,231,o),
(580,160,q),
(633,248,l),
(691,188,l),
(640,103,l),
(657,90,o),
(696,67,o),
(716,58,q),
(686,-30,l),
(660,-20,o),
(614,8,o),
(592,24,q)
);
}
);
width = 748;
}
);
},
{
glyphname = u10CA2_10C89_RE.ltr;
layers = (
{
layerId = "97583185-4D09-4CC5-9049-5210241494EA";
shapes = (
{
closed = 1;
nodes = (
(422,-34,l),
(379,46,l),
(447,129,l),
(376,210,o),
(358,310,q),
(182,462,l),
(182,2,l),
(95,2,l),
(95,804,l),
(182,804,l),
(182,581,l),
(351,435,l),
(355,505,o),
(399,619,o),
(444,671,q),
(379,750,l),
(422,830,l),
(504,730,l),
(558,777,o),
(638,826,q),
(683,737,l),
(648,714,o),
(590,674,o),
(566,655,q),
(643,562,l),
(595,489,l),
(506,597,l),
(468,554,o),
(439,462,o),
(439,402,qs),
(439,341,o),
(468,243,o),
(506,199,q),
(595,307,l),
(643,234,l),
(567,141,l),
(613,103,o),
(679,65,q),
(642,-25,l),
(562,23,o),
(507,70,q)
);
}
);
width = 733;
}
);
},
{
glyphname = u10CA4_10C89_SE.ltr;
layers = (
{
layerId = "97583185-4D09-4CC5-9049-5210241494EA";
shapes = (
{
closed = 1;
nodes = (
(415,-89,l),
(361,-21,l),
(417,73,l),
(333,161,o),
(293,303,qs),
(277,359,o),
(265,465,o),
(265,516,q),
(259,492,o),
(248,449,o),
(243,434,qs),
(97,1,l),
(4,1,l),
(237,673,l),
(147,730,l),
(178,818,l),
(267,761,l),
(281,801,l),
(368,801,l),
(362,778,o),
(352,733,o),
(349,709,q),
(462,637,l),
(425,553,l),
(339,608,l),
(336,538,o),
(350,404,o),
(367,341,qs),
(399,225,o),
(465,152,q),
(522,248,l),
(580,188,l),
(527,99,l),
(544,87,o),
(582,67,o),
(602,57,q),
(572,-31,l),
(546,-20,o),
(501,4,o),
(480,19,q)
);
}
);
width = 627;
}
);
},
{
glyphname = u10C99_10C8E_NGY;
layers = (
{
layerId = "97583185-4D09-4CC5-9049-5210241494EA";
shapes = (
{
closed = 1;
nodes = (
(54,64,l),
(103,93,o),
(177,147,o),
(231,200,o),
(267,256,o),
(277,285,q),
(149,239,l),
(129,331,l),
(294,388,l),
(294,401,ls),
(294,424,o),
(291,463,o),
(286,481,q),
(139,428,l),
(119,520,l),
(250,567,l),
(223,608,o),
(126,688,o),
(50,736,q),
(95,825,l),
(187,768,o),
(306,660,o),
(339,597,q),
(495,652,l),
(509,561,l),
(371,512,l),
(382,468,o),
(383,420,q),
(505,463,l),
(519,372,l),
(377,321,l),
(369,268,o),
(328,177,o),
(258,93,o),
(158,15,o),
(91,-25,q)
);
}
);
width = 554;
}
);
},
{
glyphname = u10C99_10C8E_NGY.ltr;
layers = (
{
layerId = "97583185-4D09-4CC5-9049-5210241494EA";
shapes = (
{
closed = 1;
nodes = (
(463,-25,l),
(396,15,o),
(296,93,o),
(226,177,o),
(185,268,o),
(177,321,q),
(35,372,l),
(49,463,l),
(171,420,l),
(173,468,o),
(183,512,q),
(45,561,l),
(59,652,l),
(215,597,l),
(248,660,o),
(367,768,o),
(459,825,q),
(504,736,l),
(428,688,o),
(331,608,o),
(304,567,q),
(435,520,l),
(415,428,l),
(268,481,l),
(263,463,o),
(260,424,o),
(260,401,qs),
(260,388,l),
(425,331,l),
(405,239,l),
(277,285,l),
(298,225,o),
(403,123,o),
(500,64,q)
);
}
);
width = 554;
}
);
},
{
glyphname = u10C82_10C90_BI;
layers = (
{
layerId = "97583185-4D09-4CC5-9049-5210241494EA";
shapes = (
{
closed = 1;
nodes = (
(88,2,l),
(295,416,l),
(209,587,l),
(128,490,l),
(80,563,l),
(168,670,l),
(100,803,l),
(199,803,l),
(228,743,l),
(301,831,l),
(344,751,l),
(269,661,l),
(348,498,l),
(497,803,l),
(591,803,l),
(399,419,l),
(606,2,l),
(505,2,l),
(345,339,l),
(182,2,l)
);
}
);
width = 616;
}
);
},
{
glyphname = u10C8D_10C90_GI;
layers = (
{
layerId = "97583185-4D09-4CC5-9049-5210241494EA";
shapes = (
{
closed = 1;
nodes = (
(65,1,l),
(157,304,l),
(75,280,l),
(62,369,l),
(188,406,l),
(307,801,l),
(378,801,l),
(621,1,l),
(532,1,l),
(443,301,l),
(360,1,l),
(273,1,l),
(401,441,l),
(385,496,ls),
(371,545,o),
(351,629,o),
(345,662,q),
(341,662,l),
(335,628,o),
(316,554,o),
(299,496,qs),
(281,434,l),
(338,452,l),
(350,361,l),
(250,332,l),
(152,1,l)
);
}
);
width = 625;
}
);
},
{
glyphname = u10C8F_10C90_HI;
layers = (
{
layerId = "97583185-4D09-4CC5-9049-5210241494EA";
shapes = (
{
closed = 1;
nodes = (
(42,2,l),
(221,221,l),
(58,417,l),
(221,596,l),
(178,645,l),
(104,563,l),
(56,636,l),
(123,708,l),
(40,803,l),
(149,803,l),
(179,769,l),
(233,828,l),
(283,764,l),
(232,707,l),
(276,657,l),
(404,803,l),
(512,803,l),
(332,596,l),
(494,417,l),
(331,221,l),
(510,2,l),
(403,2,l),
(276,155,l),
(150,2,l)
);
},
{
closed = 1;
nodes = (
(276,289,l),
(381,416,l),
(276,532,l),
(173,416,l)
);
}
);
width = 552;
}
);
},
{
glyphname = u10C99_10C90_NI;
layers = (
{
layerId = "97583185-4D09-4CC5-9049-5210241494EA";
shapes = (
{
closed = 1;
nodes = (
(54,59,l),
(124,102,o),
(217,176,o),
(272,255,o),
(294,343,o),
(294,396,qs),
(294,464,o),
(255,565,o),
(204,616,q),
(119,485,l),
(65,548,l),
(143,668,l),
(123,683,o),
(76,713,o),
(50,731,q),
(95,820,l),
(124,801,o),
(174,768,o),
(196,751,q),
(268,861,l),
(323,796,l),
(258,697,l),
(324,633,o),
(383,489,o),
(383,396,qs),
(383,327,o),
(351,211,o),
(281,111,o),
(170,18,o),
(91,-30,q)
);
}
);
width = 448;
}
);
},
{
glyphname = u10CA2_10C90_RI;
layers = (
{
layerId = "97583185-4D09-4CC5-9049-5210241494EA";
shapes = (
{
closed = 1;
nodes = (
(140,1,l),
(140,575,l),
(44,539,l),
(27,627,l),
(140,668,l),
(140,802,l),
(227,802,l),
(227,700,l),
(313,732,l),
(328,644,l),
(227,607,l),
(227,352,l),
(490,579,l),
(490,802,l),
(577,802,l),
(577,1,l),
(490,1,l),
(490,460,l),
(227,233,l),
(227,1,l)
);
}
);
width = 672;
}
);
},
{
glyphname = u10CA4_10C90_SI;
layers = (
{
layerId = "97583185-4D09-4CC5-9049-5210241494EA";
shapes = (
{
closed = 1;
nodes = (
(22,0,l),
(202,596,l),
(57,557,l),
(45,644,l),
(231,692,l),
(264,802,l),
(335,802,l),
(578,0,l),
(489,0,l),
(342,495,ls),
(331,532,o),
(318,586,qs),
(308,628,o),
(302,661,q),
(298,661,l),
(292,627,o),
(282,590,qs),
(273,554,o),
(256,495,qs),
(109,0,l)
);
}
);
width = 582;
}
);
},
{
glyphname = u10CA6_10C90_TI;
layers = (
{
layerId = "97583185-4D09-4CC5-9049-5210241494EA";
shapes = (
{
closed = 1;
nodes = (
(178,1,l),
(178,567,l),
(60,494,l),
(30,581,l),
(178,673,l),
(178,803,l),
(259,803,l),
(261,716,l),
(261,716,o),
(376,797,q),
(406,710,l),
(265,617,l),
(265,445,l),
(540,831,l),
(602,759,l),
(265,290,l),
(265,1,l)
);
}
);
width = 600;
}
);
},
{
glyphname = u10C82_10C90_BI.ltr;
layers = (
{
layerId = "97583185-4D09-4CC5-9049-5210241494EA";
shapes = (
{
closed = 1;
nodes = (
(10,1,l),
(217,415,l),
(25,801,l),
(119,801,l),
(268,496,l),
(347,659,l),
(272,749,l),
(315,829,l),
(388,741,l),
(417,801,l),
(516,801,l),
(448,668,l),
(536,561,l),
(488,488,l),
(407,585,l),
(321,412,l),
(528,1,l),
(434,1,l),
(271,335,l),
(111,1,l)
);
}
);
width = 616;
}
);
},
{
glyphname = u10C8D_10C90_GI.ltr;
layers = (
{
layerId = "97583185-4D09-4CC5-9049-5210241494EA";
shapes = (
{
closed = 1;
nodes = (
(4,0,l),
(247,802,l),
(318,802,l),
(437,405,l),
(563,368,l),
(550,279,l),
(468,303,l),
(560,0,l),
(473,0,l),
(375,331,l),
(275,360,l),
(287,451,l),
(344,433,l),
(326,495,ls),
(311,546,o),
(300,590,qs),
(290,627,o),
(284,661,q),
(280,661,l),
(274,628,o),
(264,586,qs),
(254,544,o),
(240,495,qs),
(224,440,l),
(352,0,l),
(265,0,l),
(182,300,l),
(93,0,l)
);
}
);
width = 625;
}
);
},
{
glyphname = u10C8F_10C90_HI.ltr;
layers = (
{
layerId = "97583185-4D09-4CC5-9049-5210241494EA";
shapes = (
{
closed = 1;
nodes = (
(42,2,l),
(221,221,l),
(58,416,l),
(220,594,l),
(40,801,l),
(148,801,l),
(276,655,l),
(320,705,l),
(269,762,l),
(319,826,l),
(373,767,l),
(403,801,l),
(512,801,l),
(429,706,l),
(496,634,l),
(448,561,l),
(374,643,l),
(331,594,l),
(494,416,l),
(331,221,l),
(510,2,l),
(402,2,l),
(276,155,l),
(149,2,l)
);
},
{
closed = 1;
nodes = (
(276,289,l),
(379,415,l),
(276,530,l),
(171,415,l)
);
}
);
width = 552;
}
);
},
{
glyphname = u10C99_10C90_NI.ltr;
layers = (
{
layerId = "97583185-4D09-4CC5-9049-5210241494EA";
shapes = (
{
closed = 1;
nodes = (
(357,-30,l),
(278,18,o),
(167,111,o),
(97,211,o),
(65,327,o),
(65,396,qs),
(65,489,o),
(124,633,o),
(190,697,q),
(125,796,l),
(180,861,l),
(252,751,l),
(274,768,o),
(324,801,o),
(353,820,q),
(398,731,l),
(372,713,o),
(325,683,o),
(305,668,q),
(383,548,l),
(329,485,l),
(244,616,l),
(193,565,o),
(154,464,o),
(154,396,qs),
(154,343,o),
(176,255,o),
(231,176,o),
(324,102,o),
(394,59,q)
);
}
);
width = 448;
}
);
},
{
glyphname = u10CA2_10C90_RI.ltr;
layers = (
{
layerId = "97583185-4D09-4CC5-9049-5210241494EA";
shapes = (
{
closed = 1;
nodes = (
(95,1,l),
(95,802,l),
(182,802,l),
(182,581,l),
(445,354,l),
(445,609,l),
(344,646,l),
(359,734,l),
(445,702,l),
(445,802,l),
(532,802,l),
(532,670,l),
(645,629,l),
(628,541,l),
(532,577,l),
(532,1,l),
(445,1,l),
(445,235,l),
(182,462,l),
(182,1,l)
);
}
);
width = 672;
}
);
},
{
glyphname = u10CA4_10C90_SI.ltr;
layers = (
{
layerId = "97583185-4D09-4CC5-9049-5210241494EA";
shapes = (
{
closed = 1;
nodes = (
(4,1,l),
(247,802,l),
(318,802,l),
(351,693,l),
(537,645,l),
(525,558,l),
(380,597,l),
(560,1,l),
(473,1,l),
(326,496,ls),
(306,565,o),
(300,591,qs),
(290,628,o),
(284,662,q),
(280,662,l),
(274,629,o),
(264,587,qs),
(251,533,o),
(240,496,qs),
(93,1,l)
);
}
);
width = 582;
}
);
},
{
glyphname = u10CA6_10C90_TI.ltr;
layers = (
{
layerId = "97583185-4D09-4CC5-9049-5210241494EA";
shapes = (
{
closed = 1;
nodes = (
(454,2,l),
(367,2,l),
(367,290,l),
(30,759,l),
(92,831,l),
(367,445,l),
(367,617,l),
(226,710,l),
(256,797,l),
(371,716,l),
(371,716,o),
(373,803,q),
(454,803,l),
(454,673,l),
(602,581,l),
(572,494,l),
(454,567,l)
);
}
);
width = 600;
}
);
},
{
glyphname = u10C86_10C92_10C99_CSJN;
layers = (
{
layerId = "97583185-4D09-4CC5-9049-5210241494EA";
shapes = (
{
closed = 1;
nodes = (
(36,65,l),
(106,108,o),
(199,182,o),
(254,261,o),
(276,349,o),
(276,402,qs),
(276,454,o),
(253,538,o),
(198,616,o),
(104,692,o),
(32,737,q),
(77,826,l),
(146,784,o),
(247,701,o),
(282,658,q),
(455,802,l),
(540,802,l),
(540,573,l),
(804,802,l),
(880,802,l),
(880,2,l),
(795,2,l),
(795,229,l),
(531,2,l),
(455,2,l),
(455,686,l),
(330,581,l),
(365,505,o),
(365,402,qs),
(365,333,o),
(333,217,o),
(263,117,o),
(152,24,o),
(73,-24,q)
);
},
{
closed = 1;
nodes = (
(540,124,l),
(795,342,l),
(795,682,l),
(540,460,l)
);
}
);
width = 975;
}
);
},
{
glyphname = u10C86_10C92_10C99_CSJN.ltr;
layers = (
{
layerId = "97583185-4D09-4CC5-9049-5210241494EA";
shapes = (
{
closed = 1;
nodes = (
(902,-25,l),
(823,23,o),
(712,116,o),
(642,216,o),
(610,332,o),
(610,401,qs),
(610,505,o),
(645,581,q),
(520,686,l),
(520,1,l),
(444,1,l),
(180,228,l),
(180,1,l),
(95,1,l),
(95,802,l),
(171,802,l),
(435,573,l),
(435,802,l),
(520,802,l),
(693,658,l),
(728,701,o),
(829,784,o),
(898,826,q),
(943,737,l),
(871,692,o),
(777,616,o),
(722,538,o),
(699,454,o),
(699,348,o),
(721,260,o),
(776,181,o),
(869,107,o),
(939,64,q)
);
},
{
closed = 1;
nodes = (
(435,123,l),
(435,460,l),
(180,682,l),
(180,341,l)
);
}
);
width = 975;
}
);
},
{
glyphname = u10C92_10C90_Y;
layers = (
{
layerId = "97583185-4D09-4CC5-9049-5210241494EA";
shapes = (
{
closed = 1;
nodes = (
(225,1,l),
(223,381,l),
(107,258,l),
(72,341,l),
(223,491,l),
(223,649,l),
(63,443,l),
(9,513,l),
(233,802,l),
(310,802,l),
(310,555,l),
(432,685,l),
(461,601,l),
(310,449,l),
(312,1,l)
);
}
);
width = 494;
}
);
},
{
glyphname = u10C92_10C90_Y.ltr;
layers = (
{
layerId = "97583185-4D09-4CC5-9049-5210241494EA";
shapes = (
{
closed = 1;
nodes = (
(249,0,l),
(162,0,l),
(162,449,l),
(11,601,l),
(40,685,l),
(162,555,l),
(162,802,l),
(239,802,l),
(463,513,l),
(409,443,l),
(249,649,l),
(249,491,l),
(400,341,l),
(365,258,l),
(249,381,l)
);
}
);
width = 494;
}
);
},
